<?xml version="1.0" encoding="utf-8"?>
<svg xmlns="http://www.w3.org/2000/svg" xmlns:xlink="http://www.w3.org/1999/xlink" width="600" height="400" viewBox="0 0 2400 1600">
<defs>
  <clipPath id="clip350">
    <rect x="0" y="0" width="2400" height="1600"/>
  </clipPath>
</defs>
<path clip-path="url(#clip350)" d="M0 1600 L2400 1600 L2400 0 L0 0  Z" fill="#ffffff" fill-rule="evenodd" fill-opacity="1"/>
<defs>
  <clipPath id="clip351">
    <rect x="480" y="0" width="1681" height="1600"/>
  </clipPath>
</defs>
<path clip-path="url(#clip350)" d="M172.015 1423.18 L2352.76 1423.18 L2352.76 47.2441 L172.015 47.2441  Z" fill="#ffffff" fill-rule="evenodd" fill-opacity="1"/>
<defs>
  <clipPath id="clip352">
    <rect x="172" y="47" width="2182" height="1377"/>
  </clipPath>
</defs>
<polyline clip-path="url(#clip352)" style="stroke:#000000; stroke-linecap:round; stroke-linejoin:round; stroke-width:2; stroke-opacity:0.1; fill:none" points="666.85,1423.18 666.85,47.2441 "/>
<polyline clip-path="url(#clip352)" style="stroke:#000000; stroke-linecap:round; stroke-linejoin:round; stroke-width:2; stroke-opacity:0.1; fill:none" points="1208.25,1423.18 1208.25,47.2441 "/>
<polyline clip-path="url(#clip352)" style="stroke:#000000; stroke-linecap:round; stroke-linejoin:round; stroke-width:2; stroke-opacity:0.1; fill:none" points="1749.64,1423.18 1749.64,47.2441 "/>
<polyline clip-path="url(#clip352)" style="stroke:#000000; stroke-linecap:round; stroke-linejoin:round; stroke-width:2; stroke-opacity:0.1; fill:none" points="2291.04,1423.18 2291.04,47.2441 "/>
<polyline clip-path="url(#clip350)" style="stroke:#000000; stroke-linecap:round; stroke-linejoin:round; stroke-width:4; stroke-opacity:1; fill:none" points="172.015,1423.18 2352.76,1423.18 "/>
<polyline clip-path="url(#clip350)" style="stroke:#000000; stroke-linecap:round; stroke-linejoin:round; stroke-width:4; stroke-opacity:1; fill:none" points="666.85,1423.18 666.85,1404.28 "/>
<polyline clip-path="url(#clip350)" style="stroke:#000000; stroke-linecap:round; stroke-linejoin:round; stroke-width:4; stroke-opacity:1; fill:none" points="1208.25,1423.18 1208.25,1404.28 "/>
<polyline clip-path="url(#clip350)" style="stroke:#000000; stroke-linecap:round; stroke-linejoin:round; stroke-width:4; stroke-opacity:1; fill:none" points="1749.64,1423.18 1749.64,1404.28 "/>
<polyline clip-path="url(#clip350)" style="stroke:#000000; stroke-linecap:round; stroke-linejoin:round; stroke-width:4; stroke-opacity:1; fill:none" points="2291.04,1423.18 2291.04,1404.28 "/>
<path clip-path="url(#clip350)" d="M657.128 1451.02 L675.485 1451.02 L675.485 1454.96 L661.411 1454.96 L661.411 1463.43 Q662.429 1463.08 663.448 1462.92 Q664.466 1462.73 665.485 1462.73 Q671.272 1462.73 674.651 1465.9 Q678.031 1469.08 678.031 1474.49 Q678.031 1480.07 674.559 1483.17 Q671.086 1486.25 664.767 1486.25 Q662.591 1486.25 660.323 1485.88 Q658.077 1485.51 655.67 1484.77 L655.67 1480.07 Q657.753 1481.2 659.975 1481.76 Q662.198 1482.32 664.674 1482.32 Q668.679 1482.32 671.017 1480.21 Q673.355 1478.1 673.355 1474.49 Q673.355 1470.88 671.017 1468.77 Q668.679 1466.67 664.674 1466.67 Q662.799 1466.67 660.924 1467.08 Q659.073 1467.5 657.128 1468.38 L657.128 1451.02 Z" fill="#000000" fill-rule="nonzero" fill-opacity="1" /><path clip-path="url(#clip350)" d="M1182.93 1481.64 L1190.57 1481.64 L1190.57 1455.28 L1182.26 1456.95 L1182.26 1452.69 L1190.53 1451.02 L1195.2 1451.02 L1195.2 1481.64 L1202.84 1481.64 L1202.84 1485.58 L1182.93 1485.58 L1182.93 1481.64 Z" fill="#000000" fill-rule="nonzero" fill-opacity="1" /><path clip-path="url(#clip350)" d="M1222.29 1454.1 Q1218.67 1454.1 1216.85 1457.66 Q1215.04 1461.2 1215.04 1468.33 Q1215.04 1475.44 1216.85 1479.01 Q1218.67 1482.55 1222.29 1482.55 Q1225.92 1482.55 1227.72 1479.01 Q1229.55 1475.44 1229.55 1468.33 Q1229.55 1461.2 1227.72 1457.66 Q1225.92 1454.1 1222.29 1454.1 M1222.29 1450.39 Q1228.1 1450.39 1231.15 1455 Q1234.23 1459.58 1234.23 1468.33 Q1234.23 1477.06 1231.15 1481.67 Q1228.1 1486.25 1222.29 1486.25 Q1216.47 1486.25 1213.4 1481.67 Q1210.34 1477.06 1210.34 1468.33 Q1210.34 1459.58 1213.4 1455 Q1216.47 1450.39 1222.29 1450.39 Z" fill="#000000" fill-rule="nonzero" fill-opacity="1" /><path clip-path="url(#clip350)" d="M1724.83 1481.64 L1732.47 1481.64 L1732.47 1455.28 L1724.16 1456.95 L1724.16 1452.69 L1732.42 1451.02 L1737.1 1451.02 L1737.1 1481.64 L1744.73 1481.64 L1744.73 1485.58 L1724.83 1485.58 L1724.83 1481.64 Z" fill="#000000" fill-rule="nonzero" fill-opacity="1" /><path clip-path="url(#clip350)" d="M1754.22 1451.02 L1772.58 1451.02 L1772.58 1454.96 L1758.51 1454.96 L1758.51 1463.43 Q1759.53 1463.08 1760.54 1462.92 Q1761.56 1462.73 1762.58 1462.73 Q1768.37 1462.73 1771.75 1465.9 Q1775.13 1469.08 1775.13 1474.49 Q1775.13 1480.07 1771.66 1483.17 Q1768.18 1486.25 1761.86 1486.25 Q1759.69 1486.25 1757.42 1485.88 Q1755.17 1485.51 1752.77 1484.77 L1752.77 1480.07 Q1754.85 1481.2 1757.07 1481.76 Q1759.29 1482.32 1761.77 1482.32 Q1765.78 1482.32 1768.11 1480.21 Q1770.45 1478.1 1770.45 1474.49 Q1770.45 1470.88 1768.11 1468.77 Q1765.78 1466.67 1761.77 1466.67 Q1759.9 1466.67 1758.02 1467.08 Q1756.17 1467.5 1754.22 1468.38 L1754.22 1451.02 Z" fill="#000000" fill-rule="nonzero" fill-opacity="1" /><path clip-path="url(#clip350)" d="M2269.81 1481.64 L2286.13 1481.64 L2286.13 1485.58 L2264.19 1485.58 L2264.19 1481.64 Q2266.85 1478.89 2271.43 1474.26 Q2276.04 1469.61 2277.22 1468.27 Q2279.46 1465.74 2280.34 1464.01 Q2281.25 1462.25 2281.25 1460.56 Q2281.25 1457.8 2279.3 1456.07 Q2277.38 1454.33 2274.28 1454.33 Q2272.08 1454.33 2269.62 1455.09 Q2267.19 1455.86 2264.42 1457.41 L2264.42 1452.69 Q2267.24 1451.55 2269.69 1450.97 Q2272.15 1450.39 2274.19 1450.39 Q2279.56 1450.39 2282.75 1453.08 Q2285.94 1455.77 2285.94 1460.26 Q2285.94 1462.39 2285.13 1464.31 Q2284.35 1466.2 2282.24 1468.8 Q2281.66 1469.47 2278.56 1472.69 Q2275.46 1475.88 2269.81 1481.64 Z" fill="#000000" fill-rule="nonzero" fill-opacity="1" /><path clip-path="url(#clip350)" d="M2305.94 1454.1 Q2302.33 1454.1 2300.5 1457.66 Q2298.7 1461.2 2298.7 1468.33 Q2298.7 1475.44 2300.5 1479.01 Q2302.33 1482.55 2305.94 1482.55 Q2309.58 1482.55 2311.38 1479.01 Q2313.21 1475.44 2313.21 1468.33 Q2313.21 1461.2 2311.38 1457.66 Q2309.58 1454.1 2305.94 1454.1 M2305.94 1450.39 Q2311.75 1450.39 2314.81 1455 Q2317.89 1459.58 2317.89 1468.33 Q2317.89 1477.06 2314.81 1481.67 Q2311.75 1486.25 2305.94 1486.25 Q2300.13 1486.25 2297.06 1481.67 Q2294 1477.06 2294 1468.33 Q2294 1459.58 2297.06 1455 Q2300.13 1450.39 2305.94 1450.39 Z" fill="#000000" fill-rule="nonzero" fill-opacity="1" /><path clip-path="url(#clip350)" d="M1133.54 1533.76 L1133.54 1539.24 Q1131.06 1537.87 1128.55 1537.2 Q1126.06 1536.5 1123.52 1536.5 Q1117.82 1536.5 1114.67 1540.13 Q1111.52 1543.73 1111.52 1550.25 Q1111.52 1556.78 1114.67 1560.4 Q1117.82 1564 1123.52 1564 Q1126.06 1564 1128.55 1563.33 Q1131.06 1562.63 1133.54 1561.26 L1133.54 1566.68 Q1131.09 1567.82 1128.45 1568.39 Q1125.84 1568.97 1122.88 1568.97 Q1114.83 1568.97 1110.09 1563.91 Q1105.34 1558.85 1105.34 1550.25 Q1105.34 1541.53 1110.12 1536.53 Q1114.92 1531.54 1123.26 1531.54 Q1125.97 1531.54 1128.55 1532.11 Q1131.12 1532.65 1133.54 1533.76 Z" fill="#000000" fill-rule="nonzero" fill-opacity="1" /><path clip-path="url(#clip350)" d="M1174.22 1548.76 L1174.22 1551.62 L1147.29 1551.62 Q1147.68 1557.67 1150.92 1560.85 Q1154.2 1564 1160.02 1564 Q1163.4 1564 1166.55 1563.17 Q1169.73 1562.35 1172.85 1560.69 L1172.85 1566.23 Q1169.7 1567.57 1166.39 1568.27 Q1163.08 1568.97 1159.67 1568.97 Q1151.14 1568.97 1146.15 1564 Q1141.18 1559.04 1141.18 1550.57 Q1141.18 1541.82 1145.89 1536.69 Q1150.64 1531.54 1158.66 1531.54 Q1165.85 1531.54 1170.02 1536.18 Q1174.22 1540.8 1174.22 1548.76 M1168.36 1547.04 Q1168.3 1542.23 1165.66 1539.37 Q1163.05 1536.5 1158.72 1536.5 Q1153.82 1536.5 1150.86 1539.27 Q1147.93 1542.04 1147.48 1547.07 L1168.36 1547.04 Z" fill="#000000" fill-rule="nonzero" fill-opacity="1" /><path clip-path="url(#clip350)" d="M1183.83 1518.52 L1189.69 1518.52 L1189.69 1568.04 L1183.83 1568.04 L1183.83 1518.52 Z" fill="#000000" fill-rule="nonzero" fill-opacity="1" /><path clip-path="url(#clip350)" d="M1201.94 1518.52 L1207.8 1518.52 L1207.8 1568.04 L1201.94 1568.04 L1201.94 1518.52 Z" fill="#000000" fill-rule="nonzero" fill-opacity="1" /><path clip-path="url(#clip350)" d="M1242.78 1533.45 L1242.78 1538.98 Q1240.3 1537.71 1237.62 1537.07 Q1234.95 1536.44 1232.08 1536.44 Q1227.72 1536.44 1225.53 1537.77 Q1223.36 1539.11 1223.36 1541.79 Q1223.36 1543.82 1224.92 1545 Q1226.48 1546.15 1231.19 1547.2 L1233.2 1547.64 Q1239.44 1548.98 1242.05 1551.43 Q1244.69 1553.85 1244.69 1558.21 Q1244.69 1563.17 1240.74 1566.07 Q1236.83 1568.97 1229.95 1568.97 Q1227.09 1568.97 1223.97 1568.39 Q1220.88 1567.85 1217.44 1566.74 L1217.44 1560.69 Q1220.69 1562.38 1223.84 1563.24 Q1226.99 1564.07 1230.08 1564.07 Q1234.22 1564.07 1236.45 1562.66 Q1238.67 1561.23 1238.67 1558.65 Q1238.67 1556.27 1237.05 1554.99 Q1235.46 1553.72 1230.02 1552.54 L1227.98 1552.07 Q1222.54 1550.92 1220.12 1548.56 Q1217.7 1546.18 1217.7 1542.04 Q1217.7 1537.01 1221.26 1534.27 Q1224.83 1531.54 1231.38 1531.54 Q1234.63 1531.54 1237.5 1532.01 Q1240.36 1532.49 1242.78 1533.45 Z" fill="#000000" fill-rule="nonzero" fill-opacity="1" /><path clip-path="url(#clip350)" d="M1274.13 1553.98 L1274.13 1532.4 L1279.99 1532.4 L1279.99 1553.75 Q1279.99 1558.81 1281.96 1561.36 Q1283.93 1563.87 1287.88 1563.87 Q1292.62 1563.87 1295.36 1560.85 Q1298.13 1557.83 1298.13 1552.61 L1298.13 1532.4 L1303.99 1532.4 L1303.99 1568.04 L1298.13 1568.04 L1298.13 1562.57 Q1296 1565.82 1293.16 1567.41 Q1290.36 1568.97 1286.64 1568.97 Q1280.5 1568.97 1277.31 1565.15 Q1274.13 1561.33 1274.13 1553.98 M1288.87 1531.54 L1288.87 1531.54 Z" fill="#000000" fill-rule="nonzero" fill-opacity="1" /><path clip-path="url(#clip350)" d="M1338.77 1533.45 L1338.77 1538.98 Q1336.29 1537.71 1333.62 1537.07 Q1330.94 1536.44 1328.08 1536.44 Q1323.72 1536.44 1321.52 1537.77 Q1319.36 1539.11 1319.36 1541.79 Q1319.36 1543.82 1320.92 1545 Q1322.48 1546.15 1327.19 1547.2 L1329.19 1547.64 Q1335.43 1548.98 1338.04 1551.43 Q1340.68 1553.85 1340.68 1558.21 Q1340.68 1563.17 1336.74 1566.07 Q1332.82 1568.97 1325.95 1568.97 Q1323.08 1568.97 1319.96 1568.39 Q1316.88 1567.85 1313.44 1566.74 L1313.44 1560.69 Q1316.68 1562.38 1319.84 1563.24 Q1322.99 1564.07 1326.07 1564.07 Q1330.21 1564.07 1332.44 1562.66 Q1334.67 1561.23 1334.67 1558.65 Q1334.67 1556.27 1333.04 1554.99 Q1331.45 1553.72 1326.01 1552.54 L1323.97 1552.07 Q1318.53 1550.92 1316.11 1548.56 Q1313.69 1546.18 1313.69 1542.04 Q1313.69 1537.01 1317.26 1534.27 Q1320.82 1531.54 1327.38 1531.54 Q1330.63 1531.54 1333.49 1532.01 Q1336.35 1532.49 1338.77 1533.45 Z" fill="#000000" fill-rule="nonzero" fill-opacity="1" /><path clip-path="url(#clip350)" d="M1380.5 1548.76 L1380.5 1551.62 L1353.57 1551.62 Q1353.96 1557.67 1357.2 1560.85 Q1360.48 1564 1366.31 1564 Q1369.68 1564 1372.83 1563.17 Q1376.01 1562.35 1379.13 1560.69 L1379.13 1566.23 Q1375.98 1567.57 1372.67 1568.27 Q1369.36 1568.97 1365.96 1568.97 Q1357.43 1568.97 1352.43 1564 Q1347.46 1559.04 1347.46 1550.57 Q1347.46 1541.82 1352.17 1536.69 Q1356.92 1531.54 1364.94 1531.54 Q1372.13 1531.54 1376.3 1536.18 Q1380.5 1540.8 1380.5 1548.76 M1374.64 1547.04 Q1374.58 1542.23 1371.94 1539.37 Q1369.33 1536.5 1365 1536.5 Q1360.1 1536.5 1357.14 1539.27 Q1354.21 1542.04 1353.77 1547.07 L1374.64 1547.04 Z" fill="#000000" fill-rule="nonzero" fill-opacity="1" /><path clip-path="url(#clip350)" d="M1413.57 1537.81 L1413.57 1518.52 L1419.43 1518.52 L1419.43 1568.04 L1413.57 1568.04 L1413.57 1562.7 Q1411.72 1565.88 1408.89 1567.44 Q1406.09 1568.97 1402.14 1568.97 Q1395.68 1568.97 1391.61 1563.81 Q1387.57 1558.65 1387.57 1550.25 Q1387.57 1541.85 1391.61 1536.69 Q1395.68 1531.54 1402.14 1531.54 Q1406.09 1531.54 1408.89 1533.1 Q1411.72 1534.62 1413.57 1537.81 M1393.61 1550.25 Q1393.61 1556.71 1396.26 1560.4 Q1398.93 1564.07 1403.58 1564.07 Q1408.22 1564.07 1410.9 1560.4 Q1413.57 1556.71 1413.57 1550.25 Q1413.57 1543.79 1410.9 1540.13 Q1408.22 1536.44 1403.58 1536.44 Q1398.93 1536.44 1396.26 1540.13 Q1393.61 1543.79 1393.61 1550.25 Z" fill="#000000" fill-rule="nonzero" fill-opacity="1" /><polyline clip-path="url(#clip352)" style="stroke:#000000; stroke-linecap:round; stroke-linejoin:round; stroke-width:2; stroke-opacity:0.1; fill:none" points="172.015,1384.24 2352.76,1384.24 "/>
<polyline clip-path="url(#clip352)" style="stroke:#000000; stroke-linecap:round; stroke-linejoin:round; stroke-width:2; stroke-opacity:0.1; fill:none" points="172.015,1066.87 2352.76,1066.87 "/>
<polyline clip-path="url(#clip352)" style="stroke:#000000; stroke-linecap:round; stroke-linejoin:round; stroke-width:2; stroke-opacity:0.1; fill:none" points="172.015,749.494 2352.76,749.494 "/>
<polyline clip-path="url(#clip352)" style="stroke:#000000; stroke-linecap:round; stroke-linejoin:round; stroke-width:2; stroke-opacity:0.1; fill:none" points="172.015,432.121 2352.76,432.121 "/>
<polyline clip-path="url(#clip352)" style="stroke:#000000; stroke-linecap:round; stroke-linejoin:round; stroke-width:2; stroke-opacity:0.1; fill:none" points="172.015,114.749 2352.76,114.749 "/>
<polyline clip-path="url(#clip350)" style="stroke:#000000; stroke-linecap:round; stroke-linejoin:round; stroke-width:4; stroke-opacity:1; fill:none" points="172.015,1423.18 172.015,47.2441 "/>
<polyline clip-path="url(#clip350)" style="stroke:#000000; stroke-linecap:round; stroke-linejoin:round; stroke-width:4; stroke-opacity:1; fill:none" points="172.015,1384.24 190.912,1384.24 "/>
<polyline clip-path="url(#clip350)" style="stroke:#000000; stroke-linecap:round; stroke-linejoin:round; stroke-width:4; stroke-opacity:1; fill:none" points="172.015,1066.87 190.912,1066.87 "/>
<polyline clip-path="url(#clip350)" style="stroke:#000000; stroke-linecap:round; stroke-linejoin:round; stroke-width:4; stroke-opacity:1; fill:none" points="172.015,749.494 190.912,749.494 "/>
<polyline clip-path="url(#clip350)" style="stroke:#000000; stroke-linecap:round; stroke-linejoin:round; stroke-width:4; stroke-opacity:1; fill:none" points="172.015,432.121 190.912,432.121 "/>
<polyline clip-path="url(#clip350)" style="stroke:#000000; stroke-linecap:round; stroke-linejoin:round; stroke-width:4; stroke-opacity:1; fill:none" points="172.015,114.749 190.912,114.749 "/>
<path clip-path="url(#clip350)" d="M124.07 1370.04 Q120.459 1370.04 118.631 1373.6 Q116.825 1377.14 116.825 1384.27 Q116.825 1391.38 118.631 1394.94 Q120.459 1398.49 124.07 1398.49 Q127.705 1398.49 129.51 1394.94 Q131.339 1391.38 131.339 1384.27 Q131.339 1377.14 129.51 1373.6 Q127.705 1370.04 124.07 1370.04 M124.07 1366.33 Q129.881 1366.33 132.936 1370.94 Q136.015 1375.52 136.015 1384.27 Q136.015 1393 132.936 1397.61 Q129.881 1402.19 124.07 1402.19 Q118.26 1402.19 115.182 1397.61 Q112.126 1393 112.126 1384.27 Q112.126 1375.52 115.182 1370.94 Q118.26 1366.33 124.07 1366.33 Z" fill="#000000" fill-rule="nonzero" fill-opacity="1" /><path clip-path="url(#clip350)" d="M54.5569 1080.21 L62.1958 1080.21 L62.1958 1053.85 L53.8856 1055.51 L53.8856 1051.25 L62.1495 1049.59 L66.8254 1049.59 L66.8254 1080.21 L74.4642 1080.21 L74.4642 1084.15 L54.5569 1084.15 L54.5569 1080.21 Z" fill="#000000" fill-rule="nonzero" fill-opacity="1" /><path clip-path="url(#clip350)" d="M93.9086 1052.66 Q90.2975 1052.66 88.4688 1056.23 Q86.6632 1059.77 86.6632 1066.9 Q86.6632 1074.01 88.4688 1077.57 Q90.2975 1081.11 93.9086 1081.11 Q97.5428 1081.11 99.3483 1077.57 Q101.177 1074.01 101.177 1066.9 Q101.177 1059.77 99.3483 1056.23 Q97.5428 1052.66 93.9086 1052.66 M93.9086 1048.96 Q99.7187 1048.96 102.774 1053.57 Q105.853 1058.15 105.853 1066.9 Q105.853 1075.63 102.774 1080.23 Q99.7187 1084.82 93.9086 1084.82 Q88.0984 1084.82 85.0197 1080.23 Q81.9642 1075.63 81.9642 1066.9 Q81.9642 1058.15 85.0197 1053.57 Q88.0984 1048.96 93.9086 1048.96 Z" fill="#000000" fill-rule="nonzero" fill-opacity="1" /><path clip-path="url(#clip350)" d="M124.07 1052.66 Q120.459 1052.66 118.631 1056.23 Q116.825 1059.77 116.825 1066.9 Q116.825 1074.01 118.631 1077.57 Q120.459 1081.11 124.07 1081.11 Q127.705 1081.11 129.51 1077.57 Q131.339 1074.01 131.339 1066.9 Q131.339 1059.77 129.51 1056.23 Q127.705 1052.66 124.07 1052.66 M124.07 1048.96 Q129.881 1048.96 132.936 1053.57 Q136.015 1058.15 136.015 1066.9 Q136.015 1075.63 132.936 1080.23 Q129.881 1084.82 124.07 1084.82 Q118.26 1084.82 115.182 1080.23 Q112.126 1075.63 112.126 1066.9 Q112.126 1058.15 115.182 1053.57 Q118.26 1048.96 124.07 1048.96 Z" fill="#000000" fill-rule="nonzero" fill-opacity="1" /><path clip-path="url(#clip350)" d="M57.7745 762.839 L74.0939 762.839 L74.0939 766.774 L52.1495 766.774 L52.1495 762.839 Q54.8115 760.084 59.3949 755.454 Q64.0013 750.802 65.1819 749.459 Q67.4272 746.936 68.3068 745.2 Q69.2096 743.441 69.2096 741.751 Q69.2096 738.996 67.2652 737.26 Q65.3439 735.524 62.2421 735.524 Q60.043 735.524 57.5893 736.288 Q55.1588 737.052 52.381 738.603 L52.381 733.88 Q55.2051 732.746 57.6588 732.167 Q60.1124 731.589 62.1495 731.589 Q67.5198 731.589 70.7142 734.274 Q73.9087 736.959 73.9087 741.45 Q73.9087 743.579 73.0985 745.501 Q72.3115 747.399 70.205 749.991 Q69.6263 750.663 66.5245 753.88 Q63.4226 757.075 57.7745 762.839 Z" fill="#000000" fill-rule="nonzero" fill-opacity="1" /><path clip-path="url(#clip350)" d="M93.9086 735.292 Q90.2975 735.292 88.4688 738.857 Q86.6632 742.399 86.6632 749.528 Q86.6632 756.635 88.4688 760.2 Q90.2975 763.741 93.9086 763.741 Q97.5428 763.741 99.3483 760.2 Q101.177 756.635 101.177 749.528 Q101.177 742.399 99.3483 738.857 Q97.5428 735.292 93.9086 735.292 M93.9086 731.589 Q99.7187 731.589 102.774 736.195 Q105.853 740.778 105.853 749.528 Q105.853 758.255 102.774 762.862 Q99.7187 767.445 93.9086 767.445 Q88.0984 767.445 85.0197 762.862 Q81.9642 758.255 81.9642 749.528 Q81.9642 740.778 85.0197 736.195 Q88.0984 731.589 93.9086 731.589 Z" fill="#000000" fill-rule="nonzero" fill-opacity="1" /><path clip-path="url(#clip350)" d="M124.07 735.292 Q120.459 735.292 118.631 738.857 Q116.825 742.399 116.825 749.528 Q116.825 756.635 118.631 760.2 Q120.459 763.741 124.07 763.741 Q127.705 763.741 129.51 760.2 Q131.339 756.635 131.339 749.528 Q131.339 742.399 129.51 738.857 Q127.705 735.292 124.07 735.292 M124.07 731.589 Q129.881 731.589 132.936 736.195 Q136.015 740.778 136.015 749.528 Q136.015 758.255 132.936 762.862 Q129.881 767.445 124.07 767.445 Q118.26 767.445 115.182 762.862 Q112.126 758.255 112.126 749.528 Q112.126 740.778 115.182 736.195 Q118.26 731.589 124.07 731.589 Z" fill="#000000" fill-rule="nonzero" fill-opacity="1" /><path clip-path="url(#clip350)" d="M67.9133 430.767 Q71.2698 431.485 73.1448 433.753 Q75.0429 436.022 75.0429 439.355 Q75.0429 444.471 71.5244 447.272 Q68.0059 450.073 61.5245 450.073 Q59.3486 450.073 57.0338 449.633 Q54.7421 449.216 52.2884 448.36 L52.2884 443.846 Q54.2328 444.98 56.5477 445.559 Q58.8625 446.138 61.3856 446.138 Q65.7837 446.138 68.0754 444.401 Q70.3902 442.665 70.3902 439.355 Q70.3902 436.3 68.2374 434.587 Q66.1078 432.851 62.2884 432.851 L58.2606 432.851 L58.2606 429.008 L62.4735 429.008 Q65.9226 429.008 67.7513 427.642 Q69.58 426.253 69.58 423.661 Q69.58 420.999 67.6819 419.587 Q65.8069 418.152 62.2884 418.152 Q60.3671 418.152 58.168 418.568 Q55.969 418.985 53.3301 419.865 L53.3301 415.698 Q55.9921 414.957 58.3069 414.587 Q60.6449 414.216 62.705 414.216 Q68.0291 414.216 71.1309 416.647 Q74.2327 419.054 74.2327 423.175 Q74.2327 426.045 72.5892 428.036 Q70.9457 430.003 67.9133 430.767 Z" fill="#000000" fill-rule="nonzero" fill-opacity="1" /><path clip-path="url(#clip350)" d="M93.9086 417.92 Q90.2975 417.92 88.4688 421.485 Q86.6632 425.027 86.6632 432.156 Q86.6632 439.263 88.4688 442.827 Q90.2975 446.369 93.9086 446.369 Q97.5428 446.369 99.3483 442.827 Q101.177 439.263 101.177 432.156 Q101.177 425.027 99.3483 421.485 Q97.5428 417.92 93.9086 417.92 M93.9086 414.216 Q99.7187 414.216 102.774 418.823 Q105.853 423.406 105.853 432.156 Q105.853 440.883 102.774 445.489 Q99.7187 450.073 93.9086 450.073 Q88.0984 450.073 85.0197 445.489 Q81.9642 440.883 81.9642 432.156 Q81.9642 423.406 85.0197 418.823 Q88.0984 414.216 93.9086 414.216 Z" fill="#000000" fill-rule="nonzero" fill-opacity="1" /><path clip-path="url(#clip350)" d="M124.07 417.92 Q120.459 417.92 118.631 421.485 Q116.825 425.027 116.825 432.156 Q116.825 439.263 118.631 442.827 Q120.459 446.369 124.07 446.369 Q127.705 446.369 129.51 442.827 Q131.339 439.263 131.339 432.156 Q131.339 425.027 129.51 421.485 Q127.705 417.92 124.07 417.92 M124.07 414.216 Q129.881 414.216 132.936 418.823 Q136.015 423.406 136.015 432.156 Q136.015 440.883 132.936 445.489 Q129.881 450.073 124.07 450.073 Q118.26 450.073 115.182 445.489 Q112.126 440.883 112.126 432.156 Q112.126 423.406 115.182 418.823 Q118.26 414.216 124.07 414.216 Z" fill="#000000" fill-rule="nonzero" fill-opacity="1" /><path clip-path="url(#clip350)" d="M66.5939 101.543 L54.7884 119.992 L66.5939 119.992 L66.5939 101.543 M65.367 97.4692 L71.2466 97.4692 L71.2466 119.992 L76.1772 119.992 L76.1772 123.881 L71.2466 123.881 L71.2466 132.029 L66.5939 132.029 L66.5939 123.881 L50.9921 123.881 L50.9921 119.367 L65.367 97.4692 Z" fill="#000000" fill-rule="nonzero" fill-opacity="1" /><path clip-path="url(#clip350)" d="M93.9086 100.548 Q90.2975 100.548 88.4688 104.113 Q86.6632 107.654 86.6632 114.784 Q86.6632 121.89 88.4688 125.455 Q90.2975 128.997 93.9086 128.997 Q97.5428 128.997 99.3483 125.455 Q101.177 121.89 101.177 114.784 Q101.177 107.654 99.3483 104.113 Q97.5428 100.548 93.9086 100.548 M93.9086 96.8442 Q99.7187 96.8442 102.774 101.451 Q105.853 106.034 105.853 114.784 Q105.853 123.511 102.774 128.117 Q99.7187 132.7 93.9086 132.7 Q88.0984 132.7 85.0197 128.117 Q81.9642 123.511 81.9642 114.784 Q81.9642 106.034 85.0197 101.451 Q88.0984 96.8442 93.9086 96.8442 Z" fill="#000000" fill-rule="nonzero" fill-opacity="1" /><path clip-path="url(#clip350)" d="M124.07 100.548 Q120.459 100.548 118.631 104.113 Q116.825 107.654 116.825 114.784 Q116.825 121.89 118.631 125.455 Q120.459 128.997 124.07 128.997 Q127.705 128.997 129.51 125.455 Q131.339 121.89 131.339 114.784 Q131.339 107.654 129.51 104.113 Q127.705 100.548 124.07 100.548 M124.07 96.8442 Q129.881 96.8442 132.936 101.451 Q136.015 106.034 136.015 114.784 Q136.015 123.511 132.936 128.117 Q129.881 132.7 124.07 132.7 Q118.26 132.7 115.182 128.117 Q112.126 123.511 112.126 114.784 Q112.126 106.034 115.182 101.451 Q118.26 96.8442 124.07 96.8442 Z" fill="#000000" fill-rule="nonzero" fill-opacity="1" /><polyline clip-path="url(#clip352)" style="stroke:#009af9; stroke-linecap:round; stroke-linejoin:round; stroke-width:4; stroke-opacity:1; fill:none" points="233.734,86.1857 342.013,486.075 450.292,527.333 558.571,533.681 666.85,571.765 775.129,619.371 883.409,555.897 991.688,565.418 1099.97,555.897 1208.25,571.765 1316.52,527.333 1424.8,581.286 1533.08,590.808 1641.36,540.028 1749.64,574.939 1857.92,590.808 1966.2,568.592 2074.48,540.028 2182.76,609.85 2291.04,606.676 "/>
<polyline clip-path="url(#clip352)" style="stroke:#e26f46; stroke-linecap:round; stroke-linejoin:round; stroke-width:4; stroke-opacity:1; fill:none" points="233.734,1384.24 342.013,1263.64 450.292,1181.12 558.571,1219.2 666.85,1152.56 775.129,1165.25 883.409,1165.25 991.688,1158.9 1099.97,1200.16 1208.25,1187.47 1316.52,1108.12 1424.8,1158.9 1533.08,1162.08 1641.36,1184.29 1749.64,1168.43 1857.92,1181.12 1966.2,1139.86 2074.48,1168.43 2182.76,1168.43 2291.04,1168.43 "/>
<polyline clip-path="url(#clip352)" style="stroke:#3da44d; stroke-linecap:round; stroke-linejoin:round; stroke-width:4; stroke-opacity:1; fill:none" points="233.734,403.558 342.013,924.048 450.292,1047.82 558.571,1016.09 666.85,1120.82 775.129,1155.73 883.409,1092.26 991.688,1108.12 1099.97,1057.34 1208.25,1092.26 1316.52,1133.51 1424.8,1123.99 1533.08,1130.34 1641.36,1070.04 1749.64,1108.12 1857.92,1111.3 1966.2,1130.34 2074.48,1085.91 2182.76,1149.38 2291.04,1139.86 "/>
<path clip-path="url(#clip350)" d="M1792.71 300.469 L2280.06 300.469 L2280.06 93.1086 L1792.71 93.1086  Z" fill="#ffffff" fill-rule="evenodd" fill-opacity="1"/>
<polyline clip-path="url(#clip350)" style="stroke:#000000; stroke-linecap:round; stroke-linejoin:round; stroke-width:4; stroke-opacity:1; fill:none" points="1792.71,300.469 2280.06,300.469 2280.06,93.1086 1792.71,93.1086 1792.71,300.469 "/>
<polyline clip-path="url(#clip350)" style="stroke:#009af9; stroke-linecap:round; stroke-linejoin:round; stroke-width:4; stroke-opacity:1; fill:none" points="1816.94,144.949 1962.32,144.949 "/>
<path clip-path="url(#clip350)" d="M1993.96 128.942 L1993.96 136.303 L2002.73 136.303 L2002.73 139.613 L1993.96 139.613 L1993.96 153.687 Q1993.96 156.858 1994.82 157.761 Q1995.7 158.664 1998.36 158.664 L2002.73 158.664 L2002.73 162.229 L1998.36 162.229 Q1993.43 162.229 1991.55 160.4 Q1989.68 158.548 1989.68 153.687 L1989.68 139.613 L1986.55 139.613 L1986.55 136.303 L1989.68 136.303 L1989.68 128.942 L1993.96 128.942 Z" fill="#000000" fill-rule="nonzero" fill-opacity="1" /><path clip-path="url(#clip350)" d="M2018.38 139.289 Q2014.96 139.289 2012.97 141.974 Q2010.97 144.636 2010.97 149.289 Q2010.97 153.942 2012.94 156.627 Q2014.93 159.289 2018.38 159.289 Q2021.78 159.289 2023.78 156.604 Q2025.77 153.918 2025.77 149.289 Q2025.77 144.682 2023.78 141.997 Q2021.78 139.289 2018.38 139.289 M2018.38 135.678 Q2023.94 135.678 2027.11 139.289 Q2030.28 142.9 2030.28 149.289 Q2030.28 155.655 2027.11 159.289 Q2023.94 162.9 2018.38 162.9 Q2012.8 162.9 2009.63 159.289 Q2006.48 155.655 2006.48 149.289 Q2006.48 142.9 2009.63 139.289 Q2012.8 135.678 2018.38 135.678 Z" fill="#000000" fill-rule="nonzero" fill-opacity="1" /><path clip-path="url(#clip350)" d="M2041.55 128.942 L2041.55 136.303 L2050.33 136.303 L2050.33 139.613 L2041.55 139.613 L2041.55 153.687 Q2041.55 156.858 2042.41 157.761 Q2043.29 158.664 2045.95 158.664 L2050.33 158.664 L2050.33 162.229 L2045.95 162.229 Q2041.02 162.229 2039.15 160.4 Q2037.27 158.548 2037.27 153.687 L2037.27 139.613 L2034.15 139.613 L2034.15 136.303 L2037.27 136.303 L2037.27 128.942 L2041.55 128.942 Z" fill="#000000" fill-rule="nonzero" fill-opacity="1" /><path clip-path="url(#clip350)" d="M2067.71 149.196 Q2062.55 149.196 2060.56 150.377 Q2058.57 151.557 2058.57 154.405 Q2058.57 156.673 2060.05 158.016 Q2061.55 159.335 2064.12 159.335 Q2067.66 159.335 2069.79 156.835 Q2071.95 154.312 2071.95 150.145 L2071.95 149.196 L2067.71 149.196 M2076.21 147.437 L2076.21 162.229 L2071.95 162.229 L2071.95 158.293 Q2070.49 160.655 2068.31 161.789 Q2066.14 162.9 2062.99 162.9 Q2059.01 162.9 2056.65 160.678 Q2054.31 158.432 2054.31 154.682 Q2054.31 150.307 2057.22 148.085 Q2060.16 145.863 2065.97 145.863 L2071.95 145.863 L2071.95 145.446 Q2071.95 142.507 2070 140.909 Q2068.08 139.289 2064.59 139.289 Q2062.36 139.289 2060.26 139.821 Q2058.15 140.354 2056.21 141.419 L2056.21 137.483 Q2058.54 136.581 2060.74 136.141 Q2062.94 135.678 2065.02 135.678 Q2070.65 135.678 2073.43 138.594 Q2076.21 141.511 2076.21 147.437 Z" fill="#000000" fill-rule="nonzero" fill-opacity="1" /><path clip-path="url(#clip350)" d="M2084.98 126.21 L2089.24 126.21 L2089.24 162.229 L2084.98 162.229 L2084.98 126.21 Z" fill="#000000" fill-rule="nonzero" fill-opacity="1" /><path clip-path="url(#clip350)" d="M2113.22 126.21 L2117.48 126.21 L2117.48 162.229 L2113.22 162.229 L2113.22 126.21 Z" fill="#000000" fill-rule="nonzero" fill-opacity="1" /><path clip-path="url(#clip350)" d="M2148.57 148.201 L2148.57 150.284 L2128.98 150.284 Q2129.26 154.682 2131.62 156.997 Q2134.01 159.289 2138.24 159.289 Q2140.7 159.289 2142.99 158.687 Q2145.3 158.085 2147.57 156.881 L2147.57 160.909 Q2145.28 161.881 2142.87 162.391 Q2140.46 162.9 2137.99 162.9 Q2131.78 162.9 2128.15 159.289 Q2124.54 155.678 2124.54 149.52 Q2124.54 143.155 2127.96 139.428 Q2131.41 135.678 2137.25 135.678 Q2142.48 135.678 2145.51 139.057 Q2148.57 142.414 2148.57 148.201 M2144.31 146.951 Q2144.26 143.456 2142.34 141.372 Q2140.44 139.289 2137.29 139.289 Q2133.73 139.289 2131.58 141.303 Q2129.45 143.317 2129.12 146.974 L2144.31 146.951 Z" fill="#000000" fill-rule="nonzero" fill-opacity="1" /><path clip-path="url(#clip350)" d="M2177.11 146.581 L2177.11 162.229 L2172.85 162.229 L2172.85 146.719 Q2172.85 143.039 2171.41 141.21 Q2169.98 139.382 2167.11 139.382 Q2163.66 139.382 2161.67 141.581 Q2159.68 143.78 2159.68 147.576 L2159.68 162.229 L2155.39 162.229 L2155.39 136.303 L2159.68 136.303 L2159.68 140.331 Q2161.2 137.993 2163.27 136.835 Q2165.35 135.678 2168.06 135.678 Q2172.52 135.678 2174.82 138.456 Q2177.11 141.21 2177.11 146.581 Z" fill="#000000" fill-rule="nonzero" fill-opacity="1" /><path clip-path="url(#clip350)" d="M2202.66 148.965 Q2202.66 144.335 2200.74 141.789 Q2198.84 139.243 2195.39 139.243 Q2191.97 139.243 2190.05 141.789 Q2188.15 144.335 2188.15 148.965 Q2188.15 153.571 2190.05 156.118 Q2191.97 158.664 2195.39 158.664 Q2198.84 158.664 2200.74 156.118 Q2202.66 153.571 2202.66 148.965 M2206.92 159.011 Q2206.92 165.631 2203.98 168.849 Q2201.04 172.09 2194.98 172.09 Q2192.73 172.09 2190.74 171.742 Q2188.75 171.418 2186.88 170.724 L2186.88 166.58 Q2188.75 167.599 2190.58 168.085 Q2192.41 168.571 2194.31 168.571 Q2198.5 168.571 2200.58 166.372 Q2202.66 164.196 2202.66 159.775 L2202.66 157.668 Q2201.34 159.96 2199.28 161.094 Q2197.22 162.229 2194.35 162.229 Q2189.58 162.229 2186.67 158.594 Q2183.75 154.96 2183.75 148.965 Q2183.75 142.946 2186.67 139.312 Q2189.58 135.678 2194.35 135.678 Q2197.22 135.678 2199.28 136.812 Q2201.34 137.946 2202.66 140.238 L2202.66 136.303 L2206.92 136.303 L2206.92 159.011 Z" fill="#000000" fill-rule="nonzero" fill-opacity="1" /><path clip-path="url(#clip350)" d="M2219.91 128.942 L2219.91 136.303 L2228.68 136.303 L2228.68 139.613 L2219.91 139.613 L2219.91 153.687 Q2219.91 156.858 2220.76 157.761 Q2221.64 158.664 2224.31 158.664 L2228.68 158.664 L2228.68 162.229 L2224.31 162.229 Q2219.38 162.229 2217.5 160.4 Q2215.63 158.548 2215.63 153.687 L2215.63 139.613 L2212.5 139.613 L2212.5 136.303 L2215.63 136.303 L2215.63 128.942 L2219.91 128.942 Z" fill="#000000" fill-rule="nonzero" fill-opacity="1" /><path clip-path="url(#clip350)" d="M2255.83 146.581 L2255.83 162.229 L2251.57 162.229 L2251.57 146.719 Q2251.57 143.039 2250.14 141.21 Q2248.7 139.382 2245.83 139.382 Q2242.39 139.382 2240.39 141.581 Q2238.4 143.78 2238.4 147.576 L2238.4 162.229 L2234.12 162.229 L2234.12 126.21 L2238.4 126.21 L2238.4 140.331 Q2239.93 137.993 2241.99 136.835 Q2244.07 135.678 2246.78 135.678 Q2251.25 135.678 2253.54 138.456 Q2255.83 141.21 2255.83 146.581 Z" fill="#000000" fill-rule="nonzero" fill-opacity="1" /><polyline clip-path="url(#clip350)" style="stroke:#e26f46; stroke-linecap:round; stroke-linejoin:round; stroke-width:4; stroke-opacity:1; fill:none" points="1816.94,196.789 1962.32,196.789 "/>
<path clip-path="url(#clip350)" d="M2016.23 190.735 L1992.34 199.231 L2016.23 207.68 L2016.23 211.893 L1986.55 201.129 L1986.55 197.286 L2016.23 186.522 L2016.23 190.735 Z" fill="#000000" fill-rule="nonzero" fill-opacity="1" /><path clip-path="url(#clip350)" d="M2041.34 190.735 L2041.34 186.522 L2071.02 197.286 L2071.02 201.129 L2041.34 211.893 L2041.34 207.68 L2065.19 199.231 L2041.34 190.735 Z" fill="#000000" fill-rule="nonzero" fill-opacity="1" /><polyline clip-path="url(#clip350)" style="stroke:#3da44d; stroke-linecap:round; stroke-linejoin:round; stroke-width:4; stroke-opacity:1; fill:none" points="1816.94,248.629 1962.32,248.629 "/>
<path clip-path="url(#clip350)" d="M2003.34 236.187 L2003.34 249.08 L2016.23 249.08 L2016.23 253.015 L2003.34 253.015 L2003.34 265.909 L1999.45 265.909 L1999.45 253.015 L1986.55 253.015 L1986.55 249.08 L1999.45 249.08 L1999.45 236.187 L2003.34 236.187 Z" fill="#000000" fill-rule="nonzero" fill-opacity="1" /><path clip-path="url(#clip350)" d="M2038.64 251.024 L2051.11 251.024 L2051.11 254.821 L2038.64 254.821 L2038.64 251.024 Z" fill="#000000" fill-rule="nonzero" fill-opacity="1" /></svg>
