<?xml version="1.0" encoding="utf-8"?>
<svg xmlns="http://www.w3.org/2000/svg" xmlns:xlink="http://www.w3.org/1999/xlink" width="600" height="400" viewBox="0 0 2400 1600">
<defs>
  <clipPath id="clip300">
    <rect x="0" y="0" width="2400" height="1600"/>
  </clipPath>
</defs>
<path clip-path="url(#clip300)" d="M0 1600 L2400 1600 L2400 0 L0 0  Z" fill="#ffffff" fill-rule="evenodd" fill-opacity="1"/>
<defs>
  <clipPath id="clip301">
    <rect x="480" y="0" width="1681" height="1600"/>
  </clipPath>
</defs>
<path clip-path="url(#clip300)" d="M169.121 1486.45 L2352.76 1486.45 L2352.76 47.2441 L169.121 47.2441  Z" fill="#ffffff" fill-rule="evenodd" fill-opacity="1"/>
<defs>
  <clipPath id="clip302">
    <rect x="169" y="47" width="2185" height="1440"/>
  </clipPath>
</defs>
<polyline clip-path="url(#clip302)" style="stroke:#000000; stroke-linecap:round; stroke-linejoin:round; stroke-width:2; stroke-opacity:0.1; fill:none" points="451.177,1486.45 451.177,47.2441 "/>
<polyline clip-path="url(#clip302)" style="stroke:#000000; stroke-linecap:round; stroke-linejoin:round; stroke-width:2; stroke-opacity:0.1; fill:none" points="856.058,1486.45 856.058,47.2441 "/>
<polyline clip-path="url(#clip302)" style="stroke:#000000; stroke-linecap:round; stroke-linejoin:round; stroke-width:2; stroke-opacity:0.1; fill:none" points="1260.94,1486.45 1260.94,47.2441 "/>
<polyline clip-path="url(#clip302)" style="stroke:#000000; stroke-linecap:round; stroke-linejoin:round; stroke-width:2; stroke-opacity:0.1; fill:none" points="1665.82,1486.45 1665.82,47.2441 "/>
<polyline clip-path="url(#clip302)" style="stroke:#000000; stroke-linecap:round; stroke-linejoin:round; stroke-width:2; stroke-opacity:0.1; fill:none" points="2070.7,1486.45 2070.7,47.2441 "/>
<polyline clip-path="url(#clip300)" style="stroke:#000000; stroke-linecap:round; stroke-linejoin:round; stroke-width:4; stroke-opacity:1; fill:none" points="169.121,1486.45 2352.76,1486.45 "/>
<polyline clip-path="url(#clip300)" style="stroke:#000000; stroke-linecap:round; stroke-linejoin:round; stroke-width:4; stroke-opacity:1; fill:none" points="451.177,1486.45 451.177,1467.55 "/>
<polyline clip-path="url(#clip300)" style="stroke:#000000; stroke-linecap:round; stroke-linejoin:round; stroke-width:4; stroke-opacity:1; fill:none" points="856.058,1486.45 856.058,1467.55 "/>
<polyline clip-path="url(#clip300)" style="stroke:#000000; stroke-linecap:round; stroke-linejoin:round; stroke-width:4; stroke-opacity:1; fill:none" points="1260.94,1486.45 1260.94,1467.55 "/>
<polyline clip-path="url(#clip300)" style="stroke:#000000; stroke-linecap:round; stroke-linejoin:round; stroke-width:4; stroke-opacity:1; fill:none" points="1665.82,1486.45 1665.82,1467.55 "/>
<polyline clip-path="url(#clip300)" style="stroke:#000000; stroke-linecap:round; stroke-linejoin:round; stroke-width:4; stroke-opacity:1; fill:none" points="2070.7,1486.45 2070.7,1467.55 "/>
<path clip-path="url(#clip300)" d="M414.87 1544.91 L431.189 1544.91 L431.189 1548.85 L409.245 1548.85 L409.245 1544.91 Q411.907 1542.16 416.49 1537.53 Q421.096 1532.88 422.277 1531.53 Q424.522 1529.01 425.402 1527.27 Q426.305 1525.51 426.305 1523.82 Q426.305 1521.07 424.36 1519.33 Q422.439 1517.6 419.337 1517.6 Q417.138 1517.6 414.684 1518.36 Q412.254 1519.13 409.476 1520.68 L409.476 1515.95 Q412.3 1514.82 414.754 1514.24 Q417.208 1513.66 419.245 1513.66 Q424.615 1513.66 427.809 1516.35 Q431.004 1519.03 431.004 1523.52 Q431.004 1525.65 430.194 1527.57 Q429.407 1529.47 427.3 1532.07 Q426.721 1532.74 423.62 1535.95 Q420.518 1539.15 414.87 1544.91 Z" fill="#000000" fill-rule="nonzero" fill-opacity="1" /><path clip-path="url(#clip300)" d="M451.582 1529.7 Q448.434 1529.7 446.582 1531.86 Q444.754 1534.01 444.754 1537.76 Q444.754 1541.49 446.582 1543.66 Q448.434 1545.82 451.582 1545.82 Q454.731 1545.82 456.559 1543.66 Q458.411 1541.49 458.411 1537.76 Q458.411 1534.01 456.559 1531.86 Q454.731 1529.7 451.582 1529.7 M460.865 1515.05 L460.865 1519.31 Q459.106 1518.48 457.3 1518.04 Q455.518 1517.6 453.758 1517.6 Q449.129 1517.6 446.675 1520.72 Q444.245 1523.85 443.897 1530.17 Q445.263 1528.15 447.323 1527.09 Q449.383 1526 451.86 1526 Q457.069 1526 460.078 1529.17 Q463.11 1532.32 463.11 1537.76 Q463.11 1543.08 459.962 1546.3 Q456.814 1549.52 451.582 1549.52 Q445.587 1549.52 442.416 1544.94 Q439.245 1540.33 439.245 1531.6 Q439.245 1523.41 443.133 1518.55 Q447.022 1513.66 453.573 1513.66 Q455.332 1513.66 457.115 1514.01 Q458.92 1514.36 460.865 1515.05 Z" fill="#000000" fill-rule="nonzero" fill-opacity="1" /><path clip-path="url(#clip300)" d="M481.166 1517.37 Q477.555 1517.37 475.726 1520.93 Q473.92 1524.47 473.92 1531.6 Q473.92 1538.71 475.726 1542.27 Q477.555 1545.82 481.166 1545.82 Q484.8 1545.82 486.605 1542.27 Q488.434 1538.71 488.434 1531.6 Q488.434 1524.47 486.605 1520.93 Q484.8 1517.37 481.166 1517.37 M481.166 1513.66 Q486.976 1513.66 490.031 1518.27 Q493.11 1522.85 493.11 1531.6 Q493.11 1540.33 490.031 1544.94 Q486.976 1549.52 481.166 1549.52 Q475.355 1549.52 472.277 1544.94 Q469.221 1540.33 469.221 1531.6 Q469.221 1522.85 472.277 1518.27 Q475.355 1513.66 481.166 1513.66 Z" fill="#000000" fill-rule="nonzero" fill-opacity="1" /><path clip-path="url(#clip300)" d="M819.75 1544.91 L836.07 1544.91 L836.07 1548.85 L814.125 1548.85 L814.125 1544.91 Q816.787 1542.16 821.371 1537.53 Q825.977 1532.88 827.158 1531.53 Q829.403 1529.01 830.283 1527.27 Q831.185 1525.51 831.185 1523.82 Q831.185 1521.07 829.241 1519.33 Q827.32 1517.6 824.218 1517.6 Q822.019 1517.6 819.565 1518.36 Q817.135 1519.13 814.357 1520.68 L814.357 1515.95 Q817.181 1514.82 819.635 1514.24 Q822.088 1513.66 824.125 1513.66 Q829.496 1513.66 832.69 1516.35 Q835.884 1519.03 835.884 1523.52 Q835.884 1525.65 835.074 1527.57 Q834.287 1529.47 832.181 1532.07 Q831.602 1532.74 828.5 1535.95 Q825.398 1539.15 819.75 1544.91 Z" fill="#000000" fill-rule="nonzero" fill-opacity="1" /><path clip-path="url(#clip300)" d="M844.704 1514.29 L866.926 1514.29 L866.926 1516.28 L854.38 1548.85 L849.496 1548.85 L861.301 1518.22 L844.704 1518.22 L844.704 1514.29 Z" fill="#000000" fill-rule="nonzero" fill-opacity="1" /><path clip-path="url(#clip300)" d="M886.046 1517.37 Q882.435 1517.37 880.606 1520.93 Q878.801 1524.47 878.801 1531.6 Q878.801 1538.71 880.606 1542.27 Q882.435 1545.82 886.046 1545.82 Q889.68 1545.82 891.486 1542.27 Q893.315 1538.71 893.315 1531.6 Q893.315 1524.47 891.486 1520.93 Q889.68 1517.37 886.046 1517.37 M886.046 1513.66 Q891.856 1513.66 894.912 1518.27 Q897.991 1522.85 897.991 1531.6 Q897.991 1540.33 894.912 1544.94 Q891.856 1549.52 886.046 1549.52 Q880.236 1549.52 877.157 1544.94 Q874.102 1540.33 874.102 1531.6 Q874.102 1522.85 877.157 1518.27 Q880.236 1513.66 886.046 1513.66 Z" fill="#000000" fill-rule="nonzero" fill-opacity="1" /><path clip-path="url(#clip300)" d="M1224.63 1544.91 L1240.95 1544.91 L1240.95 1548.85 L1219.01 1548.85 L1219.01 1544.91 Q1221.67 1542.16 1226.25 1537.53 Q1230.86 1532.88 1232.04 1531.53 Q1234.28 1529.01 1235.16 1527.27 Q1236.07 1525.51 1236.07 1523.82 Q1236.07 1521.07 1234.12 1519.33 Q1232.2 1517.6 1229.1 1517.6 Q1226.9 1517.6 1224.45 1518.36 Q1222.02 1519.13 1219.24 1520.68 L1219.24 1515.95 Q1222.06 1514.82 1224.52 1514.24 Q1226.97 1513.66 1229.01 1513.66 Q1234.38 1513.66 1237.57 1516.35 Q1240.77 1519.03 1240.77 1523.52 Q1240.77 1525.65 1239.95 1527.57 Q1239.17 1529.47 1237.06 1532.07 Q1236.48 1532.74 1233.38 1535.95 Q1230.28 1539.15 1224.63 1544.91 Z" fill="#000000" fill-rule="nonzero" fill-opacity="1" /><path clip-path="url(#clip300)" d="M1260.77 1532.44 Q1257.43 1532.44 1255.51 1534.22 Q1253.61 1536 1253.61 1539.13 Q1253.61 1542.25 1255.51 1544.03 Q1257.43 1545.82 1260.77 1545.82 Q1264.1 1545.82 1266.02 1544.03 Q1267.94 1542.23 1267.94 1539.13 Q1267.94 1536 1266.02 1534.22 Q1264.12 1532.44 1260.77 1532.44 M1256.09 1530.45 Q1253.08 1529.7 1251.39 1527.64 Q1249.72 1525.58 1249.72 1522.62 Q1249.72 1518.48 1252.66 1516.07 Q1255.63 1513.66 1260.77 1513.66 Q1265.93 1513.66 1268.87 1516.07 Q1271.81 1518.48 1271.81 1522.62 Q1271.81 1525.58 1270.12 1527.64 Q1268.45 1529.7 1265.46 1530.45 Q1268.84 1531.23 1270.72 1533.52 Q1272.62 1535.82 1272.62 1539.13 Q1272.62 1544.15 1269.54 1546.83 Q1266.48 1549.52 1260.77 1549.52 Q1255.05 1549.52 1251.97 1546.83 Q1248.91 1544.15 1248.91 1539.13 Q1248.91 1535.82 1250.81 1533.52 Q1252.71 1531.23 1256.09 1530.45 M1254.38 1523.06 Q1254.38 1525.75 1256.04 1527.25 Q1257.73 1528.76 1260.77 1528.76 Q1263.77 1528.76 1265.46 1527.25 Q1267.18 1525.75 1267.18 1523.06 Q1267.18 1520.38 1265.46 1518.87 Q1263.77 1517.37 1260.77 1517.37 Q1257.73 1517.37 1256.04 1518.87 Q1254.38 1520.38 1254.38 1523.06 Z" fill="#000000" fill-rule="nonzero" fill-opacity="1" /><path clip-path="url(#clip300)" d="M1290.93 1517.37 Q1287.32 1517.37 1285.49 1520.93 Q1283.68 1524.47 1283.68 1531.6 Q1283.68 1538.71 1285.49 1542.27 Q1287.32 1545.82 1290.93 1545.82 Q1294.56 1545.82 1296.37 1542.27 Q1298.2 1538.71 1298.2 1531.6 Q1298.2 1524.47 1296.37 1520.93 Q1294.56 1517.37 1290.93 1517.37 M1290.93 1513.66 Q1296.74 1513.66 1299.79 1518.27 Q1302.87 1522.85 1302.87 1531.6 Q1302.87 1540.33 1299.79 1544.94 Q1296.74 1549.52 1290.93 1549.52 Q1285.12 1549.52 1282.04 1544.94 Q1278.98 1540.33 1278.98 1531.6 Q1278.98 1522.85 1282.04 1518.27 Q1285.12 1513.66 1290.93 1513.66 Z" fill="#000000" fill-rule="nonzero" fill-opacity="1" /><path clip-path="url(#clip300)" d="M1629.51 1544.91 L1645.83 1544.91 L1645.83 1548.85 L1623.89 1548.85 L1623.89 1544.91 Q1626.55 1542.16 1631.13 1537.53 Q1635.74 1532.88 1636.92 1531.53 Q1639.16 1529.01 1640.04 1527.27 Q1640.95 1525.51 1640.95 1523.82 Q1640.95 1521.07 1639 1519.33 Q1637.08 1517.6 1633.98 1517.6 Q1631.78 1517.6 1629.33 1518.36 Q1626.9 1519.13 1624.12 1520.68 L1624.12 1515.95 Q1626.94 1514.82 1629.4 1514.24 Q1631.85 1513.66 1633.89 1513.66 Q1639.26 1513.66 1642.45 1516.35 Q1645.65 1519.03 1645.65 1523.52 Q1645.65 1525.65 1644.84 1527.57 Q1644.05 1529.47 1641.94 1532.07 Q1641.36 1532.74 1638.26 1535.95 Q1635.16 1539.15 1629.51 1544.91 Z" fill="#000000" fill-rule="nonzero" fill-opacity="1" /><path clip-path="url(#clip300)" d="M1655.78 1548.13 L1655.78 1543.87 Q1657.54 1544.7 1659.35 1545.14 Q1661.15 1545.58 1662.89 1545.58 Q1667.52 1545.58 1669.95 1542.48 Q1672.4 1539.36 1672.75 1533.01 Q1671.41 1535.01 1669.35 1536.07 Q1667.29 1537.13 1664.79 1537.13 Q1659.6 1537.13 1656.57 1534.01 Q1653.56 1530.86 1653.56 1525.42 Q1653.56 1520.1 1656.71 1516.88 Q1659.86 1513.66 1665.09 1513.66 Q1671.09 1513.66 1674.23 1518.27 Q1677.4 1522.85 1677.4 1531.6 Q1677.4 1539.77 1673.52 1544.66 Q1669.65 1549.52 1663.1 1549.52 Q1661.34 1549.52 1659.53 1549.17 Q1657.73 1548.82 1655.78 1548.13 M1665.09 1533.48 Q1668.24 1533.48 1670.07 1531.32 Q1671.92 1529.17 1671.92 1525.42 Q1671.92 1521.7 1670.07 1519.54 Q1668.24 1517.37 1665.09 1517.37 Q1661.94 1517.37 1660.09 1519.54 Q1658.26 1521.7 1658.26 1525.42 Q1658.26 1529.17 1660.09 1531.32 Q1661.94 1533.48 1665.09 1533.48 Z" fill="#000000" fill-rule="nonzero" fill-opacity="1" /><path clip-path="url(#clip300)" d="M1695.81 1517.37 Q1692.2 1517.37 1690.37 1520.93 Q1688.56 1524.47 1688.56 1531.6 Q1688.56 1538.71 1690.37 1542.27 Q1692.2 1545.82 1695.81 1545.82 Q1699.44 1545.82 1701.25 1542.27 Q1703.08 1538.71 1703.08 1531.6 Q1703.08 1524.47 1701.25 1520.93 Q1699.44 1517.37 1695.81 1517.37 M1695.81 1513.66 Q1701.62 1513.66 1704.67 1518.27 Q1707.75 1522.85 1707.75 1531.6 Q1707.75 1540.33 1704.67 1544.94 Q1701.62 1549.52 1695.81 1549.52 Q1690 1549.52 1686.92 1544.94 Q1683.86 1540.33 1683.86 1531.6 Q1683.86 1522.85 1686.92 1518.27 Q1690 1513.66 1695.81 1513.66 Z" fill="#000000" fill-rule="nonzero" fill-opacity="1" /><path clip-path="url(#clip300)" d="M2044.46 1530.21 Q2047.82 1530.93 2049.69 1533.2 Q2051.59 1535.47 2051.59 1538.8 Q2051.59 1543.92 2048.07 1546.72 Q2044.55 1549.52 2038.07 1549.52 Q2035.9 1549.52 2033.58 1549.08 Q2031.29 1548.66 2028.84 1547.81 L2028.84 1543.29 Q2030.78 1544.43 2033.1 1545.01 Q2035.41 1545.58 2037.93 1545.58 Q2042.33 1545.58 2044.62 1543.85 Q2046.94 1542.11 2046.94 1538.8 Q2046.94 1535.75 2044.79 1534.03 Q2042.66 1532.3 2038.84 1532.3 L2034.81 1532.3 L2034.81 1528.45 L2039.02 1528.45 Q2042.47 1528.45 2044.3 1527.09 Q2046.13 1525.7 2046.13 1523.11 Q2046.13 1520.45 2044.23 1519.03 Q2042.36 1517.6 2038.84 1517.6 Q2036.92 1517.6 2034.72 1518.01 Q2032.52 1518.43 2029.88 1519.31 L2029.88 1515.14 Q2032.54 1514.4 2034.86 1514.03 Q2037.19 1513.66 2039.25 1513.66 Q2044.58 1513.66 2047.68 1516.09 Q2050.78 1518.5 2050.78 1522.62 Q2050.78 1525.49 2049.14 1527.48 Q2047.49 1529.45 2044.46 1530.21 Z" fill="#000000" fill-rule="nonzero" fill-opacity="1" /><path clip-path="url(#clip300)" d="M2070.46 1517.37 Q2066.85 1517.37 2065.02 1520.93 Q2063.21 1524.47 2063.21 1531.6 Q2063.21 1538.71 2065.02 1542.27 Q2066.85 1545.82 2070.46 1545.82 Q2074.09 1545.82 2075.9 1542.27 Q2077.73 1538.71 2077.73 1531.6 Q2077.73 1524.47 2075.9 1520.93 Q2074.09 1517.37 2070.46 1517.37 M2070.46 1513.66 Q2076.27 1513.66 2079.32 1518.27 Q2082.4 1522.85 2082.4 1531.6 Q2082.4 1540.33 2079.32 1544.94 Q2076.27 1549.52 2070.46 1549.52 Q2064.65 1549.52 2061.57 1544.94 Q2058.51 1540.33 2058.51 1531.6 Q2058.51 1522.85 2061.57 1518.27 Q2064.65 1513.66 2070.46 1513.66 Z" fill="#000000" fill-rule="nonzero" fill-opacity="1" /><path clip-path="url(#clip300)" d="M2100.62 1517.37 Q2097.01 1517.37 2095.18 1520.93 Q2093.37 1524.47 2093.37 1531.6 Q2093.37 1538.71 2095.18 1542.27 Q2097.01 1545.82 2100.62 1545.82 Q2104.25 1545.82 2106.06 1542.27 Q2107.89 1538.71 2107.89 1531.6 Q2107.89 1524.47 2106.06 1520.93 Q2104.25 1517.37 2100.62 1517.37 M2100.62 1513.66 Q2106.43 1513.66 2109.48 1518.27 Q2112.56 1522.85 2112.56 1531.6 Q2112.56 1540.33 2109.48 1544.94 Q2106.43 1549.52 2100.62 1549.52 Q2094.81 1549.52 2091.73 1544.94 Q2088.67 1540.33 2088.67 1531.6 Q2088.67 1522.85 2091.73 1518.27 Q2094.81 1513.66 2100.62 1513.66 Z" fill="#000000" fill-rule="nonzero" fill-opacity="1" /><polyline clip-path="url(#clip302)" style="stroke:#000000; stroke-linecap:round; stroke-linejoin:round; stroke-width:2; stroke-opacity:0.1; fill:none" points="169.121,1445.72 2352.76,1445.72 "/>
<polyline clip-path="url(#clip302)" style="stroke:#000000; stroke-linecap:round; stroke-linejoin:round; stroke-width:2; stroke-opacity:0.1; fill:none" points="169.121,1125.49 2352.76,1125.49 "/>
<polyline clip-path="url(#clip302)" style="stroke:#000000; stroke-linecap:round; stroke-linejoin:round; stroke-width:2; stroke-opacity:0.1; fill:none" points="169.121,805.273 2352.76,805.273 "/>
<polyline clip-path="url(#clip302)" style="stroke:#000000; stroke-linecap:round; stroke-linejoin:round; stroke-width:2; stroke-opacity:0.1; fill:none" points="169.121,485.051 2352.76,485.051 "/>
<polyline clip-path="url(#clip302)" style="stroke:#000000; stroke-linecap:round; stroke-linejoin:round; stroke-width:2; stroke-opacity:0.1; fill:none" points="169.121,164.829 2352.76,164.829 "/>
<polyline clip-path="url(#clip300)" style="stroke:#000000; stroke-linecap:round; stroke-linejoin:round; stroke-width:4; stroke-opacity:1; fill:none" points="169.121,1486.45 169.121,47.2441 "/>
<polyline clip-path="url(#clip300)" style="stroke:#000000; stroke-linecap:round; stroke-linejoin:round; stroke-width:4; stroke-opacity:1; fill:none" points="169.121,1445.72 188.019,1445.72 "/>
<polyline clip-path="url(#clip300)" style="stroke:#000000; stroke-linecap:round; stroke-linejoin:round; stroke-width:4; stroke-opacity:1; fill:none" points="169.121,1125.49 188.019,1125.49 "/>
<polyline clip-path="url(#clip300)" style="stroke:#000000; stroke-linecap:round; stroke-linejoin:round; stroke-width:4; stroke-opacity:1; fill:none" points="169.121,805.273 188.019,805.273 "/>
<polyline clip-path="url(#clip300)" style="stroke:#000000; stroke-linecap:round; stroke-linejoin:round; stroke-width:4; stroke-opacity:1; fill:none" points="169.121,485.051 188.019,485.051 "/>
<polyline clip-path="url(#clip300)" style="stroke:#000000; stroke-linecap:round; stroke-linejoin:round; stroke-width:4; stroke-opacity:1; fill:none" points="169.121,164.829 188.019,164.829 "/>
<path clip-path="url(#clip300)" d="M121.177 1431.51 Q117.566 1431.51 115.737 1435.08 Q113.932 1438.62 113.932 1445.75 Q113.932 1452.86 115.737 1456.42 Q117.566 1459.96 121.177 1459.96 Q124.811 1459.96 126.617 1456.42 Q128.445 1452.86 128.445 1445.75 Q128.445 1438.62 126.617 1435.08 Q124.811 1431.51 121.177 1431.51 M121.177 1427.81 Q126.987 1427.81 130.043 1432.42 Q133.121 1437 133.121 1445.75 Q133.121 1454.48 130.043 1459.08 Q126.987 1463.67 121.177 1463.67 Q115.367 1463.67 112.288 1459.08 Q109.233 1454.48 109.233 1445.75 Q109.233 1437 112.288 1432.42 Q115.367 1427.81 121.177 1427.81 Z" fill="#000000" fill-rule="nonzero" fill-opacity="1" /><path clip-path="url(#clip300)" d="M86.0382 1138.84 L102.358 1138.84 L102.358 1142.77 L80.4133 1142.77 L80.4133 1138.84 Q83.0753 1136.08 87.6586 1131.45 Q92.2651 1126.8 93.4456 1125.46 Q95.691 1122.94 96.5706 1121.2 Q97.4734 1119.44 97.4734 1117.75 Q97.4734 1115 95.5289 1113.26 Q93.6076 1111.52 90.5058 1111.52 Q88.3067 1111.52 85.8531 1112.29 Q83.4225 1113.05 80.6447 1114.6 L80.6447 1109.88 Q83.4688 1108.75 85.9225 1108.17 Q88.3762 1107.59 90.4132 1107.59 Q95.7836 1107.59 98.978 1110.27 Q102.172 1112.96 102.172 1117.45 Q102.172 1119.58 101.362 1121.5 Q100.575 1123.4 98.4687 1125.99 Q97.89 1126.66 94.7882 1129.88 Q91.6864 1133.08 86.0382 1138.84 Z" fill="#000000" fill-rule="nonzero" fill-opacity="1" /><path clip-path="url(#clip300)" d="M112.219 1108.21 L130.575 1108.21 L130.575 1112.15 L116.501 1112.15 L116.501 1120.62 Q117.52 1120.27 118.538 1120.11 Q119.557 1119.93 120.575 1119.93 Q126.362 1119.93 129.742 1123.1 Q133.121 1126.27 133.121 1131.69 Q133.121 1137.26 129.649 1140.37 Q126.177 1143.45 119.857 1143.45 Q117.682 1143.45 115.413 1143.08 Q113.168 1142.7 110.76 1141.96 L110.76 1137.26 Q112.844 1138.4 115.066 1138.95 Q117.288 1139.51 119.765 1139.51 Q123.77 1139.51 126.107 1137.4 Q128.445 1135.3 128.445 1131.69 Q128.445 1128.08 126.107 1125.97 Q123.77 1123.86 119.765 1123.86 Q117.89 1123.86 116.015 1124.28 Q114.163 1124.7 112.219 1125.58 L112.219 1108.21 Z" fill="#000000" fill-rule="nonzero" fill-opacity="1" /><path clip-path="url(#clip300)" d="M81.0614 787.993 L99.4178 787.993 L99.4178 791.928 L85.3438 791.928 L85.3438 800.4 Q86.3623 800.053 87.3808 799.891 Q88.3993 799.705 89.4178 799.705 Q95.2049 799.705 98.5845 802.877 Q101.964 806.048 101.964 811.465 Q101.964 817.043 98.4919 820.145 Q95.0197 823.224 88.7003 823.224 Q86.5243 823.224 84.2558 822.853 Q82.0105 822.483 79.6031 821.742 L79.6031 817.043 Q81.6864 818.178 83.9086 818.733 Q86.1308 819.289 88.6077 819.289 Q92.6123 819.289 94.9502 817.182 Q97.2882 815.076 97.2882 811.465 Q97.2882 807.854 94.9502 805.747 Q92.6123 803.641 88.6077 803.641 Q86.7327 803.641 84.8577 804.057 Q83.0058 804.474 81.0614 805.354 L81.0614 787.993 Z" fill="#000000" fill-rule="nonzero" fill-opacity="1" /><path clip-path="url(#clip300)" d="M121.177 791.071 Q117.566 791.071 115.737 794.636 Q113.932 798.178 113.932 805.307 Q113.932 812.414 115.737 815.979 Q117.566 819.52 121.177 819.52 Q124.811 819.52 126.617 815.979 Q128.445 812.414 128.445 805.307 Q128.445 798.178 126.617 794.636 Q124.811 791.071 121.177 791.071 M121.177 787.368 Q126.987 787.368 130.043 791.974 Q133.121 796.557 133.121 805.307 Q133.121 814.034 130.043 818.641 Q126.987 823.224 121.177 823.224 Q115.367 823.224 112.288 818.641 Q109.233 814.034 109.233 805.307 Q109.233 796.557 112.288 791.974 Q115.367 787.368 121.177 787.368 Z" fill="#000000" fill-rule="nonzero" fill-opacity="1" /><path clip-path="url(#clip300)" d="M80.8299 467.771 L103.052 467.771 L103.052 469.762 L90.5058 502.331 L85.6216 502.331 L97.4271 471.706 L80.8299 471.706 L80.8299 467.771 Z" fill="#000000" fill-rule="nonzero" fill-opacity="1" /><path clip-path="url(#clip300)" d="M112.219 467.771 L130.575 467.771 L130.575 471.706 L116.501 471.706 L116.501 480.178 Q117.52 479.831 118.538 479.669 Q119.557 479.484 120.575 479.484 Q126.362 479.484 129.742 482.655 Q133.121 485.826 133.121 491.243 Q133.121 496.822 129.649 499.924 Q126.177 503.002 119.857 503.002 Q117.682 503.002 115.413 502.632 Q113.168 502.262 110.76 501.521 L110.76 496.822 Q112.844 497.956 115.066 498.512 Q117.288 499.067 119.765 499.067 Q123.77 499.067 126.107 496.961 Q128.445 494.854 128.445 491.243 Q128.445 487.632 126.107 485.526 Q123.77 483.419 119.765 483.419 Q117.89 483.419 116.015 483.836 Q114.163 484.252 112.219 485.132 L112.219 467.771 Z" fill="#000000" fill-rule="nonzero" fill-opacity="1" /><path clip-path="url(#clip300)" d="M51.6634 178.174 L59.3023 178.174 L59.3023 151.809 L50.9921 153.475 L50.9921 149.216 L59.256 147.549 L63.9319 147.549 L63.9319 178.174 L71.5707 178.174 L71.5707 182.109 L51.6634 182.109 L51.6634 178.174 Z" fill="#000000" fill-rule="nonzero" fill-opacity="1" /><path clip-path="url(#clip300)" d="M91.0151 150.628 Q87.404 150.628 85.5753 154.193 Q83.7697 157.735 83.7697 164.864 Q83.7697 171.971 85.5753 175.535 Q87.404 179.077 91.0151 179.077 Q94.6493 179.077 96.4548 175.535 Q98.2835 171.971 98.2835 164.864 Q98.2835 157.735 96.4548 154.193 Q94.6493 150.628 91.0151 150.628 M91.0151 146.924 Q96.8252 146.924 99.8808 151.531 Q102.959 156.114 102.959 164.864 Q102.959 173.591 99.8808 178.197 Q96.8252 182.781 91.0151 182.781 Q85.2049 182.781 82.1262 178.197 Q79.0707 173.591 79.0707 164.864 Q79.0707 156.114 82.1262 151.531 Q85.2049 146.924 91.0151 146.924 Z" fill="#000000" fill-rule="nonzero" fill-opacity="1" /><path clip-path="url(#clip300)" d="M121.177 150.628 Q117.566 150.628 115.737 154.193 Q113.932 157.735 113.932 164.864 Q113.932 171.971 115.737 175.535 Q117.566 179.077 121.177 179.077 Q124.811 179.077 126.617 175.535 Q128.445 171.971 128.445 164.864 Q128.445 157.735 126.617 154.193 Q124.811 150.628 121.177 150.628 M121.177 146.924 Q126.987 146.924 130.043 151.531 Q133.121 156.114 133.121 164.864 Q133.121 173.591 130.043 178.197 Q126.987 182.781 121.177 182.781 Q115.367 182.781 112.288 178.197 Q109.233 173.591 109.233 164.864 Q109.233 156.114 112.288 151.531 Q115.367 146.924 121.177 146.924 Z" fill="#000000" fill-rule="nonzero" fill-opacity="1" /><path clip-path="url(#clip302)" d="M289.225 1420.1 L289.225 1445.72 L370.201 1445.72 L370.201 1420.1 L289.225 1420.1 L289.225 1420.1  Z" fill="#009af9" fill-rule="evenodd" fill-opacity="1"/>
<polyline clip-path="url(#clip302)" style="stroke:#000000; stroke-linecap:round; stroke-linejoin:round; stroke-width:4; stroke-opacity:1; fill:none" points="289.225,1420.1 289.225,1445.72 370.201,1445.72 370.201,1420.1 289.225,1420.1 "/>
<path clip-path="url(#clip302)" d="M370.201 1381.67 L370.201 1445.72 L451.177 1445.72 L451.177 1381.67 L370.201 1381.67 L370.201 1381.67  Z" fill="#009af9" fill-rule="evenodd" fill-opacity="1"/>
<polyline clip-path="url(#clip302)" style="stroke:#000000; stroke-linecap:round; stroke-linejoin:round; stroke-width:4; stroke-opacity:1; fill:none" points="370.201,1381.67 370.201,1445.72 451.177,1445.72 451.177,1381.67 370.201,1381.67 "/>
<path clip-path="url(#clip302)" d="M451.177 1394.48 L451.177 1445.72 L532.153 1445.72 L532.153 1394.48 L451.177 1394.48 L451.177 1394.48  Z" fill="#009af9" fill-rule="evenodd" fill-opacity="1"/>
<polyline clip-path="url(#clip302)" style="stroke:#000000; stroke-linecap:round; stroke-linejoin:round; stroke-width:4; stroke-opacity:1; fill:none" points="451.177,1394.48 451.177,1445.72 532.153,1445.72 532.153,1394.48 451.177,1394.48 "/>
<path clip-path="url(#clip302)" d="M532.153 1292.01 L532.153 1445.72 L613.13 1445.72 L613.13 1292.01 L532.153 1292.01 L532.153 1292.01  Z" fill="#009af9" fill-rule="evenodd" fill-opacity="1"/>
<polyline clip-path="url(#clip302)" style="stroke:#000000; stroke-linecap:round; stroke-linejoin:round; stroke-width:4; stroke-opacity:1; fill:none" points="532.153,1292.01 532.153,1445.72 613.13,1445.72 613.13,1292.01 532.153,1292.01 "/>
<path clip-path="url(#clip302)" d="M613.13 1163.92 L613.13 1445.72 L694.106 1445.72 L694.106 1163.92 L613.13 1163.92 L613.13 1163.92  Z" fill="#009af9" fill-rule="evenodd" fill-opacity="1"/>
<polyline clip-path="url(#clip302)" style="stroke:#000000; stroke-linecap:round; stroke-linejoin:round; stroke-width:4; stroke-opacity:1; fill:none" points="613.13,1163.92 613.13,1445.72 694.106,1445.72 694.106,1163.92 613.13,1163.92 "/>
<path clip-path="url(#clip302)" d="M694.106 958.979 L694.106 1445.72 L775.082 1445.72 L775.082 958.979 L694.106 958.979 L694.106 958.979  Z" fill="#009af9" fill-rule="evenodd" fill-opacity="1"/>
<polyline clip-path="url(#clip302)" style="stroke:#000000; stroke-linecap:round; stroke-linejoin:round; stroke-width:4; stroke-opacity:1; fill:none" points="694.106,958.979 694.106,1445.72 775.082,1445.72 775.082,958.979 694.106,958.979 "/>
<path clip-path="url(#clip302)" d="M775.082 766.846 L775.082 1445.72 L856.058 1445.72 L856.058 766.846 L775.082 766.846 L775.082 766.846  Z" fill="#009af9" fill-rule="evenodd" fill-opacity="1"/>
<polyline clip-path="url(#clip302)" style="stroke:#000000; stroke-linecap:round; stroke-linejoin:round; stroke-width:4; stroke-opacity:1; fill:none" points="775.082,766.846 775.082,1445.72 856.058,1445.72 856.058,766.846 775.082,766.846 "/>
<path clip-path="url(#clip302)" d="M856.058 625.948 L856.058 1445.72 L937.034 1445.72 L937.034 625.948 L856.058 625.948 L856.058 625.948  Z" fill="#009af9" fill-rule="evenodd" fill-opacity="1"/>
<polyline clip-path="url(#clip302)" style="stroke:#000000; stroke-linecap:round; stroke-linejoin:round; stroke-width:4; stroke-opacity:1; fill:none" points="856.058,625.948 856.058,1445.72 937.034,1445.72 937.034,625.948 856.058,625.948 "/>
<path clip-path="url(#clip302)" d="M937.034 485.051 L937.034 1445.72 L1018.01 1445.72 L1018.01 485.051 L937.034 485.051 L937.034 485.051  Z" fill="#009af9" fill-rule="evenodd" fill-opacity="1"/>
<polyline clip-path="url(#clip302)" style="stroke:#000000; stroke-linecap:round; stroke-linejoin:round; stroke-width:4; stroke-opacity:1; fill:none" points="937.034,485.051 937.034,1445.72 1018.01,1445.72 1018.01,485.051 937.034,485.051 "/>
<path clip-path="url(#clip302)" d="M1018.01 433.816 L1018.01 1445.72 L1098.99 1445.72 L1098.99 433.816 L1018.01 433.816 L1018.01 433.816  Z" fill="#009af9" fill-rule="evenodd" fill-opacity="1"/>
<polyline clip-path="url(#clip302)" style="stroke:#000000; stroke-linecap:round; stroke-linejoin:round; stroke-width:4; stroke-opacity:1; fill:none" points="1018.01,433.816 1018.01,1445.72 1098.99,1445.72 1098.99,433.816 1018.01,433.816 "/>
<path clip-path="url(#clip302)" d="M1098.99 87.9763 L1098.99 1445.72 L1179.96 1445.72 L1179.96 87.9763 L1098.99 87.9763 L1098.99 87.9763  Z" fill="#009af9" fill-rule="evenodd" fill-opacity="1"/>
<polyline clip-path="url(#clip302)" style="stroke:#000000; stroke-linecap:round; stroke-linejoin:round; stroke-width:4; stroke-opacity:1; fill:none" points="1098.99,87.9763 1098.99,1445.72 1179.96,1445.72 1179.96,87.9763 1098.99,87.9763 "/>
<path clip-path="url(#clip302)" d="M1179.96 203.256 L1179.96 1445.72 L1260.94 1445.72 L1260.94 203.256 L1179.96 203.256 L1179.96 203.256  Z" fill="#009af9" fill-rule="evenodd" fill-opacity="1"/>
<polyline clip-path="url(#clip302)" style="stroke:#000000; stroke-linecap:round; stroke-linejoin:round; stroke-width:4; stroke-opacity:1; fill:none" points="1179.96,203.256 1179.96,1445.72 1260.94,1445.72 1260.94,203.256 1179.96,203.256 "/>
<path clip-path="url(#clip302)" d="M1260.94 305.727 L1260.94 1445.72 L1341.91 1445.72 L1341.91 305.727 L1260.94 305.727 L1260.94 305.727  Z" fill="#009af9" fill-rule="evenodd" fill-opacity="1"/>
<polyline clip-path="url(#clip302)" style="stroke:#000000; stroke-linecap:round; stroke-linejoin:round; stroke-width:4; stroke-opacity:1; fill:none" points="1260.94,305.727 1260.94,1445.72 1341.91,1445.72 1341.91,305.727 1260.94,305.727 "/>
<path clip-path="url(#clip302)" d="M1341.91 382.58 L1341.91 1445.72 L1422.89 1445.72 L1422.89 382.58 L1341.91 382.58 L1341.91 382.58  Z" fill="#009af9" fill-rule="evenodd" fill-opacity="1"/>
<polyline clip-path="url(#clip302)" style="stroke:#000000; stroke-linecap:round; stroke-linejoin:round; stroke-width:4; stroke-opacity:1; fill:none" points="1341.91,382.58 1341.91,1445.72 1422.89,1445.72 1422.89,382.58 1341.91,382.58 "/>
<path clip-path="url(#clip302)" d="M1422.89 459.433 L1422.89 1445.72 L1503.87 1445.72 L1503.87 459.433 L1422.89 459.433 L1422.89 459.433  Z" fill="#009af9" fill-rule="evenodd" fill-opacity="1"/>
<polyline clip-path="url(#clip302)" style="stroke:#000000; stroke-linecap:round; stroke-linejoin:round; stroke-width:4; stroke-opacity:1; fill:none" points="1422.89,459.433 1422.89,1445.72 1503.87,1445.72 1503.87,459.433 1422.89,459.433 "/>
<path clip-path="url(#clip302)" d="M1503.87 818.081 L1503.87 1445.72 L1584.84 1445.72 L1584.84 818.081 L1503.87 818.081 L1503.87 818.081  Z" fill="#009af9" fill-rule="evenodd" fill-opacity="1"/>
<polyline clip-path="url(#clip302)" style="stroke:#000000; stroke-linecap:round; stroke-linejoin:round; stroke-width:4; stroke-opacity:1; fill:none" points="1503.87,818.081 1503.87,1445.72 1584.84,1445.72 1584.84,818.081 1503.87,818.081 "/>
<path clip-path="url(#clip302)" d="M1584.84 664.375 L1584.84 1445.72 L1665.82 1445.72 L1665.82 664.375 L1584.84 664.375 L1584.84 664.375  Z" fill="#009af9" fill-rule="evenodd" fill-opacity="1"/>
<polyline clip-path="url(#clip302)" style="stroke:#000000; stroke-linecap:round; stroke-linejoin:round; stroke-width:4; stroke-opacity:1; fill:none" points="1584.84,664.375 1584.84,1445.72 1665.82,1445.72 1665.82,664.375 1584.84,664.375 "/>
<path clip-path="url(#clip302)" d="M1665.82 1023.02 L1665.82 1445.72 L1746.8 1445.72 L1746.8 1023.02 L1665.82 1023.02 L1665.82 1023.02  Z" fill="#009af9" fill-rule="evenodd" fill-opacity="1"/>
<polyline clip-path="url(#clip302)" style="stroke:#000000; stroke-linecap:round; stroke-linejoin:round; stroke-width:4; stroke-opacity:1; fill:none" points="1665.82,1023.02 1665.82,1445.72 1746.8,1445.72 1746.8,1023.02 1665.82,1023.02 "/>
<path clip-path="url(#clip302)" d="M1746.8 1202.35 L1746.8 1445.72 L1827.77 1445.72 L1827.77 1202.35 L1746.8 1202.35 L1746.8 1202.35  Z" fill="#009af9" fill-rule="evenodd" fill-opacity="1"/>
<polyline clip-path="url(#clip302)" style="stroke:#000000; stroke-linecap:round; stroke-linejoin:round; stroke-width:4; stroke-opacity:1; fill:none" points="1746.8,1202.35 1746.8,1445.72 1827.77,1445.72 1827.77,1202.35 1746.8,1202.35 "/>
<path clip-path="url(#clip302)" d="M1827.77 1253.58 L1827.77 1445.72 L1908.75 1445.72 L1908.75 1253.58 L1827.77 1253.58 L1827.77 1253.58  Z" fill="#009af9" fill-rule="evenodd" fill-opacity="1"/>
<polyline clip-path="url(#clip302)" style="stroke:#000000; stroke-linecap:round; stroke-linejoin:round; stroke-width:4; stroke-opacity:1; fill:none" points="1827.77,1253.58 1827.77,1445.72 1908.75,1445.72 1908.75,1253.58 1827.77,1253.58 "/>
<path clip-path="url(#clip302)" d="M1908.75 1330.44 L1908.75 1445.72 L1989.72 1445.72 L1989.72 1330.44 L1908.75 1330.44 L1908.75 1330.44  Z" fill="#009af9" fill-rule="evenodd" fill-opacity="1"/>
<polyline clip-path="url(#clip302)" style="stroke:#000000; stroke-linecap:round; stroke-linejoin:round; stroke-width:4; stroke-opacity:1; fill:none" points="1908.75,1330.44 1908.75,1445.72 1989.72,1445.72 1989.72,1330.44 1908.75,1330.44 "/>
<path clip-path="url(#clip302)" d="M1989.72 1381.67 L1989.72 1445.72 L2070.7 1445.72 L2070.7 1381.67 L1989.72 1381.67 L1989.72 1381.67  Z" fill="#009af9" fill-rule="evenodd" fill-opacity="1"/>
<polyline clip-path="url(#clip302)" style="stroke:#000000; stroke-linecap:round; stroke-linejoin:round; stroke-width:4; stroke-opacity:1; fill:none" points="1989.72,1381.67 1989.72,1445.72 2070.7,1445.72 2070.7,1381.67 1989.72,1381.67 "/>
<path clip-path="url(#clip302)" d="M2070.7 1432.91 L2070.7 1445.72 L2151.68 1445.72 L2151.68 1432.91 L2070.7 1432.91 L2070.7 1432.91  Z" fill="#009af9" fill-rule="evenodd" fill-opacity="1"/>
<polyline clip-path="url(#clip302)" style="stroke:#000000; stroke-linecap:round; stroke-linejoin:round; stroke-width:4; stroke-opacity:1; fill:none" points="2070.7,1432.91 2070.7,1445.72 2151.68,1445.72 2151.68,1432.91 2070.7,1432.91 "/>
<path clip-path="url(#clip302)" d="M2151.68 1420.1 L2151.68 1445.72 L2232.65 1445.72 L2232.65 1420.1 L2151.68 1420.1 L2151.68 1420.1  Z" fill="#009af9" fill-rule="evenodd" fill-opacity="1"/>
<polyline clip-path="url(#clip302)" style="stroke:#000000; stroke-linecap:round; stroke-linejoin:round; stroke-width:4; stroke-opacity:1; fill:none" points="2151.68,1420.1 2151.68,1445.72 2232.65,1445.72 2232.65,1420.1 2151.68,1420.1 "/>
<circle clip-path="url(#clip302)" style="fill:#009af9; stroke:none; fill-opacity:0" cx="329.713" cy="1420.1" r="2"/>
<circle clip-path="url(#clip302)" style="fill:#009af9; stroke:none; fill-opacity:0" cx="410.689" cy="1381.67" r="2"/>
<circle clip-path="url(#clip302)" style="fill:#009af9; stroke:none; fill-opacity:0" cx="491.665" cy="1394.48" r="2"/>
<circle clip-path="url(#clip302)" style="fill:#009af9; stroke:none; fill-opacity:0" cx="572.642" cy="1292.01" r="2"/>
<circle clip-path="url(#clip302)" style="fill:#009af9; stroke:none; fill-opacity:0" cx="653.618" cy="1163.92" r="2"/>
<circle clip-path="url(#clip302)" style="fill:#009af9; stroke:none; fill-opacity:0" cx="734.594" cy="958.979" r="2"/>
<circle clip-path="url(#clip302)" style="fill:#009af9; stroke:none; fill-opacity:0" cx="815.57" cy="766.846" r="2"/>
<circle clip-path="url(#clip302)" style="fill:#009af9; stroke:none; fill-opacity:0" cx="896.546" cy="625.948" r="2"/>
<circle clip-path="url(#clip302)" style="fill:#009af9; stroke:none; fill-opacity:0" cx="977.522" cy="485.051" r="2"/>
<circle clip-path="url(#clip302)" style="fill:#009af9; stroke:none; fill-opacity:0" cx="1058.5" cy="433.816" r="2"/>
<circle clip-path="url(#clip302)" style="fill:#009af9; stroke:none; fill-opacity:0" cx="1139.47" cy="87.9763" r="2"/>
<circle clip-path="url(#clip302)" style="fill:#009af9; stroke:none; fill-opacity:0" cx="1220.45" cy="203.256" r="2"/>
<circle clip-path="url(#clip302)" style="fill:#009af9; stroke:none; fill-opacity:0" cx="1301.43" cy="305.727" r="2"/>
<circle clip-path="url(#clip302)" style="fill:#009af9; stroke:none; fill-opacity:0" cx="1382.4" cy="382.58" r="2"/>
<circle clip-path="url(#clip302)" style="fill:#009af9; stroke:none; fill-opacity:0" cx="1463.38" cy="459.433" r="2"/>
<circle clip-path="url(#clip302)" style="fill:#009af9; stroke:none; fill-opacity:0" cx="1544.36" cy="818.081" r="2"/>
<circle clip-path="url(#clip302)" style="fill:#009af9; stroke:none; fill-opacity:0" cx="1625.33" cy="664.375" r="2"/>
<circle clip-path="url(#clip302)" style="fill:#009af9; stroke:none; fill-opacity:0" cx="1706.31" cy="1023.02" r="2"/>
<circle clip-path="url(#clip302)" style="fill:#009af9; stroke:none; fill-opacity:0" cx="1787.28" cy="1202.35" r="2"/>
<circle clip-path="url(#clip302)" style="fill:#009af9; stroke:none; fill-opacity:0" cx="1868.26" cy="1253.58" r="2"/>
<circle clip-path="url(#clip302)" style="fill:#009af9; stroke:none; fill-opacity:0" cx="1949.24" cy="1330.44" r="2"/>
<circle clip-path="url(#clip302)" style="fill:#009af9; stroke:none; fill-opacity:0" cx="2030.21" cy="1381.67" r="2"/>
<circle clip-path="url(#clip302)" style="fill:#009af9; stroke:none; fill-opacity:0" cx="2111.19" cy="1432.91" r="2"/>
<circle clip-path="url(#clip302)" style="fill:#009af9; stroke:none; fill-opacity:0" cx="2192.16" cy="1420.1" r="2"/>
<path clip-path="url(#clip300)" d="M1701.4 198.898 L2279.97 198.898 L2279.97 95.2176 L1701.4 95.2176  Z" fill="#ffffff" fill-rule="evenodd" fill-opacity="1"/>
<polyline clip-path="url(#clip300)" style="stroke:#000000; stroke-linecap:round; stroke-linejoin:round; stroke-width:4; stroke-opacity:1; fill:none" points="1701.4,198.898 2279.97,198.898 2279.97,95.2176 1701.4,95.2176 1701.4,198.898 "/>
<path clip-path="url(#clip300)" d="M1725.66 167.794 L1871.24 167.794 L1871.24 126.322 L1725.66 126.322 L1725.66 167.794  Z" fill="#009af9" fill-rule="evenodd" fill-opacity="1"/>
<polyline clip-path="url(#clip300)" style="stroke:#000000; stroke-linecap:round; stroke-linejoin:round; stroke-width:4; stroke-opacity:1; fill:none" points="1725.66,167.794 1871.24,167.794 1871.24,126.322 1725.66,126.322 1725.66,167.794 "/>
<path clip-path="url(#clip300)" d="M1899.78 160.449 L1899.78 174.199 L1895.5 174.199 L1895.5 138.412 L1899.78 138.412 L1899.78 142.347 Q1901.12 140.032 1903.16 138.921 Q1905.22 137.787 1908.07 137.787 Q1912.79 137.787 1915.73 141.537 Q1918.69 145.287 1918.69 151.398 Q1918.69 157.509 1915.73 161.259 Q1912.79 165.009 1908.07 165.009 Q1905.22 165.009 1903.16 163.898 Q1901.12 162.763 1899.78 160.449 M1914.27 151.398 Q1914.27 146.699 1912.33 144.037 Q1910.41 141.352 1907.03 141.352 Q1903.65 141.352 1901.7 144.037 Q1899.78 146.699 1899.78 151.398 Q1899.78 156.097 1901.7 158.782 Q1903.65 161.444 1907.03 161.444 Q1910.41 161.444 1912.33 158.782 Q1914.27 156.097 1914.27 151.398 Z" fill="#000000" fill-rule="nonzero" fill-opacity="1" /><path clip-path="url(#clip300)" d="M1940.78 142.393 Q1940.06 141.977 1939.2 141.791 Q1938.37 141.583 1937.35 141.583 Q1933.74 141.583 1931.8 143.944 Q1929.87 146.282 1929.87 150.68 L1929.87 164.338 L1925.59 164.338 L1925.59 138.412 L1929.87 138.412 L1929.87 142.44 Q1931.22 140.078 1933.37 138.944 Q1935.52 137.787 1938.6 137.787 Q1939.04 137.787 1939.57 137.856 Q1940.11 137.903 1940.75 138.018 L1940.78 142.393 Z" fill="#000000" fill-rule="nonzero" fill-opacity="1" /><path clip-path="url(#clip300)" d="M1954.25 141.398 Q1950.82 141.398 1948.83 144.083 Q1946.84 146.745 1946.84 151.398 Q1946.84 156.051 1948.81 158.736 Q1950.8 161.398 1954.25 161.398 Q1957.65 161.398 1959.64 158.713 Q1961.63 156.027 1961.63 151.398 Q1961.63 146.791 1959.64 144.106 Q1957.65 141.398 1954.25 141.398 M1954.25 137.787 Q1959.8 137.787 1962.98 141.398 Q1966.15 145.009 1966.15 151.398 Q1966.15 157.764 1962.98 161.398 Q1959.8 165.009 1954.25 165.009 Q1948.67 165.009 1945.5 161.398 Q1942.35 157.764 1942.35 151.398 Q1942.35 145.009 1945.5 141.398 Q1948.67 137.787 1954.25 137.787 Z" fill="#000000" fill-rule="nonzero" fill-opacity="1" /><path clip-path="url(#clip300)" d="M1990.27 151.074 Q1990.27 146.444 1988.35 143.898 Q1986.45 141.352 1983 141.352 Q1979.57 141.352 1977.65 143.898 Q1975.75 146.444 1975.75 151.074 Q1975.75 155.68 1977.65 158.226 Q1979.57 160.773 1983 160.773 Q1986.45 160.773 1988.35 158.226 Q1990.27 155.68 1990.27 151.074 M1994.53 161.12 Q1994.53 167.74 1991.59 170.958 Q1988.65 174.199 1982.58 174.199 Q1980.34 174.199 1978.35 173.851 Q1976.36 173.527 1974.48 172.833 L1974.48 168.689 Q1976.36 169.708 1978.18 170.194 Q1980.01 170.68 1981.91 170.68 Q1986.1 170.68 1988.18 168.481 Q1990.27 166.305 1990.27 161.884 L1990.27 159.777 Q1988.95 162.069 1986.89 163.203 Q1984.83 164.338 1981.96 164.338 Q1977.19 164.338 1974.27 160.703 Q1971.36 157.069 1971.36 151.074 Q1971.36 145.055 1974.27 141.421 Q1977.19 137.787 1981.96 137.787 Q1984.83 137.787 1986.89 138.921 Q1988.95 140.055 1990.27 142.347 L1990.27 138.412 L1994.53 138.412 L1994.53 161.12 Z" fill="#000000" fill-rule="nonzero" fill-opacity="1" /><path clip-path="url(#clip300)" d="M2018.32 142.393 Q2017.6 141.977 2016.75 141.791 Q2015.92 141.583 2014.9 141.583 Q2011.29 141.583 2009.34 143.944 Q2007.42 146.282 2007.42 150.68 L2007.42 164.338 L2003.14 164.338 L2003.14 138.412 L2007.42 138.412 L2007.42 142.44 Q2008.76 140.078 2010.92 138.944 Q2013.07 137.787 2016.15 137.787 Q2016.59 137.787 2017.12 137.856 Q2017.65 137.903 2018.3 138.018 L2018.32 142.393 Z" fill="#000000" fill-rule="nonzero" fill-opacity="1" /><path clip-path="url(#clip300)" d="M2034.57 151.305 Q2029.41 151.305 2027.42 152.486 Q2025.43 153.666 2025.43 156.514 Q2025.43 158.782 2026.91 160.125 Q2028.42 161.444 2030.98 161.444 Q2034.53 161.444 2036.66 158.944 Q2038.81 156.421 2038.81 152.254 L2038.81 151.305 L2034.57 151.305 M2043.07 149.546 L2043.07 164.338 L2038.81 164.338 L2038.81 160.402 Q2037.35 162.763 2035.17 163.898 Q2033 165.009 2029.85 165.009 Q2025.87 165.009 2023.51 162.787 Q2021.17 160.541 2021.17 156.791 Q2021.17 152.416 2024.09 150.194 Q2027.03 147.972 2032.84 147.972 L2038.81 147.972 L2038.81 147.555 Q2038.81 144.615 2036.86 143.018 Q2034.94 141.398 2031.45 141.398 Q2029.23 141.398 2027.12 141.93 Q2025.01 142.463 2023.07 143.527 L2023.07 139.592 Q2025.41 138.69 2027.6 138.25 Q2029.8 137.787 2031.89 137.787 Q2037.51 137.787 2040.29 140.703 Q2043.07 143.62 2043.07 149.546 Z" fill="#000000" fill-rule="nonzero" fill-opacity="1" /><path clip-path="url(#clip300)" d="M2072.03 143.389 Q2073.62 140.518 2075.85 139.153 Q2078.07 137.787 2081.08 137.787 Q2085.13 137.787 2087.33 140.634 Q2089.53 143.458 2089.53 148.689 L2089.53 164.338 L2085.24 164.338 L2085.24 148.828 Q2085.24 145.102 2083.92 143.296 Q2082.6 141.49 2079.9 141.49 Q2076.59 141.49 2074.66 143.69 Q2072.74 145.889 2072.74 149.685 L2072.74 164.338 L2068.46 164.338 L2068.46 148.828 Q2068.46 145.078 2067.14 143.296 Q2065.82 141.49 2063.07 141.49 Q2059.8 141.49 2057.88 143.713 Q2055.96 145.912 2055.96 149.685 L2055.96 164.338 L2051.68 164.338 L2051.68 138.412 L2055.96 138.412 L2055.96 142.44 Q2057.42 140.055 2059.46 138.921 Q2061.49 137.787 2064.29 137.787 Q2067.12 137.787 2069.09 139.222 Q2071.08 140.657 2072.03 143.389 Z" fill="#000000" fill-rule="nonzero" fill-opacity="1" /><path clip-path="url(#clip300)" d="M2113.09 128.319 L2117.35 128.319 L2117.35 164.338 L2113.09 164.338 L2113.09 128.319 Z" fill="#000000" fill-rule="nonzero" fill-opacity="1" /><path clip-path="url(#clip300)" d="M2148.44 150.31 L2148.44 152.393 L2128.85 152.393 Q2129.13 156.791 2131.49 159.106 Q2133.88 161.398 2138.11 161.398 Q2140.57 161.398 2142.86 160.796 Q2145.17 160.194 2147.44 158.99 L2147.44 163.018 Q2145.15 163.99 2142.74 164.5 Q2140.34 165.009 2137.86 165.009 Q2131.66 165.009 2128.02 161.398 Q2124.41 157.787 2124.41 151.629 Q2124.41 145.264 2127.84 141.537 Q2131.28 137.787 2137.12 137.787 Q2142.35 137.787 2145.38 141.166 Q2148.44 144.523 2148.44 150.31 M2144.18 149.06 Q2144.13 145.565 2142.21 143.481 Q2140.31 141.398 2137.16 141.398 Q2133.6 141.398 2131.45 143.412 Q2129.32 145.426 2128.99 149.083 L2144.18 149.06 Z" fill="#000000" fill-rule="nonzero" fill-opacity="1" /><path clip-path="url(#clip300)" d="M2176.98 148.689 L2176.98 164.338 L2172.72 164.338 L2172.72 148.828 Q2172.72 145.148 2171.28 143.319 Q2169.85 141.49 2166.98 141.49 Q2163.53 141.49 2161.54 143.69 Q2159.55 145.889 2159.55 149.685 L2159.55 164.338 L2155.27 164.338 L2155.27 138.412 L2159.55 138.412 L2159.55 142.44 Q2161.08 140.102 2163.14 138.944 Q2165.22 137.787 2167.93 137.787 Q2172.4 137.787 2174.69 140.565 Q2176.98 143.319 2176.98 148.689 Z" fill="#000000" fill-rule="nonzero" fill-opacity="1" /><path clip-path="url(#clip300)" d="M2202.53 151.074 Q2202.53 146.444 2200.61 143.898 Q2198.72 141.352 2195.27 141.352 Q2191.84 141.352 2189.92 143.898 Q2188.02 146.444 2188.02 151.074 Q2188.02 155.68 2189.92 158.226 Q2191.84 160.773 2195.27 160.773 Q2198.72 160.773 2200.61 158.226 Q2202.53 155.68 2202.53 151.074 M2206.79 161.12 Q2206.79 167.74 2203.85 170.958 Q2200.91 174.199 2194.85 174.199 Q2192.6 174.199 2190.61 173.851 Q2188.62 173.527 2186.75 172.833 L2186.75 168.689 Q2188.62 169.708 2190.45 170.194 Q2192.28 170.68 2194.18 170.68 Q2198.37 170.68 2200.45 168.481 Q2202.53 166.305 2202.53 161.884 L2202.53 159.777 Q2201.22 162.069 2199.15 163.203 Q2197.09 164.338 2194.22 164.338 Q2189.46 164.338 2186.54 160.703 Q2183.62 157.069 2183.62 151.074 Q2183.62 145.055 2186.54 141.421 Q2189.46 137.787 2194.22 137.787 Q2197.09 137.787 2199.15 138.921 Q2201.22 140.055 2202.53 142.347 L2202.53 138.412 L2206.79 138.412 L2206.79 161.12 Z" fill="#000000" fill-rule="nonzero" fill-opacity="1" /><path clip-path="url(#clip300)" d="M2219.78 131.051 L2219.78 138.412 L2228.55 138.412 L2228.55 141.722 L2219.78 141.722 L2219.78 155.796 Q2219.78 158.967 2220.64 159.87 Q2221.52 160.773 2224.18 160.773 L2228.55 160.773 L2228.55 164.338 L2224.18 164.338 Q2219.25 164.338 2217.37 162.509 Q2215.5 160.657 2215.5 155.796 L2215.5 141.722 L2212.37 141.722 L2212.37 138.412 L2215.5 138.412 L2215.5 131.051 L2219.78 131.051 Z" fill="#000000" fill-rule="nonzero" fill-opacity="1" /><path clip-path="url(#clip300)" d="M2255.71 148.689 L2255.71 164.338 L2251.45 164.338 L2251.45 148.828 Q2251.45 145.148 2250.01 143.319 Q2248.58 141.49 2245.71 141.49 Q2242.26 141.49 2240.27 143.69 Q2238.28 145.889 2238.28 149.685 L2238.28 164.338 L2233.99 164.338 L2233.99 128.319 L2238.28 128.319 L2238.28 142.44 Q2239.8 140.102 2241.86 138.944 Q2243.95 137.787 2246.65 137.787 Q2251.12 137.787 2253.41 140.565 Q2255.71 143.319 2255.71 148.689 Z" fill="#000000" fill-rule="nonzero" fill-opacity="1" /></svg>
