<?xml version="1.0" encoding="utf-8"?>
<svg xmlns="http://www.w3.org/2000/svg" xmlns:xlink="http://www.w3.org/1999/xlink" width="600" height="400" viewBox="0 0 2400 1600">
<defs>
  <clipPath id="clip190">
    <rect x="0" y="0" width="2400" height="1600"/>
  </clipPath>
</defs>
<path clip-path="url(#clip190)" d="M0 1600 L2400 1600 L2400 0 L0 0  Z" fill="#ffffff" fill-rule="evenodd" fill-opacity="1"/>
<defs>
  <clipPath id="clip191">
    <rect x="480" y="0" width="1681" height="1600"/>
  </clipPath>
</defs>
<path clip-path="url(#clip190)" d="M262.551 1423.18 L2352.76 1423.18 L2352.76 47.2441 L262.551 47.2441  Z" fill="#ffffff" fill-rule="evenodd" fill-opacity="1"/>
<defs>
  <clipPath id="clip192">
    <rect x="262" y="47" width="2091" height="1377"/>
  </clipPath>
</defs>
<polyline clip-path="url(#clip192)" style="stroke:#000000; stroke-linecap:round; stroke-linejoin:round; stroke-width:2; stroke-opacity:0.1; fill:none" points="300.73,1423.18 300.73,47.2441 "/>
<polyline clip-path="url(#clip192)" style="stroke:#000000; stroke-linecap:round; stroke-linejoin:round; stroke-width:2; stroke-opacity:0.1; fill:none" points="720.282,1423.18 720.282,47.2441 "/>
<polyline clip-path="url(#clip192)" style="stroke:#000000; stroke-linecap:round; stroke-linejoin:round; stroke-width:2; stroke-opacity:0.1; fill:none" points="1139.83,1423.18 1139.83,47.2441 "/>
<polyline clip-path="url(#clip192)" style="stroke:#000000; stroke-linecap:round; stroke-linejoin:round; stroke-width:2; stroke-opacity:0.1; fill:none" points="1559.38,1423.18 1559.38,47.2441 "/>
<polyline clip-path="url(#clip192)" style="stroke:#000000; stroke-linecap:round; stroke-linejoin:round; stroke-width:2; stroke-opacity:0.1; fill:none" points="1978.94,1423.18 1978.94,47.2441 "/>
<polyline clip-path="url(#clip190)" style="stroke:#000000; stroke-linecap:round; stroke-linejoin:round; stroke-width:4; stroke-opacity:1; fill:none" points="262.551,1423.18 2352.76,1423.18 "/>
<polyline clip-path="url(#clip190)" style="stroke:#000000; stroke-linecap:round; stroke-linejoin:round; stroke-width:4; stroke-opacity:1; fill:none" points="300.73,1423.18 300.73,1404.28 "/>
<polyline clip-path="url(#clip190)" style="stroke:#000000; stroke-linecap:round; stroke-linejoin:round; stroke-width:4; stroke-opacity:1; fill:none" points="720.282,1423.18 720.282,1404.28 "/>
<polyline clip-path="url(#clip190)" style="stroke:#000000; stroke-linecap:round; stroke-linejoin:round; stroke-width:4; stroke-opacity:1; fill:none" points="1139.83,1423.18 1139.83,1404.28 "/>
<polyline clip-path="url(#clip190)" style="stroke:#000000; stroke-linecap:round; stroke-linejoin:round; stroke-width:4; stroke-opacity:1; fill:none" points="1559.38,1423.18 1559.38,1404.28 "/>
<polyline clip-path="url(#clip190)" style="stroke:#000000; stroke-linecap:round; stroke-linejoin:round; stroke-width:4; stroke-opacity:1; fill:none" points="1978.94,1423.18 1978.94,1404.28 "/>
<path clip-path="url(#clip190)" d="M300.73 1454.1 Q297.119 1454.1 295.291 1457.66 Q293.485 1461.2 293.485 1468.33 Q293.485 1475.44 295.291 1479.01 Q297.119 1482.55 300.73 1482.55 Q304.365 1482.55 306.17 1479.01 Q307.999 1475.44 307.999 1468.33 Q307.999 1461.2 306.17 1457.66 Q304.365 1454.1 300.73 1454.1 M300.73 1450.39 Q306.541 1450.39 309.596 1455 Q312.675 1459.58 312.675 1468.33 Q312.675 1477.06 309.596 1481.67 Q306.541 1486.25 300.73 1486.25 Q294.92 1486.25 291.842 1481.67 Q288.786 1477.06 288.786 1468.33 Q288.786 1459.58 291.842 1455 Q294.92 1450.39 300.73 1450.39 Z" fill="#000000" fill-rule="nonzero" fill-opacity="1" /><path clip-path="url(#clip190)" d="M699.055 1481.64 L715.374 1481.64 L715.374 1485.58 L693.43 1485.58 L693.43 1481.64 Q696.092 1478.89 700.675 1474.26 Q705.282 1469.61 706.462 1468.27 Q708.708 1465.74 709.587 1464.01 Q710.49 1462.25 710.49 1460.56 Q710.49 1457.8 708.546 1456.07 Q706.624 1454.33 703.523 1454.33 Q701.323 1454.33 698.87 1455.09 Q696.439 1455.86 693.661 1457.41 L693.661 1452.69 Q696.486 1451.55 698.939 1450.97 Q701.393 1450.39 703.43 1450.39 Q708.8 1450.39 711.995 1453.08 Q715.189 1455.77 715.189 1460.26 Q715.189 1462.39 714.379 1464.31 Q713.592 1466.2 711.485 1468.8 Q710.907 1469.47 707.805 1472.69 Q704.703 1475.88 699.055 1481.64 Z" fill="#000000" fill-rule="nonzero" fill-opacity="1" /><path clip-path="url(#clip190)" d="M735.189 1454.1 Q731.578 1454.1 729.749 1457.66 Q727.944 1461.2 727.944 1468.33 Q727.944 1475.44 729.749 1479.01 Q731.578 1482.55 735.189 1482.55 Q738.823 1482.55 740.629 1479.01 Q742.458 1475.44 742.458 1468.33 Q742.458 1461.2 740.629 1457.66 Q738.823 1454.1 735.189 1454.1 M735.189 1450.39 Q740.999 1450.39 744.055 1455 Q747.133 1459.58 747.133 1468.33 Q747.133 1477.06 744.055 1481.67 Q740.999 1486.25 735.189 1486.25 Q729.379 1486.25 726.3 1481.67 Q723.245 1477.06 723.245 1468.33 Q723.245 1459.58 726.3 1455 Q729.379 1450.39 735.189 1450.39 Z" fill="#000000" fill-rule="nonzero" fill-opacity="1" /><path clip-path="url(#clip190)" d="M1128 1455.09 L1116.2 1473.54 L1128 1473.54 L1128 1455.09 M1126.78 1451.02 L1132.66 1451.02 L1132.66 1473.54 L1137.59 1473.54 L1137.59 1477.43 L1132.66 1477.43 L1132.66 1485.58 L1128 1485.58 L1128 1477.43 L1112.4 1477.43 L1112.4 1472.92 L1126.78 1451.02 Z" fill="#000000" fill-rule="nonzero" fill-opacity="1" /><path clip-path="url(#clip190)" d="M1155.32 1454.1 Q1151.71 1454.1 1149.88 1457.66 Q1148.07 1461.2 1148.07 1468.33 Q1148.07 1475.44 1149.88 1479.01 Q1151.71 1482.55 1155.32 1482.55 Q1158.95 1482.55 1160.76 1479.01 Q1162.59 1475.44 1162.59 1468.33 Q1162.59 1461.2 1160.76 1457.66 Q1158.95 1454.1 1155.32 1454.1 M1155.32 1450.39 Q1161.13 1450.39 1164.18 1455 Q1167.26 1459.58 1167.26 1468.33 Q1167.26 1477.06 1164.18 1481.67 Q1161.13 1486.25 1155.32 1486.25 Q1149.51 1486.25 1146.43 1481.67 Q1143.37 1477.06 1143.37 1468.33 Q1143.37 1459.58 1146.43 1455 Q1149.51 1450.39 1155.32 1450.39 Z" fill="#000000" fill-rule="nonzero" fill-opacity="1" /><path clip-path="url(#clip190)" d="M1544.79 1466.44 Q1541.64 1466.44 1539.79 1468.59 Q1537.96 1470.74 1537.96 1474.49 Q1537.96 1478.22 1539.79 1480.39 Q1541.64 1482.55 1544.79 1482.55 Q1547.94 1482.55 1549.77 1480.39 Q1551.62 1478.22 1551.62 1474.49 Q1551.62 1470.74 1549.77 1468.59 Q1547.94 1466.44 1544.79 1466.44 M1554.07 1451.78 L1554.07 1456.04 Q1552.31 1455.21 1550.51 1454.77 Q1548.72 1454.33 1546.97 1454.33 Q1542.34 1454.33 1539.88 1457.45 Q1537.45 1460.58 1537.1 1466.9 Q1538.47 1464.89 1540.53 1463.82 Q1542.59 1462.73 1545.07 1462.73 Q1550.28 1462.73 1553.28 1465.9 Q1556.32 1469.05 1556.32 1474.49 Q1556.32 1479.82 1553.17 1483.03 Q1550.02 1486.25 1544.79 1486.25 Q1538.79 1486.25 1535.62 1481.67 Q1532.45 1477.06 1532.45 1468.33 Q1532.45 1460.14 1536.34 1455.28 Q1540.23 1450.39 1546.78 1450.39 Q1548.54 1450.39 1550.32 1450.74 Q1552.13 1451.09 1554.07 1451.78 Z" fill="#000000" fill-rule="nonzero" fill-opacity="1" /><path clip-path="url(#clip190)" d="M1574.37 1454.1 Q1570.76 1454.1 1568.93 1457.66 Q1567.13 1461.2 1567.13 1468.33 Q1567.13 1475.44 1568.93 1479.01 Q1570.76 1482.55 1574.37 1482.55 Q1578.01 1482.55 1579.81 1479.01 Q1581.64 1475.44 1581.64 1468.33 Q1581.64 1461.2 1579.81 1457.66 Q1578.01 1454.1 1574.37 1454.1 M1574.37 1450.39 Q1580.18 1450.39 1583.24 1455 Q1586.32 1459.58 1586.32 1468.33 Q1586.32 1477.06 1583.24 1481.67 Q1580.18 1486.25 1574.37 1486.25 Q1568.56 1486.25 1565.48 1481.67 Q1562.43 1477.06 1562.43 1468.33 Q1562.43 1459.58 1565.48 1455 Q1568.56 1450.39 1574.37 1450.39 Z" fill="#000000" fill-rule="nonzero" fill-opacity="1" /><path clip-path="url(#clip190)" d="M1963.81 1469.17 Q1960.48 1469.17 1958.55 1470.95 Q1956.66 1472.73 1956.66 1475.86 Q1956.66 1478.98 1958.55 1480.77 Q1960.48 1482.55 1963.81 1482.55 Q1967.14 1482.55 1969.06 1480.77 Q1970.98 1478.96 1970.98 1475.86 Q1970.98 1472.73 1969.06 1470.95 Q1967.16 1469.17 1963.81 1469.17 M1959.13 1467.18 Q1956.12 1466.44 1954.43 1464.38 Q1952.77 1462.32 1952.77 1459.35 Q1952.77 1455.21 1955.71 1452.8 Q1958.67 1450.39 1963.81 1450.39 Q1968.97 1450.39 1971.91 1452.8 Q1974.85 1455.21 1974.85 1459.35 Q1974.85 1462.32 1973.16 1464.38 Q1971.49 1466.44 1968.51 1467.18 Q1971.89 1467.96 1973.76 1470.26 Q1975.66 1472.55 1975.66 1475.86 Q1975.66 1480.88 1972.58 1483.57 Q1969.53 1486.25 1963.81 1486.25 Q1958.09 1486.25 1955.01 1483.57 Q1951.96 1480.88 1951.96 1475.86 Q1951.96 1472.55 1953.85 1470.26 Q1955.75 1467.96 1959.13 1467.18 M1957.42 1459.79 Q1957.42 1462.48 1959.09 1463.98 Q1960.78 1465.49 1963.81 1465.49 Q1966.82 1465.49 1968.51 1463.98 Q1970.22 1462.48 1970.22 1459.79 Q1970.22 1457.11 1968.51 1455.6 Q1966.82 1454.1 1963.81 1454.1 Q1960.78 1454.1 1959.09 1455.6 Q1957.42 1457.11 1957.42 1459.79 Z" fill="#000000" fill-rule="nonzero" fill-opacity="1" /><path clip-path="url(#clip190)" d="M1993.97 1454.1 Q1990.36 1454.1 1988.53 1457.66 Q1986.72 1461.2 1986.72 1468.33 Q1986.72 1475.44 1988.53 1479.01 Q1990.36 1482.55 1993.97 1482.55 Q1997.6 1482.55 1999.41 1479.01 Q2001.24 1475.44 2001.24 1468.33 Q2001.24 1461.2 1999.41 1457.66 Q1997.6 1454.1 1993.97 1454.1 M1993.97 1450.39 Q1999.78 1450.39 2002.84 1455 Q2005.91 1459.58 2005.91 1468.33 Q2005.91 1477.06 2002.84 1481.67 Q1999.78 1486.25 1993.97 1486.25 Q1988.16 1486.25 1985.08 1481.67 Q1982.03 1477.06 1982.03 1468.33 Q1982.03 1459.58 1985.08 1455 Q1988.16 1450.39 1993.97 1450.39 Z" fill="#000000" fill-rule="nonzero" fill-opacity="1" /><path clip-path="url(#clip190)" d="M1160.88 1520.52 L1167.31 1520.52 L1167.31 1562.63 L1190.44 1562.63 L1190.44 1568.04 L1160.88 1568.04 L1160.88 1520.52 Z" fill="#000000" fill-rule="nonzero" fill-opacity="1" /><path clip-path="url(#clip190)" d="M1209.61 1536.5 Q1204.9 1536.5 1202.16 1540.19 Q1199.42 1543.85 1199.42 1550.25 Q1199.42 1556.65 1202.13 1560.34 Q1204.86 1564 1209.61 1564 Q1214.28 1564 1217.02 1560.31 Q1219.76 1556.62 1219.76 1550.25 Q1219.76 1543.92 1217.02 1540.23 Q1214.28 1536.5 1209.61 1536.5 M1209.61 1531.54 Q1217.24 1531.54 1221.61 1536.5 Q1225.97 1541.47 1225.97 1550.25 Q1225.97 1559 1221.61 1564 Q1217.24 1568.97 1209.61 1568.97 Q1201.94 1568.97 1197.57 1564 Q1193.25 1559 1193.25 1550.25 Q1193.25 1541.47 1197.57 1536.5 Q1201.94 1531.54 1209.61 1531.54 Z" fill="#000000" fill-rule="nonzero" fill-opacity="1" /><path clip-path="url(#clip190)" d="M1249.49 1536.5 Q1244.78 1536.5 1242.04 1540.19 Q1239.3 1543.85 1239.3 1550.25 Q1239.3 1556.65 1242.01 1560.34 Q1244.74 1564 1249.49 1564 Q1254.17 1564 1256.9 1560.31 Q1259.64 1556.62 1259.64 1550.25 Q1259.64 1543.92 1256.9 1540.23 Q1254.17 1536.5 1249.49 1536.5 M1249.49 1531.54 Q1257.13 1531.54 1261.49 1536.5 Q1265.85 1541.47 1265.85 1550.25 Q1265.85 1559 1261.49 1564 Q1257.13 1568.97 1249.49 1568.97 Q1241.82 1568.97 1237.46 1564 Q1233.13 1559 1233.13 1550.25 Q1233.13 1541.47 1237.46 1536.5 Q1241.82 1531.54 1249.49 1531.54 Z" fill="#000000" fill-rule="nonzero" fill-opacity="1" /><path clip-path="url(#clip190)" d="M1281.22 1562.7 L1281.22 1581.6 L1275.33 1581.6 L1275.33 1532.4 L1281.22 1532.4 L1281.22 1537.81 Q1283.07 1534.62 1285.87 1533.1 Q1288.7 1531.54 1292.61 1531.54 Q1299.11 1531.54 1303.15 1536.69 Q1307.22 1541.85 1307.22 1550.25 Q1307.22 1558.65 1303.15 1563.81 Q1299.11 1568.97 1292.61 1568.97 Q1288.7 1568.97 1285.87 1567.44 Q1283.07 1565.88 1281.22 1562.7 M1301.14 1550.25 Q1301.14 1543.79 1298.47 1540.13 Q1295.83 1536.44 1291.18 1536.44 Q1286.54 1536.44 1283.86 1540.13 Q1281.22 1543.79 1281.22 1550.25 Q1281.22 1556.71 1283.86 1560.4 Q1286.54 1564.07 1291.18 1564.07 Q1295.83 1564.07 1298.47 1560.4 Q1301.14 1556.71 1301.14 1550.25 Z" fill="#000000" fill-rule="nonzero" fill-opacity="1" /><path clip-path="url(#clip190)" d="M1360.38 1533.45 L1360.38 1538.98 Q1357.89 1537.71 1355.22 1537.07 Q1352.55 1536.44 1349.68 1536.44 Q1345.32 1536.44 1343.13 1537.77 Q1340.96 1539.11 1340.96 1541.79 Q1340.96 1543.82 1342.52 1545 Q1344.08 1546.15 1348.79 1547.2 L1350.8 1547.64 Q1357.04 1548.98 1359.65 1551.43 Q1362.29 1553.85 1362.29 1558.21 Q1362.29 1563.17 1358.34 1566.07 Q1354.43 1568.97 1347.55 1568.97 Q1344.69 1568.97 1341.57 1568.39 Q1338.48 1567.85 1335.04 1566.74 L1335.04 1560.69 Q1338.29 1562.38 1341.44 1563.24 Q1344.59 1564.07 1347.68 1564.07 Q1351.82 1564.07 1354.04 1562.66 Q1356.27 1561.23 1356.27 1558.65 Q1356.27 1556.27 1354.65 1554.99 Q1353.06 1553.72 1347.61 1552.54 L1345.58 1552.07 Q1340.13 1550.92 1337.72 1548.56 Q1335.3 1546.18 1335.3 1542.04 Q1335.3 1537.01 1338.86 1534.27 Q1342.43 1531.54 1348.98 1531.54 Q1352.23 1531.54 1355.09 1532.01 Q1357.96 1532.49 1360.38 1533.45 Z" fill="#000000" fill-rule="nonzero" fill-opacity="1" /><path clip-path="url(#clip190)" d="M1371.61 1532.4 L1377.47 1532.4 L1377.47 1568.04 L1371.61 1568.04 L1371.61 1532.4 M1371.61 1518.52 L1377.47 1518.52 L1377.47 1525.93 L1371.61 1525.93 L1371.61 1518.52 Z" fill="#000000" fill-rule="nonzero" fill-opacity="1" /><path clip-path="url(#clip190)" d="M1387.18 1532.4 L1415 1532.4 L1415 1537.74 L1392.97 1563.37 L1415 1563.37 L1415 1568.04 L1386.38 1568.04 L1386.38 1562.7 L1408.41 1537.07 L1387.18 1537.07 L1387.18 1532.4 Z" fill="#000000" fill-rule="nonzero" fill-opacity="1" /><path clip-path="url(#clip190)" d="M1454.43 1548.76 L1454.43 1551.62 L1427.5 1551.62 Q1427.89 1557.67 1431.13 1560.85 Q1434.41 1564 1440.24 1564 Q1443.61 1564 1446.76 1563.17 Q1449.94 1562.35 1453.06 1560.69 L1453.06 1566.23 Q1449.91 1567.57 1446.6 1568.27 Q1443.29 1568.97 1439.89 1568.97 Q1431.36 1568.97 1426.36 1564 Q1421.39 1559.04 1421.39 1550.57 Q1421.39 1541.82 1426.1 1536.69 Q1430.85 1531.54 1438.87 1531.54 Q1446.06 1531.54 1450.23 1536.18 Q1454.43 1540.8 1454.43 1548.76 M1448.57 1547.04 Q1448.51 1542.23 1445.87 1539.37 Q1443.26 1536.5 1438.93 1536.5 Q1434.03 1536.5 1431.07 1539.27 Q1428.14 1542.04 1427.69 1547.07 L1448.57 1547.04 Z" fill="#000000" fill-rule="nonzero" fill-opacity="1" /><polyline clip-path="url(#clip192)" style="stroke:#000000; stroke-linecap:round; stroke-linejoin:round; stroke-width:2; stroke-opacity:0.1; fill:none" points="262.551,1250.31 2352.76,1250.31 "/>
<polyline clip-path="url(#clip192)" style="stroke:#000000; stroke-linecap:round; stroke-linejoin:round; stroke-width:2; stroke-opacity:0.1; fill:none" points="262.551,906.912 2352.76,906.912 "/>
<polyline clip-path="url(#clip192)" style="stroke:#000000; stroke-linecap:round; stroke-linejoin:round; stroke-width:2; stroke-opacity:0.1; fill:none" points="262.551,563.512 2352.76,563.512 "/>
<polyline clip-path="url(#clip192)" style="stroke:#000000; stroke-linecap:round; stroke-linejoin:round; stroke-width:2; stroke-opacity:0.1; fill:none" points="262.551,220.112 2352.76,220.112 "/>
<polyline clip-path="url(#clip190)" style="stroke:#000000; stroke-linecap:round; stroke-linejoin:round; stroke-width:4; stroke-opacity:1; fill:none" points="262.551,1423.18 262.551,47.2441 "/>
<polyline clip-path="url(#clip190)" style="stroke:#000000; stroke-linecap:round; stroke-linejoin:round; stroke-width:4; stroke-opacity:1; fill:none" points="262.551,1250.31 281.449,1250.31 "/>
<polyline clip-path="url(#clip190)" style="stroke:#000000; stroke-linecap:round; stroke-linejoin:round; stroke-width:4; stroke-opacity:1; fill:none" points="262.551,906.912 281.449,906.912 "/>
<polyline clip-path="url(#clip190)" style="stroke:#000000; stroke-linecap:round; stroke-linejoin:round; stroke-width:4; stroke-opacity:1; fill:none" points="262.551,563.512 281.449,563.512 "/>
<polyline clip-path="url(#clip190)" style="stroke:#000000; stroke-linecap:round; stroke-linejoin:round; stroke-width:4; stroke-opacity:1; fill:none" points="262.551,220.112 281.449,220.112 "/>
<path clip-path="url(#clip190)" d="M154.283 1251.18 Q150.95 1251.18 149.028 1252.96 Q147.13 1254.75 147.13 1257.87 Q147.13 1261 149.028 1262.78 Q150.95 1264.56 154.283 1264.56 Q157.616 1264.56 159.538 1262.78 Q161.459 1260.97 161.459 1257.87 Q161.459 1254.75 159.538 1252.96 Q157.64 1251.18 154.283 1251.18 M149.607 1249.19 Q146.598 1248.45 144.908 1246.39 Q143.241 1244.33 143.241 1241.37 Q143.241 1237.22 146.181 1234.81 Q149.144 1232.41 154.283 1232.41 Q159.445 1232.41 162.385 1234.81 Q165.325 1237.22 165.325 1241.37 Q165.325 1244.33 163.635 1246.39 Q161.968 1248.45 158.982 1249.19 Q162.362 1249.98 164.237 1252.27 Q166.135 1254.56 166.135 1257.87 Q166.135 1262.89 163.056 1265.58 Q160.001 1268.26 154.283 1268.26 Q148.566 1268.26 145.487 1265.58 Q142.431 1262.89 142.431 1257.87 Q142.431 1254.56 144.329 1252.27 Q146.228 1249.98 149.607 1249.19 M147.894 1241.81 Q147.894 1244.49 149.561 1246 Q151.251 1247.5 154.283 1247.5 Q157.292 1247.5 158.982 1246 Q160.695 1244.49 160.695 1241.81 Q160.695 1239.12 158.982 1237.62 Q157.292 1236.11 154.283 1236.11 Q151.251 1236.11 149.561 1237.62 Q147.894 1239.12 147.894 1241.81 Z" fill="#000000" fill-rule="nonzero" fill-opacity="1" /><path clip-path="url(#clip190)" d="M184.445 1236.11 Q180.834 1236.11 179.005 1239.68 Q177.2 1243.22 177.2 1250.35 Q177.2 1257.45 179.005 1261.02 Q180.834 1264.56 184.445 1264.56 Q188.079 1264.56 189.885 1261.02 Q191.713 1257.45 191.713 1250.35 Q191.713 1243.22 189.885 1239.68 Q188.079 1236.11 184.445 1236.11 M184.445 1232.41 Q190.255 1232.41 193.311 1237.01 Q196.389 1241.6 196.389 1250.35 Q196.389 1259.07 193.311 1263.68 Q190.255 1268.26 184.445 1268.26 Q178.635 1268.26 175.556 1263.68 Q172.501 1259.07 172.501 1250.35 Q172.501 1241.6 175.556 1237.01 Q178.635 1232.41 184.445 1232.41 Z" fill="#000000" fill-rule="nonzero" fill-opacity="1" /><path clip-path="url(#clip190)" d="M214.607 1236.11 Q210.996 1236.11 209.167 1239.68 Q207.362 1243.22 207.362 1250.35 Q207.362 1257.45 209.167 1261.02 Q210.996 1264.56 214.607 1264.56 Q218.241 1264.56 220.047 1261.02 Q221.875 1257.45 221.875 1250.35 Q221.875 1243.22 220.047 1239.68 Q218.241 1236.11 214.607 1236.11 M214.607 1232.41 Q220.417 1232.41 223.473 1237.01 Q226.551 1241.6 226.551 1250.35 Q226.551 1259.07 223.473 1263.68 Q220.417 1268.26 214.607 1268.26 Q208.797 1268.26 205.718 1263.68 Q202.662 1259.07 202.662 1250.35 Q202.662 1241.6 205.718 1237.01 Q208.797 1232.41 214.607 1232.41 Z" fill="#000000" fill-rule="nonzero" fill-opacity="1" /><path clip-path="url(#clip190)" d="M114.931 920.257 L122.57 920.257 L122.57 893.891 L114.26 895.558 L114.26 891.299 L122.524 889.632 L127.2 889.632 L127.2 920.257 L134.839 920.257 L134.839 924.192 L114.931 924.192 L114.931 920.257 Z" fill="#000000" fill-rule="nonzero" fill-opacity="1" /><path clip-path="url(#clip190)" d="M154.283 892.711 Q150.672 892.711 148.843 896.276 Q147.038 899.817 147.038 906.947 Q147.038 914.053 148.843 917.618 Q150.672 921.16 154.283 921.16 Q157.917 921.16 159.723 917.618 Q161.552 914.053 161.552 906.947 Q161.552 899.817 159.723 896.276 Q157.917 892.711 154.283 892.711 M154.283 889.007 Q160.093 889.007 163.149 893.614 Q166.227 898.197 166.227 906.947 Q166.227 915.674 163.149 920.28 Q160.093 924.863 154.283 924.863 Q148.473 924.863 145.394 920.28 Q142.339 915.674 142.339 906.947 Q142.339 898.197 145.394 893.614 Q148.473 889.007 154.283 889.007 Z" fill="#000000" fill-rule="nonzero" fill-opacity="1" /><path clip-path="url(#clip190)" d="M184.445 892.711 Q180.834 892.711 179.005 896.276 Q177.2 899.817 177.2 906.947 Q177.2 914.053 179.005 917.618 Q180.834 921.16 184.445 921.16 Q188.079 921.16 189.885 917.618 Q191.713 914.053 191.713 906.947 Q191.713 899.817 189.885 896.276 Q188.079 892.711 184.445 892.711 M184.445 889.007 Q190.255 889.007 193.311 893.614 Q196.389 898.197 196.389 906.947 Q196.389 915.674 193.311 920.28 Q190.255 924.863 184.445 924.863 Q178.635 924.863 175.556 920.28 Q172.501 915.674 172.501 906.947 Q172.501 898.197 175.556 893.614 Q178.635 889.007 184.445 889.007 Z" fill="#000000" fill-rule="nonzero" fill-opacity="1" /><path clip-path="url(#clip190)" d="M214.607 892.711 Q210.996 892.711 209.167 896.276 Q207.362 899.817 207.362 906.947 Q207.362 914.053 209.167 917.618 Q210.996 921.16 214.607 921.16 Q218.241 921.16 220.047 917.618 Q221.875 914.053 221.875 906.947 Q221.875 899.817 220.047 896.276 Q218.241 892.711 214.607 892.711 M214.607 889.007 Q220.417 889.007 223.473 893.614 Q226.551 898.197 226.551 906.947 Q226.551 915.674 223.473 920.28 Q220.417 924.863 214.607 924.863 Q208.797 924.863 205.718 920.28 Q202.662 915.674 202.662 906.947 Q202.662 898.197 205.718 893.614 Q208.797 889.007 214.607 889.007 Z" fill="#000000" fill-rule="nonzero" fill-opacity="1" /><path clip-path="url(#clip190)" d="M114.931 576.857 L122.57 576.857 L122.57 550.491 L114.26 552.158 L114.26 547.899 L122.524 546.232 L127.2 546.232 L127.2 576.857 L134.839 576.857 L134.839 580.792 L114.931 580.792 L114.931 576.857 Z" fill="#000000" fill-rule="nonzero" fill-opacity="1" /><path clip-path="url(#clip190)" d="M148.311 576.857 L164.63 576.857 L164.63 580.792 L142.686 580.792 L142.686 576.857 Q145.348 574.102 149.931 569.473 Q154.538 564.82 155.718 563.477 Q157.964 560.954 158.843 559.218 Q159.746 557.459 159.746 555.769 Q159.746 553.014 157.802 551.278 Q155.88 549.542 152.778 549.542 Q150.579 549.542 148.126 550.306 Q145.695 551.07 142.917 552.621 L142.917 547.899 Q145.741 546.764 148.195 546.186 Q150.649 545.607 152.686 545.607 Q158.056 545.607 161.251 548.292 Q164.445 550.977 164.445 555.468 Q164.445 557.598 163.635 559.519 Q162.848 561.417 160.741 564.01 Q160.163 564.681 157.061 567.898 Q153.959 571.093 148.311 576.857 Z" fill="#000000" fill-rule="nonzero" fill-opacity="1" /><path clip-path="url(#clip190)" d="M184.445 549.311 Q180.834 549.311 179.005 552.875 Q177.2 556.417 177.2 563.547 Q177.2 570.653 179.005 574.218 Q180.834 577.759 184.445 577.759 Q188.079 577.759 189.885 574.218 Q191.713 570.653 191.713 563.547 Q191.713 556.417 189.885 552.875 Q188.079 549.311 184.445 549.311 M184.445 545.607 Q190.255 545.607 193.311 550.213 Q196.389 554.797 196.389 563.547 Q196.389 572.273 193.311 576.88 Q190.255 581.463 184.445 581.463 Q178.635 581.463 175.556 576.88 Q172.501 572.273 172.501 563.547 Q172.501 554.797 175.556 550.213 Q178.635 545.607 184.445 545.607 Z" fill="#000000" fill-rule="nonzero" fill-opacity="1" /><path clip-path="url(#clip190)" d="M214.607 549.311 Q210.996 549.311 209.167 552.875 Q207.362 556.417 207.362 563.547 Q207.362 570.653 209.167 574.218 Q210.996 577.759 214.607 577.759 Q218.241 577.759 220.047 574.218 Q221.875 570.653 221.875 563.547 Q221.875 556.417 220.047 552.875 Q218.241 549.311 214.607 549.311 M214.607 545.607 Q220.417 545.607 223.473 550.213 Q226.551 554.797 226.551 563.547 Q226.551 572.273 223.473 576.88 Q220.417 581.463 214.607 581.463 Q208.797 581.463 205.718 576.88 Q202.662 572.273 202.662 563.547 Q202.662 554.797 205.718 550.213 Q208.797 545.607 214.607 545.607 Z" fill="#000000" fill-rule="nonzero" fill-opacity="1" /><path clip-path="url(#clip190)" d="M114.931 233.457 L122.57 233.457 L122.57 207.091 L114.26 208.758 L114.26 204.498 L122.524 202.832 L127.2 202.832 L127.2 233.457 L134.839 233.457 L134.839 237.392 L114.931 237.392 L114.931 233.457 Z" fill="#000000" fill-rule="nonzero" fill-opacity="1" /><path clip-path="url(#clip190)" d="M157.13 206.906 L145.325 225.355 L157.13 225.355 L157.13 206.906 M155.903 202.832 L161.783 202.832 L161.783 225.355 L166.714 225.355 L166.714 229.244 L161.783 229.244 L161.783 237.392 L157.13 237.392 L157.13 229.244 L141.529 229.244 L141.529 224.73 L155.903 202.832 Z" fill="#000000" fill-rule="nonzero" fill-opacity="1" /><path clip-path="url(#clip190)" d="M184.445 205.91 Q180.834 205.91 179.005 209.475 Q177.2 213.017 177.2 220.146 Q177.2 227.253 179.005 230.818 Q180.834 234.359 184.445 234.359 Q188.079 234.359 189.885 230.818 Q191.713 227.253 191.713 220.146 Q191.713 213.017 189.885 209.475 Q188.079 205.91 184.445 205.91 M184.445 202.207 Q190.255 202.207 193.311 206.813 Q196.389 211.397 196.389 220.146 Q196.389 228.873 193.311 233.48 Q190.255 238.063 184.445 238.063 Q178.635 238.063 175.556 233.48 Q172.501 228.873 172.501 220.146 Q172.501 211.397 175.556 206.813 Q178.635 202.207 184.445 202.207 Z" fill="#000000" fill-rule="nonzero" fill-opacity="1" /><path clip-path="url(#clip190)" d="M214.607 205.91 Q210.996 205.91 209.167 209.475 Q207.362 213.017 207.362 220.146 Q207.362 227.253 209.167 230.818 Q210.996 234.359 214.607 234.359 Q218.241 234.359 220.047 230.818 Q221.875 227.253 221.875 220.146 Q221.875 213.017 220.047 209.475 Q218.241 205.91 214.607 205.91 M214.607 202.207 Q220.417 202.207 223.473 206.813 Q226.551 211.397 226.551 220.146 Q226.551 228.873 223.473 233.48 Q220.417 238.063 214.607 238.063 Q208.797 238.063 205.718 233.48 Q202.662 228.873 202.662 220.146 Q202.662 211.397 205.718 206.813 Q208.797 202.207 214.607 202.207 Z" fill="#000000" fill-rule="nonzero" fill-opacity="1" /><path clip-path="url(#clip190)" d="M21.7677 934.92 L39.6235 934.92 L39.6235 926.836 Q39.6235 922.348 37.3 919.897 Q34.9765 917.446 30.6797 917.446 Q26.4147 917.446 24.0912 919.897 Q21.7677 922.348 21.7677 926.836 L21.7677 934.92 M16.4842 941.349 L16.4842 926.836 Q16.4842 918.847 20.1126 914.773 Q23.7092 910.667 30.6797 910.667 Q37.7138 910.667 41.3104 914.773 Q44.907 918.847 44.907 926.836 L44.907 934.92 L64.0042 934.92 L64.0042 941.349 L16.4842 941.349 Z" fill="#000000" fill-rule="nonzero" fill-opacity="1" /><path clip-path="url(#clip190)" d="M33.8307 882.785 Q33.2578 883.772 33.0032 884.949 Q32.7167 886.095 32.7167 887.496 Q32.7167 892.461 35.9632 895.134 Q39.1779 897.776 45.2253 897.776 L64.0042 897.776 L64.0042 903.664 L28.3562 903.664 L28.3562 897.776 L33.8944 897.776 Q30.6479 895.93 29.0883 892.97 Q27.4968 890.01 27.4968 885.777 Q27.4968 885.172 27.5923 884.44 Q27.656 883.708 27.8151 882.817 L33.8307 882.785 Z" fill="#000000" fill-rule="nonzero" fill-opacity="1" /><path clip-path="url(#clip190)" d="M32.4621 864.261 Q32.4621 868.971 36.1542 871.709 Q39.8145 874.446 46.212 874.446 Q52.6095 874.446 56.3017 871.74 Q59.9619 869.003 59.9619 864.261 Q59.9619 859.582 56.2698 856.845 Q52.5777 854.107 46.212 854.107 Q39.8781 854.107 36.186 856.845 Q32.4621 859.582 32.4621 864.261 M27.4968 864.261 Q27.4968 856.622 32.4621 852.261 Q37.4273 847.901 46.212 847.901 Q54.9649 847.901 59.9619 852.261 Q64.9272 856.622 64.9272 864.261 Q64.9272 871.931 59.9619 876.292 Q54.9649 880.621 46.212 880.621 Q37.4273 880.621 32.4621 876.292 Q27.4968 871.931 27.4968 864.261 Z" fill="#000000" fill-rule="nonzero" fill-opacity="1" /><path clip-path="url(#clip190)" d="M45.7664 814.736 Q39.4007 814.736 35.8996 817.377 Q32.3984 819.987 32.3984 824.73 Q32.3984 829.44 35.8996 832.082 Q39.4007 834.692 45.7664 834.692 Q52.1003 834.692 55.6014 832.082 Q59.1026 829.44 59.1026 824.73 Q59.1026 819.987 55.6014 817.377 Q52.1003 814.736 45.7664 814.736 M59.58 808.879 Q68.683 808.879 73.1071 812.921 Q77.5631 816.964 77.5631 825.303 Q77.5631 828.39 77.0857 831.127 Q76.6401 833.865 75.6852 836.443 L69.9879 836.443 Q71.3884 833.865 72.0568 831.35 Q72.7252 828.836 72.7252 826.226 Q72.7252 820.465 69.7015 817.6 Q66.7096 814.736 60.6303 814.736 L57.7339 814.736 Q60.885 816.55 62.4446 819.383 Q64.0042 822.215 64.0042 826.162 Q64.0042 832.719 59.0071 836.729 Q54.01 840.739 45.7664 840.739 Q37.491 840.739 32.4939 836.729 Q27.4968 832.719 27.4968 826.162 Q27.4968 822.215 29.0564 819.383 Q30.616 816.55 33.7671 814.736 L28.3562 814.736 L28.3562 808.879 L59.58 808.879 Z" fill="#000000" fill-rule="nonzero" fill-opacity="1" /><path clip-path="url(#clip190)" d="M33.8307 776.159 Q33.2578 777.146 33.0032 778.324 Q32.7167 779.47 32.7167 780.87 Q32.7167 785.835 35.9632 788.509 Q39.1779 791.151 45.2253 791.151 L64.0042 791.151 L64.0042 797.039 L28.3562 797.039 L28.3562 791.151 L33.8944 791.151 Q30.6479 789.305 29.0883 786.345 Q27.4968 783.384 27.4968 779.151 Q27.4968 778.547 27.5923 777.814 Q27.656 777.082 27.8151 776.191 L33.8307 776.159 Z" fill="#000000" fill-rule="nonzero" fill-opacity="1" /><path clip-path="url(#clip190)" d="M46.0847 753.816 Q46.0847 760.914 47.7079 763.651 Q49.3312 766.388 53.2461 766.388 Q56.3653 766.388 58.2114 764.351 Q60.0256 762.282 60.0256 758.749 Q60.0256 753.879 56.5881 750.951 Q53.1188 747.991 47.3897 747.991 L46.0847 747.991 L46.0847 753.816 M43.6657 742.135 L64.0042 742.135 L64.0042 747.991 L58.5933 747.991 Q61.8398 749.996 63.3994 752.988 Q64.9272 755.98 64.9272 760.309 Q64.9272 765.783 61.8716 769.03 Q58.7843 772.244 53.6281 772.244 Q47.6125 772.244 44.5569 768.234 Q41.5014 764.192 41.5014 756.203 L41.5014 747.991 L40.9285 747.991 Q36.8862 747.991 34.6901 750.665 Q32.4621 753.306 32.4621 758.113 Q32.4621 761.168 33.1941 764.065 Q33.9262 766.961 35.3903 769.635 L29.9795 769.635 Q28.7381 766.42 28.1334 763.396 Q27.4968 760.372 27.4968 757.508 Q27.4968 749.774 31.5072 745.954 Q35.5176 742.135 43.6657 742.135 Z" fill="#000000" fill-rule="nonzero" fill-opacity="1" /><path clip-path="url(#clip190)" d="M35.1993 702.317 Q31.2526 700.121 29.3747 697.065 Q27.4968 694.01 27.4968 689.872 Q27.4968 684.302 31.4117 681.279 Q35.2948 678.255 42.4881 678.255 L64.0042 678.255 L64.0042 684.143 L42.679 684.143 Q37.5546 684.143 35.072 685.957 Q32.5894 687.772 32.5894 691.495 Q32.5894 696.047 35.6131 698.689 Q38.6368 701.33 43.8567 701.33 L64.0042 701.33 L64.0042 707.219 L42.679 707.219 Q37.5228 707.219 35.072 709.033 Q32.5894 710.847 32.5894 714.635 Q32.5894 719.123 35.6449 721.764 Q38.6686 724.406 43.8567 724.406 L64.0042 724.406 L64.0042 730.294 L28.3562 730.294 L28.3562 724.406 L33.8944 724.406 Q30.616 722.401 29.0564 719.6 Q27.4968 716.799 27.4968 712.948 Q27.4968 709.065 29.4702 706.359 Q31.4436 703.622 35.1993 702.317 Z" fill="#000000" fill-rule="nonzero" fill-opacity="1" /><path clip-path="url(#clip190)" d="M29.4065 623.128 L34.9447 623.128 Q33.6716 625.61 33.035 628.284 Q32.3984 630.958 32.3984 633.822 Q32.3984 638.183 33.7352 640.379 Q35.072 642.543 37.7456 642.543 Q39.7826 642.543 40.9603 640.984 Q42.1061 639.424 43.1565 634.713 L43.6021 632.708 Q44.9389 626.47 47.3897 623.86 Q49.8086 621.218 54.1691 621.218 Q59.1344 621.218 62.0308 625.165 Q64.9272 629.08 64.9272 635.955 Q64.9272 638.819 64.3543 641.938 Q63.8132 645.026 62.6992 648.463 L56.6518 648.463 Q58.3387 645.217 59.198 642.066 Q60.0256 638.915 60.0256 635.827 Q60.0256 631.69 58.6251 629.462 Q57.1929 627.234 54.6147 627.234 Q52.2276 627.234 50.9545 628.857 Q49.6813 630.448 48.5037 635.891 L48.0262 637.928 Q46.8804 643.371 44.5251 645.79 Q42.138 648.209 38.0002 648.209 Q32.9713 648.209 30.2341 644.644 Q27.4968 641.079 27.4968 634.522 Q27.4968 631.276 27.9743 628.411 Q28.4517 625.547 29.4065 623.128 Z" fill="#000000" fill-rule="nonzero" fill-opacity="1" /><path clip-path="url(#clip190)" d="M28.3562 611.892 L28.3562 606.036 L64.0042 606.036 L64.0042 611.892 L28.3562 611.892 M14.479 611.892 L14.479 606.036 L21.895 606.036 L21.895 611.892 L14.479 611.892 Z" fill="#000000" fill-rule="nonzero" fill-opacity="1" /><path clip-path="url(#clip190)" d="M28.3562 596.328 L28.3562 568.51 L33.7034 568.51 L59.3254 590.535 L59.3254 568.51 L64.0042 568.51 L64.0042 597.124 L58.657 597.124 L33.035 575.099 L33.035 596.328 L28.3562 596.328 Z" fill="#000000" fill-rule="nonzero" fill-opacity="1" /><path clip-path="url(#clip190)" d="M44.7161 529.074 L47.5806 529.074 L47.5806 556.001 Q53.6281 555.619 56.8109 552.373 Q59.9619 549.095 59.9619 543.27 Q59.9619 539.896 59.1344 536.745 Q58.3069 533.562 56.6518 530.443 L62.1899 530.443 Q63.5267 533.594 64.227 536.904 Q64.9272 540.214 64.9272 543.62 Q64.9272 552.15 59.9619 557.147 Q54.9967 562.112 46.5303 562.112 Q37.7774 562.112 32.6531 557.402 Q27.4968 552.659 27.4968 544.639 Q27.4968 537.445 32.1438 533.276 Q36.7589 529.074 44.7161 529.074 M42.9973 534.931 Q38.1912 534.995 35.3266 537.636 Q32.4621 540.246 32.4621 544.575 Q32.4621 549.477 35.2312 552.437 Q38.0002 555.365 43.0292 555.81 L42.9973 534.931 Z" fill="#000000" fill-rule="nonzero" fill-opacity="1" /><polyline clip-path="url(#clip192)" style="stroke:#009af9; stroke-linecap:round; stroke-linejoin:round; stroke-width:4; stroke-opacity:1; fill:none" points="321.708,86.1857 342.686,850.251 363.663,1114.67 384.641,1252.03 405.618,1317.28 426.596,1353.33 447.573,1384.24 468.551,1380.8 489.528,1380.8 510.506,1332.73 531.484,1360.2 552.461,1377.37 573.439,1329.29 594.416,1303.54 615.394,1281.22 636.371,1286.37 657.349,1231.43 678.327,1217.69 699.304,1267.48 720.282,1305.26 741.259,1282.94 762.237,1240.01 783.214,1224.56 804.192,1207.39 825.17,1157.59 846.147,1123.25 867.125,1133.56 888.102,1133.56 909.08,1133.56 930.057,1131.84 951.035,1150.73 972.013,1159.31 992.99,1167.9 1013.97,1171.33 1034.95,1167.9 1055.92,1164.46 1076.9,1159.31 1097.88,1142.14 1118.86,1121.54 1139.83,1112.95 1160.81,1092.35 1181.79,1061.44 1202.77,1025.39 1223.74,1004.78 1244.72,980.743 1265.7,949.837 1286.68,949.837 1307.65,956.705 1328.63,965.29 1349.61,973.875 1370.59,979.026 1391.56,980.743 1412.54,979.026 1433.52,984.177 1454.5,987.611 1475.47,987.611 1496.45,984.177 1517.43,980.743 1538.41,979.026 1559.38,984.177 1580.36,992.762 1601.34,997.913 1622.32,999.63 1643.29,1004.78 1664.27,1008.22 1685.25,1015.08 1706.23,1018.52 1727.2,1018.52 1748.18,1015.08 1769.16,1008.22 1790.14,1001.35 1811.12,1001.35 1832.09,1003.06 1853.07,1001.35 1874.05,996.196 1895.03,997.913 1916,1003.06 1936.98,1006.5 1957.96,1008.22 1978.94,1009.93 1999.91,1008.22 2020.89,1003.06 2041.87,996.196 2062.85,989.328 2083.82,979.026 2104.8,967.007 2125.78,961.856 2146.76,956.705 2167.73,948.12 2188.71,936.101 2209.69,929.233 2230.67,918.931 2251.64,906.912 2272.62,901.761 2293.6,901.761 "/>
<polyline clip-path="url(#clip192)" style="stroke:#e26f46; stroke-linecap:round; stroke-linejoin:round; stroke-width:4; stroke-opacity:1; fill:none" points="321.708,86.1857 342.686,378.076 363.663,596.135 384.641,630.475 405.618,695.721 426.596,730.061 447.573,735.212 468.551,826.213 489.528,870.855 510.506,860.553 531.484,834.798 552.461,882.874 573.439,860.553 594.416,863.987 615.394,912.063 636.371,903.478 657.349,898.327 678.327,894.893 699.304,896.61 720.282,894.893 741.259,879.44 762.237,908.629 783.214,912.063 804.192,924.082 825.17,912.063 846.147,927.516 867.125,942.969 888.102,915.497 909.08,932.667 930.057,927.516 951.035,906.912 972.013,929.233 992.99,934.384 1013.97,920.648 1034.95,930.95 1055.92,930.95 1076.9,922.365 1097.88,905.195 1118.86,894.893 1139.83,913.78 1160.81,903.478 1181.79,903.478 1202.77,908.629 1223.74,903.478 1244.72,901.761 1265.7,925.799 1286.68,932.667 1307.65,944.686 1328.63,948.12 1349.61,939.535 1370.59,930.95 1391.56,929.233 1412.54,929.233 1433.52,930.95 1454.5,925.799 1475.47,922.365 1496.45,917.214 1517.43,925.799 1538.41,924.082 1559.38,922.365 1580.36,917.214 1601.34,917.214 1622.32,932.667 1643.29,929.233 1664.27,932.667 1685.25,929.233 1706.23,925.799 1727.2,918.931 1748.18,920.648 1769.16,922.365 1790.14,927.516 1811.12,930.95 1832.09,934.384 1853.07,929.233 1874.05,918.931 1895.03,917.214 1916,917.214 1936.98,908.629 1957.96,915.497 1978.94,917.214 1999.91,915.497 2020.89,917.214 2041.87,917.214 2062.85,908.629 2083.82,901.761 2104.8,913.78 2125.78,905.195 2146.76,894.893 2167.73,900.044 2188.71,896.61 2209.69,889.742 2230.67,901.761 2251.64,886.308 2272.62,901.761 2293.6,901.761 "/>
<path clip-path="url(#clip190)" d="M1988.07 248.629 L2283.08 248.629 L2283.08 93.1086 L1988.07 93.1086  Z" fill="#ffffff" fill-rule="evenodd" fill-opacity="1"/>
<polyline clip-path="url(#clip190)" style="stroke:#000000; stroke-linecap:round; stroke-linejoin:round; stroke-width:4; stroke-opacity:1; fill:none" points="1988.07,248.629 2283.08,248.629 2283.08,93.1086 1988.07,93.1086 1988.07,248.629 "/>
<polyline clip-path="url(#clip190)" style="stroke:#009af9; stroke-linecap:round; stroke-linejoin:round; stroke-width:4; stroke-opacity:1; fill:none" points="2011.29,144.949 2150.64,144.949 "/>
<path clip-path="url(#clip190)" d="M2192.29 137.067 L2192.29 141.094 Q2190.48 140.169 2188.54 139.706 Q2186.59 139.243 2184.51 139.243 Q2181.34 139.243 2179.74 140.215 Q2178.17 141.187 2178.17 143.131 Q2178.17 144.613 2179.3 145.469 Q2180.44 146.303 2183.86 147.067 L2185.32 147.391 Q2189.86 148.363 2191.76 150.145 Q2193.68 151.905 2193.68 155.076 Q2193.68 158.687 2190.81 160.793 Q2187.96 162.9 2182.96 162.9 Q2180.88 162.9 2178.61 162.483 Q2176.36 162.09 2173.86 161.28 L2173.86 156.881 Q2176.22 158.108 2178.52 158.733 Q2180.81 159.335 2183.05 159.335 Q2186.06 159.335 2187.68 158.317 Q2189.3 157.275 2189.3 155.4 Q2189.3 153.664 2188.12 152.738 Q2186.96 151.812 2183.01 150.956 L2181.53 150.608 Q2177.57 149.775 2175.81 148.062 Q2174.05 146.326 2174.05 143.317 Q2174.05 139.659 2176.64 137.669 Q2179.23 135.678 2184 135.678 Q2186.36 135.678 2188.45 136.025 Q2190.53 136.372 2192.29 137.067 Z" fill="#000000" fill-rule="nonzero" fill-opacity="1" /><path clip-path="url(#clip190)" d="M2204.67 128.942 L2204.67 136.303 L2213.45 136.303 L2213.45 139.613 L2204.67 139.613 L2204.67 153.687 Q2204.67 156.858 2205.53 157.761 Q2206.41 158.664 2209.07 158.664 L2213.45 158.664 L2213.45 162.229 L2209.07 162.229 Q2204.14 162.229 2202.27 160.4 Q2200.39 158.548 2200.39 153.687 L2200.39 139.613 L2197.27 139.613 L2197.27 136.303 L2200.39 136.303 L2200.39 128.942 L2204.67 128.942 Z" fill="#000000" fill-rule="nonzero" fill-opacity="1" /><path clip-path="url(#clip190)" d="M2234.07 140.284 Q2233.35 139.868 2232.5 139.682 Q2231.66 139.474 2230.65 139.474 Q2227.03 139.474 2225.09 141.835 Q2223.17 144.173 2223.17 148.571 L2223.17 162.229 L2218.89 162.229 L2218.89 136.303 L2223.17 136.303 L2223.17 140.331 Q2224.51 137.969 2226.66 136.835 Q2228.82 135.678 2231.9 135.678 Q2232.33 135.678 2232.87 135.747 Q2233.4 135.794 2234.05 135.909 L2234.07 140.284 Z" fill="#000000" fill-rule="nonzero" fill-opacity="1" /><path clip-path="url(#clip190)" d="M2239.95 158.293 L2247.59 158.293 L2247.59 131.928 L2239.28 133.595 L2239.28 129.335 L2247.54 127.669 L2252.22 127.669 L2252.22 158.293 L2259.86 158.293 L2259.86 162.229 L2239.95 162.229 L2239.95 158.293 Z" fill="#000000" fill-rule="nonzero" fill-opacity="1" /><polyline clip-path="url(#clip190)" style="stroke:#e26f46; stroke-linecap:round; stroke-linejoin:round; stroke-width:4; stroke-opacity:1; fill:none" points="2011.29,196.789 2150.64,196.789 "/>
<path clip-path="url(#clip190)" d="M2192.29 188.907 L2192.29 192.934 Q2190.48 192.009 2188.54 191.546 Q2186.59 191.083 2184.51 191.083 Q2181.34 191.083 2179.74 192.055 Q2178.17 193.027 2178.17 194.971 Q2178.17 196.453 2179.3 197.309 Q2180.44 198.143 2183.86 198.907 L2185.32 199.231 Q2189.86 200.203 2191.76 201.985 Q2193.68 203.745 2193.68 206.916 Q2193.68 210.527 2190.81 212.633 Q2187.96 214.74 2182.96 214.74 Q2180.88 214.74 2178.61 214.323 Q2176.36 213.93 2173.86 213.12 L2173.86 208.721 Q2176.22 209.948 2178.52 210.573 Q2180.81 211.175 2183.05 211.175 Q2186.06 211.175 2187.68 210.157 Q2189.3 209.115 2189.3 207.24 Q2189.3 205.504 2188.12 204.578 Q2186.96 203.652 2183.01 202.796 L2181.53 202.448 Q2177.57 201.615 2175.81 199.902 Q2174.05 198.166 2174.05 195.157 Q2174.05 191.499 2176.64 189.509 Q2179.23 187.518 2184 187.518 Q2186.36 187.518 2188.45 187.865 Q2190.53 188.212 2192.29 188.907 Z" fill="#000000" fill-rule="nonzero" fill-opacity="1" /><path clip-path="url(#clip190)" d="M2204.67 180.782 L2204.67 188.143 L2213.45 188.143 L2213.45 191.453 L2204.67 191.453 L2204.67 205.527 Q2204.67 208.698 2205.53 209.601 Q2206.41 210.504 2209.07 210.504 L2213.45 210.504 L2213.45 214.069 L2209.07 214.069 Q2204.14 214.069 2202.27 212.24 Q2200.39 210.388 2200.39 205.527 L2200.39 191.453 L2197.27 191.453 L2197.27 188.143 L2200.39 188.143 L2200.39 180.782 L2204.67 180.782 Z" fill="#000000" fill-rule="nonzero" fill-opacity="1" /><path clip-path="url(#clip190)" d="M2234.07 192.124 Q2233.35 191.708 2232.5 191.522 Q2231.66 191.314 2230.65 191.314 Q2227.03 191.314 2225.09 193.675 Q2223.17 196.013 2223.17 200.411 L2223.17 214.069 L2218.89 214.069 L2218.89 188.143 L2223.17 188.143 L2223.17 192.171 Q2224.51 189.809 2226.66 188.675 Q2228.82 187.518 2231.9 187.518 Q2232.33 187.518 2232.87 187.587 Q2233.4 187.634 2234.05 187.749 L2234.07 192.124 Z" fill="#000000" fill-rule="nonzero" fill-opacity="1" /><path clip-path="url(#clip190)" d="M2243.17 210.133 L2259.49 210.133 L2259.49 214.069 L2237.54 214.069 L2237.54 210.133 Q2240.21 207.379 2244.79 202.749 Q2249.4 198.096 2250.58 196.754 Q2252.82 194.231 2253.7 192.495 Q2254.6 190.735 2254.6 189.046 Q2254.6 186.291 2252.66 184.555 Q2250.74 182.819 2247.64 182.819 Q2245.44 182.819 2242.98 183.583 Q2240.55 184.347 2237.77 185.897 L2237.77 181.175 Q2240.6 180.041 2243.05 179.462 Q2245.51 178.884 2247.54 178.884 Q2252.91 178.884 2256.11 181.569 Q2259.3 184.254 2259.3 188.745 Q2259.3 190.874 2258.49 192.796 Q2257.71 194.694 2255.6 197.286 Q2255.02 197.958 2251.92 201.175 Q2248.82 204.37 2243.17 210.133 Z" fill="#000000" fill-rule="nonzero" fill-opacity="1" /></svg>
