<?xml version="1.0" encoding="utf-8"?>
<svg xmlns="http://www.w3.org/2000/svg" xmlns:xlink="http://www.w3.org/1999/xlink" width="600" height="400" viewBox="0 0 2400 1600">
<defs>
  <clipPath id="clip430">
    <rect x="0" y="0" width="2400" height="1600"/>
  </clipPath>
</defs>
<path clip-path="url(#clip430)" d="M0 1600 L2400 1600 L2400 0 L0 0  Z" fill="#ffffff" fill-rule="evenodd" fill-opacity="1"/>
<defs>
  <clipPath id="clip431">
    <rect x="480" y="0" width="1681" height="1600"/>
  </clipPath>
</defs>
<path clip-path="url(#clip430)" d="M262.551 1423.18 L2352.76 1423.18 L2352.76 47.2441 L262.551 47.2441  Z" fill="#ffffff" fill-rule="evenodd" fill-opacity="1"/>
<defs>
  <clipPath id="clip432">
    <rect x="262" y="47" width="2091" height="1377"/>
  </clipPath>
</defs>
<polyline clip-path="url(#clip432)" style="stroke:#000000; stroke-linecap:round; stroke-linejoin:round; stroke-width:2; stroke-opacity:0.1; fill:none" points="321.708,1423.18 321.708,47.2441 "/>
<polyline clip-path="url(#clip432)" style="stroke:#000000; stroke-linecap:round; stroke-linejoin:round; stroke-width:2; stroke-opacity:0.1; fill:none" points="708.353,1423.18 708.353,47.2441 "/>
<polyline clip-path="url(#clip432)" style="stroke:#000000; stroke-linecap:round; stroke-linejoin:round; stroke-width:2; stroke-opacity:0.1; fill:none" points="1095,1423.18 1095,47.2441 "/>
<polyline clip-path="url(#clip432)" style="stroke:#000000; stroke-linecap:round; stroke-linejoin:round; stroke-width:2; stroke-opacity:0.1; fill:none" points="1481.64,1423.18 1481.64,47.2441 "/>
<polyline clip-path="url(#clip432)" style="stroke:#000000; stroke-linecap:round; stroke-linejoin:round; stroke-width:2; stroke-opacity:0.1; fill:none" points="1868.29,1423.18 1868.29,47.2441 "/>
<polyline clip-path="url(#clip432)" style="stroke:#000000; stroke-linecap:round; stroke-linejoin:round; stroke-width:2; stroke-opacity:0.1; fill:none" points="2254.93,1423.18 2254.93,47.2441 "/>
<polyline clip-path="url(#clip430)" style="stroke:#000000; stroke-linecap:round; stroke-linejoin:round; stroke-width:4; stroke-opacity:1; fill:none" points="262.551,1423.18 2352.76,1423.18 "/>
<polyline clip-path="url(#clip430)" style="stroke:#000000; stroke-linecap:round; stroke-linejoin:round; stroke-width:4; stroke-opacity:1; fill:none" points="321.708,1423.18 321.708,1404.28 "/>
<polyline clip-path="url(#clip430)" style="stroke:#000000; stroke-linecap:round; stroke-linejoin:round; stroke-width:4; stroke-opacity:1; fill:none" points="708.353,1423.18 708.353,1404.28 "/>
<polyline clip-path="url(#clip430)" style="stroke:#000000; stroke-linecap:round; stroke-linejoin:round; stroke-width:4; stroke-opacity:1; fill:none" points="1095,1423.18 1095,1404.28 "/>
<polyline clip-path="url(#clip430)" style="stroke:#000000; stroke-linecap:round; stroke-linejoin:round; stroke-width:4; stroke-opacity:1; fill:none" points="1481.64,1423.18 1481.64,1404.28 "/>
<polyline clip-path="url(#clip430)" style="stroke:#000000; stroke-linecap:round; stroke-linejoin:round; stroke-width:4; stroke-opacity:1; fill:none" points="1868.29,1423.18 1868.29,1404.28 "/>
<polyline clip-path="url(#clip430)" style="stroke:#000000; stroke-linecap:round; stroke-linejoin:round; stroke-width:4; stroke-opacity:1; fill:none" points="2254.93,1423.18 2254.93,1404.28 "/>
<path clip-path="url(#clip430)" d="M321.708 1454.1 Q318.097 1454.1 316.268 1457.66 Q314.463 1461.2 314.463 1468.33 Q314.463 1475.44 316.268 1479.01 Q318.097 1482.55 321.708 1482.55 Q325.342 1482.55 327.148 1479.01 Q328.976 1475.44 328.976 1468.33 Q328.976 1461.2 327.148 1457.66 Q325.342 1454.1 321.708 1454.1 M321.708 1450.39 Q327.518 1450.39 330.574 1455 Q333.652 1459.58 333.652 1468.33 Q333.652 1477.06 330.574 1481.67 Q327.518 1486.25 321.708 1486.25 Q315.898 1486.25 312.819 1481.67 Q309.764 1477.06 309.764 1468.33 Q309.764 1459.58 312.819 1455 Q315.898 1450.39 321.708 1450.39 Z" fill="#000000" fill-rule="nonzero" fill-opacity="1" /><path clip-path="url(#clip430)" d="M683.053 1451.02 L701.409 1451.02 L701.409 1454.96 L687.335 1454.96 L687.335 1463.43 Q688.353 1463.08 689.372 1462.92 Q690.39 1462.73 691.409 1462.73 Q697.196 1462.73 700.576 1465.9 Q703.955 1469.08 703.955 1474.49 Q703.955 1480.07 700.483 1483.17 Q697.011 1486.25 690.691 1486.25 Q688.515 1486.25 686.247 1485.88 Q684.002 1485.51 681.594 1484.77 L681.594 1480.07 Q683.678 1481.2 685.9 1481.76 Q688.122 1482.32 690.599 1482.32 Q694.603 1482.32 696.941 1480.21 Q699.279 1478.1 699.279 1474.49 Q699.279 1470.88 696.941 1468.77 Q694.603 1466.67 690.599 1466.67 Q688.724 1466.67 686.849 1467.08 Q684.997 1467.5 683.053 1468.38 L683.053 1451.02 Z" fill="#000000" fill-rule="nonzero" fill-opacity="1" /><path clip-path="url(#clip430)" d="M723.168 1454.1 Q719.557 1454.1 717.728 1457.66 Q715.923 1461.2 715.923 1468.33 Q715.923 1475.44 717.728 1479.01 Q719.557 1482.55 723.168 1482.55 Q726.802 1482.55 728.608 1479.01 Q730.437 1475.44 730.437 1468.33 Q730.437 1461.2 728.608 1457.66 Q726.802 1454.1 723.168 1454.1 M723.168 1450.39 Q728.978 1450.39 732.034 1455 Q735.112 1459.58 735.112 1468.33 Q735.112 1477.06 732.034 1481.67 Q728.978 1486.25 723.168 1486.25 Q717.358 1486.25 714.279 1481.67 Q711.224 1477.06 711.224 1468.33 Q711.224 1459.58 714.279 1455 Q717.358 1450.39 723.168 1450.39 Z" fill="#000000" fill-rule="nonzero" fill-opacity="1" /><path clip-path="url(#clip430)" d="M1054.61 1481.64 L1062.24 1481.64 L1062.24 1455.28 L1053.93 1456.95 L1053.93 1452.69 L1062.2 1451.02 L1066.87 1451.02 L1066.87 1481.64 L1074.51 1481.64 L1074.51 1485.58 L1054.61 1485.58 L1054.61 1481.64 Z" fill="#000000" fill-rule="nonzero" fill-opacity="1" /><path clip-path="url(#clip430)" d="M1093.96 1454.1 Q1090.35 1454.1 1088.52 1457.66 Q1086.71 1461.2 1086.71 1468.33 Q1086.71 1475.44 1088.52 1479.01 Q1090.35 1482.55 1093.96 1482.55 Q1097.59 1482.55 1099.4 1479.01 Q1101.23 1475.44 1101.23 1468.33 Q1101.23 1461.2 1099.4 1457.66 Q1097.59 1454.1 1093.96 1454.1 M1093.96 1450.39 Q1099.77 1450.39 1102.82 1455 Q1105.9 1459.58 1105.9 1468.33 Q1105.9 1477.06 1102.82 1481.67 Q1099.77 1486.25 1093.96 1486.25 Q1088.15 1486.25 1085.07 1481.67 Q1082.01 1477.06 1082.01 1468.33 Q1082.01 1459.58 1085.07 1455 Q1088.15 1450.39 1093.96 1450.39 Z" fill="#000000" fill-rule="nonzero" fill-opacity="1" /><path clip-path="url(#clip430)" d="M1124.12 1454.1 Q1120.51 1454.1 1118.68 1457.66 Q1116.87 1461.2 1116.87 1468.33 Q1116.87 1475.44 1118.68 1479.01 Q1120.51 1482.55 1124.12 1482.55 Q1127.75 1482.55 1129.56 1479.01 Q1131.39 1475.44 1131.39 1468.33 Q1131.39 1461.2 1129.56 1457.66 Q1127.75 1454.1 1124.12 1454.1 M1124.12 1450.39 Q1129.93 1450.39 1132.98 1455 Q1136.06 1459.58 1136.06 1468.33 Q1136.06 1477.06 1132.98 1481.67 Q1129.93 1486.25 1124.12 1486.25 Q1118.31 1486.25 1115.23 1481.67 Q1112.17 1477.06 1112.17 1468.33 Q1112.17 1459.58 1115.23 1455 Q1118.31 1450.39 1124.12 1450.39 Z" fill="#000000" fill-rule="nonzero" fill-opacity="1" /><path clip-path="url(#clip430)" d="M1441.25 1481.64 L1448.89 1481.64 L1448.89 1455.28 L1440.58 1456.95 L1440.58 1452.69 L1448.84 1451.02 L1453.52 1451.02 L1453.52 1481.64 L1461.16 1481.64 L1461.16 1485.58 L1441.25 1485.58 L1441.25 1481.64 Z" fill="#000000" fill-rule="nonzero" fill-opacity="1" /><path clip-path="url(#clip430)" d="M1470.65 1451.02 L1489.01 1451.02 L1489.01 1454.96 L1474.93 1454.96 L1474.93 1463.43 Q1475.95 1463.08 1476.97 1462.92 Q1477.99 1462.73 1479.01 1462.73 Q1484.79 1462.73 1488.17 1465.9 Q1491.55 1469.08 1491.55 1474.49 Q1491.55 1480.07 1488.08 1483.17 Q1484.61 1486.25 1478.29 1486.25 Q1476.11 1486.25 1473.84 1485.88 Q1471.6 1485.51 1469.19 1484.77 L1469.19 1480.07 Q1471.27 1481.2 1473.5 1481.76 Q1475.72 1482.32 1478.19 1482.32 Q1482.2 1482.32 1484.54 1480.21 Q1486.88 1478.1 1486.88 1474.49 Q1486.88 1470.88 1484.54 1468.77 Q1482.2 1466.67 1478.19 1466.67 Q1476.32 1466.67 1474.44 1467.08 Q1472.59 1467.5 1470.65 1468.38 L1470.65 1451.02 Z" fill="#000000" fill-rule="nonzero" fill-opacity="1" /><path clip-path="url(#clip430)" d="M1510.76 1454.1 Q1507.15 1454.1 1505.32 1457.66 Q1503.52 1461.2 1503.52 1468.33 Q1503.52 1475.44 1505.32 1479.01 Q1507.15 1482.55 1510.76 1482.55 Q1514.4 1482.55 1516.2 1479.01 Q1518.03 1475.44 1518.03 1468.33 Q1518.03 1461.2 1516.2 1457.66 Q1514.4 1454.1 1510.76 1454.1 M1510.76 1450.39 Q1516.57 1450.39 1519.63 1455 Q1522.71 1459.58 1522.71 1468.33 Q1522.71 1477.06 1519.63 1481.67 Q1516.57 1486.25 1510.76 1486.25 Q1504.95 1486.25 1501.88 1481.67 Q1498.82 1477.06 1498.82 1468.33 Q1498.82 1459.58 1501.88 1455 Q1504.95 1450.39 1510.76 1450.39 Z" fill="#000000" fill-rule="nonzero" fill-opacity="1" /><path clip-path="url(#clip430)" d="M1831.98 1481.64 L1848.3 1481.64 L1848.3 1485.58 L1826.36 1485.58 L1826.36 1481.64 Q1829.02 1478.89 1833.6 1474.26 Q1838.21 1469.61 1839.39 1468.27 Q1841.63 1465.74 1842.51 1464.01 Q1843.42 1462.25 1843.42 1460.56 Q1843.42 1457.8 1841.47 1456.07 Q1839.55 1454.33 1836.45 1454.33 Q1834.25 1454.33 1831.8 1455.09 Q1829.37 1455.86 1826.59 1457.41 L1826.59 1452.69 Q1829.41 1451.55 1831.87 1450.97 Q1834.32 1450.39 1836.36 1450.39 Q1841.73 1450.39 1844.92 1453.08 Q1848.12 1455.77 1848.12 1460.26 Q1848.12 1462.39 1847.31 1464.31 Q1846.52 1466.2 1844.41 1468.8 Q1843.83 1469.47 1840.73 1472.69 Q1837.63 1475.88 1831.98 1481.64 Z" fill="#000000" fill-rule="nonzero" fill-opacity="1" /><path clip-path="url(#clip430)" d="M1868.12 1454.1 Q1864.5 1454.1 1862.68 1457.66 Q1860.87 1461.2 1860.87 1468.33 Q1860.87 1475.44 1862.68 1479.01 Q1864.5 1482.55 1868.12 1482.55 Q1871.75 1482.55 1873.56 1479.01 Q1875.38 1475.44 1875.38 1468.33 Q1875.38 1461.2 1873.56 1457.66 Q1871.75 1454.1 1868.12 1454.1 M1868.12 1450.39 Q1873.93 1450.39 1876.98 1455 Q1880.06 1459.58 1880.06 1468.33 Q1880.06 1477.06 1876.98 1481.67 Q1873.93 1486.25 1868.12 1486.25 Q1862.31 1486.25 1859.23 1481.67 Q1856.17 1477.06 1856.17 1468.33 Q1856.17 1459.58 1859.23 1455 Q1862.31 1450.39 1868.12 1450.39 Z" fill="#000000" fill-rule="nonzero" fill-opacity="1" /><path clip-path="url(#clip430)" d="M1898.28 1454.1 Q1894.67 1454.1 1892.84 1457.66 Q1891.03 1461.2 1891.03 1468.33 Q1891.03 1475.44 1892.84 1479.01 Q1894.67 1482.55 1898.28 1482.55 Q1901.91 1482.55 1903.72 1479.01 Q1905.55 1475.44 1905.55 1468.33 Q1905.55 1461.2 1903.72 1457.66 Q1901.91 1454.1 1898.28 1454.1 M1898.28 1450.39 Q1904.09 1450.39 1907.14 1455 Q1910.22 1459.58 1910.22 1468.33 Q1910.22 1477.06 1907.14 1481.67 Q1904.09 1486.25 1898.28 1486.25 Q1892.47 1486.25 1889.39 1481.67 Q1886.33 1477.06 1886.33 1468.33 Q1886.33 1459.58 1889.39 1455 Q1892.47 1450.39 1898.28 1450.39 Z" fill="#000000" fill-rule="nonzero" fill-opacity="1" /><path clip-path="url(#clip430)" d="M2218.63 1481.64 L2234.95 1481.64 L2234.95 1485.58 L2213 1485.58 L2213 1481.64 Q2215.66 1478.89 2220.25 1474.26 Q2224.85 1469.61 2226.03 1468.27 Q2228.28 1465.74 2229.16 1464.01 Q2230.06 1462.25 2230.06 1460.56 Q2230.06 1457.8 2228.12 1456.07 Q2226.2 1454.33 2223.09 1454.33 Q2220.9 1454.33 2218.44 1455.09 Q2216.01 1455.86 2213.23 1457.41 L2213.23 1452.69 Q2216.06 1451.55 2218.51 1450.97 Q2220.96 1450.39 2223 1450.39 Q2228.37 1450.39 2231.57 1453.08 Q2234.76 1455.77 2234.76 1460.26 Q2234.76 1462.39 2233.95 1464.31 Q2233.16 1466.2 2231.06 1468.8 Q2230.48 1469.47 2227.38 1472.69 Q2224.28 1475.88 2218.63 1481.64 Z" fill="#000000" fill-rule="nonzero" fill-opacity="1" /><path clip-path="url(#clip430)" d="M2244.81 1451.02 L2263.16 1451.02 L2263.16 1454.96 L2249.09 1454.96 L2249.09 1463.43 Q2250.11 1463.08 2251.13 1462.92 Q2252.15 1462.73 2253.16 1462.73 Q2258.95 1462.73 2262.33 1465.9 Q2265.71 1469.08 2265.71 1474.49 Q2265.71 1480.07 2262.24 1483.17 Q2258.77 1486.25 2252.45 1486.25 Q2250.27 1486.25 2248 1485.88 Q2245.76 1485.51 2243.35 1484.77 L2243.35 1480.07 Q2245.43 1481.2 2247.65 1481.76 Q2249.88 1482.32 2252.35 1482.32 Q2256.36 1482.32 2258.7 1480.21 Q2261.03 1478.1 2261.03 1474.49 Q2261.03 1470.88 2258.7 1468.77 Q2256.36 1466.67 2252.35 1466.67 Q2250.48 1466.67 2248.6 1467.08 Q2246.75 1467.5 2244.81 1468.38 L2244.81 1451.02 Z" fill="#000000" fill-rule="nonzero" fill-opacity="1" /><path clip-path="url(#clip430)" d="M2284.92 1454.1 Q2281.31 1454.1 2279.48 1457.66 Q2277.68 1461.2 2277.68 1468.33 Q2277.68 1475.44 2279.48 1479.01 Q2281.31 1482.55 2284.92 1482.55 Q2288.56 1482.55 2290.36 1479.01 Q2292.19 1475.44 2292.19 1468.33 Q2292.19 1461.2 2290.36 1457.66 Q2288.56 1454.1 2284.92 1454.1 M2284.92 1450.39 Q2290.73 1450.39 2293.79 1455 Q2296.87 1459.58 2296.87 1468.33 Q2296.87 1477.06 2293.79 1481.67 Q2290.73 1486.25 2284.92 1486.25 Q2279.11 1486.25 2276.03 1481.67 Q2272.98 1477.06 2272.98 1468.33 Q2272.98 1459.58 2276.03 1455 Q2279.11 1450.39 2284.92 1450.39 Z" fill="#000000" fill-rule="nonzero" fill-opacity="1" /><path clip-path="url(#clip430)" d="M1014.88 1532.4 L1020.74 1532.4 L1020.74 1568.04 L1014.88 1568.04 L1014.88 1532.4 M1014.88 1518.52 L1020.74 1518.52 L1020.74 1525.93 L1014.88 1525.93 L1014.88 1518.52 Z" fill="#000000" fill-rule="nonzero" fill-opacity="1" /><path clip-path="url(#clip430)" d="M1062.62 1546.53 L1062.62 1568.04 L1056.77 1568.04 L1056.77 1546.72 Q1056.77 1541.66 1054.79 1539.14 Q1052.82 1536.63 1048.87 1536.63 Q1044.13 1536.63 1041.39 1539.65 Q1038.65 1542.68 1038.65 1547.9 L1038.65 1568.04 L1032.77 1568.04 L1032.77 1532.4 L1038.65 1532.4 L1038.65 1537.93 Q1040.76 1534.72 1043.59 1533.13 Q1046.45 1531.54 1050.18 1531.54 Q1056.32 1531.54 1059.47 1535.36 Q1062.62 1539.14 1062.62 1546.53 Z" fill="#000000" fill-rule="nonzero" fill-opacity="1" /><path clip-path="url(#clip430)" d="M1074.3 1532.4 L1080.16 1532.4 L1080.16 1568.04 L1074.3 1568.04 L1074.3 1532.4 M1074.3 1518.52 L1080.16 1518.52 L1080.16 1525.93 L1074.3 1525.93 L1074.3 1518.52 Z" fill="#000000" fill-rule="nonzero" fill-opacity="1" /><path clip-path="url(#clip430)" d="M1098.21 1522.27 L1098.21 1532.4 L1110.27 1532.4 L1110.27 1536.95 L1098.21 1536.95 L1098.21 1556.3 Q1098.21 1560.66 1099.38 1561.9 Q1100.59 1563.14 1104.25 1563.14 L1110.27 1563.14 L1110.27 1568.04 L1104.25 1568.04 Q1097.47 1568.04 1094.9 1565.53 Q1092.32 1562.98 1092.32 1556.3 L1092.32 1536.95 L1088.02 1536.95 L1088.02 1532.4 L1092.32 1532.4 L1092.32 1522.27 L1098.21 1522.27 Z" fill="#000000" fill-rule="nonzero" fill-opacity="1" /><path clip-path="url(#clip430)" d="M1117.97 1532.4 L1123.83 1532.4 L1123.83 1568.04 L1117.97 1568.04 L1117.97 1532.4 M1117.97 1518.52 L1123.83 1518.52 L1123.83 1525.93 L1117.97 1525.93 L1117.97 1518.52 Z" fill="#000000" fill-rule="nonzero" fill-opacity="1" /><path clip-path="url(#clip430)" d="M1152.28 1550.12 Q1145.18 1550.12 1142.45 1551.75 Q1139.71 1553.37 1139.71 1557.29 Q1139.71 1560.4 1141.75 1562.25 Q1143.82 1564.07 1147.35 1564.07 Q1152.22 1564.07 1155.15 1560.63 Q1158.11 1557.16 1158.11 1551.43 L1158.11 1550.12 L1152.28 1550.12 M1163.96 1547.71 L1163.96 1568.04 L1158.11 1568.04 L1158.11 1562.63 Q1156.1 1565.88 1153.11 1567.44 Q1150.12 1568.97 1145.79 1568.97 Q1140.32 1568.97 1137.07 1565.91 Q1133.85 1562.82 1133.85 1557.67 Q1133.85 1551.65 1137.86 1548.6 Q1141.91 1545.54 1149.9 1545.54 L1158.11 1545.54 L1158.11 1544.97 Q1158.11 1540.93 1155.43 1538.73 Q1152.79 1536.5 1147.99 1536.5 Q1144.93 1536.5 1142.03 1537.23 Q1139.14 1537.97 1136.46 1539.43 L1136.46 1534.02 Q1139.68 1532.78 1142.7 1532.17 Q1145.73 1531.54 1148.59 1531.54 Q1156.32 1531.54 1160.14 1535.55 Q1163.96 1539.56 1163.96 1547.71 Z" fill="#000000" fill-rule="nonzero" fill-opacity="1" /><path clip-path="url(#clip430)" d="M1176.03 1518.52 L1181.88 1518.52 L1181.88 1568.04 L1176.03 1568.04 L1176.03 1518.52 Z" fill="#000000" fill-rule="nonzero" fill-opacity="1" /><path clip-path="url(#clip430)" d="M1194.14 1532.4 L1199.99 1532.4 L1199.99 1568.04 L1194.14 1568.04 L1194.14 1532.4 M1194.14 1518.52 L1199.99 1518.52 L1199.99 1525.93 L1194.14 1525.93 L1194.14 1518.52 Z" fill="#000000" fill-rule="nonzero" fill-opacity="1" /><path clip-path="url(#clip430)" d="M1209.7 1532.4 L1237.52 1532.4 L1237.52 1537.74 L1215.49 1563.37 L1237.52 1563.37 L1237.52 1568.04 L1208.91 1568.04 L1208.91 1562.7 L1230.93 1537.07 L1209.7 1537.07 L1209.7 1532.4 Z" fill="#000000" fill-rule="nonzero" fill-opacity="1" /><path clip-path="url(#clip430)" d="M1262.66 1550.12 Q1255.57 1550.12 1252.83 1551.75 Q1250.09 1553.37 1250.09 1557.29 Q1250.09 1560.4 1252.13 1562.25 Q1254.2 1564.07 1257.73 1564.07 Q1262.6 1564.07 1265.53 1560.63 Q1268.49 1557.16 1268.49 1551.43 L1268.49 1550.12 L1262.66 1550.12 M1274.35 1547.71 L1274.35 1568.04 L1268.49 1568.04 L1268.49 1562.63 Q1266.48 1565.88 1263.49 1567.44 Q1260.5 1568.97 1256.17 1568.97 Q1250.7 1568.97 1247.45 1565.91 Q1244.24 1562.82 1244.24 1557.67 Q1244.24 1551.65 1248.25 1548.6 Q1252.29 1545.54 1260.28 1545.54 L1268.49 1545.54 L1268.49 1544.97 Q1268.49 1540.93 1265.81 1538.73 Q1263.17 1536.5 1258.37 1536.5 Q1255.31 1536.5 1252.42 1537.23 Q1249.52 1537.97 1246.85 1539.43 L1246.85 1534.02 Q1250.06 1532.78 1253.08 1532.17 Q1256.11 1531.54 1258.97 1531.54 Q1266.71 1531.54 1270.53 1535.55 Q1274.35 1539.56 1274.35 1547.71 Z" fill="#000000" fill-rule="nonzero" fill-opacity="1" /><path clip-path="url(#clip430)" d="M1292.2 1522.27 L1292.2 1532.4 L1304.26 1532.4 L1304.26 1536.95 L1292.2 1536.95 L1292.2 1556.3 Q1292.2 1560.66 1293.38 1561.9 Q1294.59 1563.14 1298.25 1563.14 L1304.26 1563.14 L1304.26 1568.04 L1298.25 1568.04 Q1291.47 1568.04 1288.89 1565.53 Q1286.31 1562.98 1286.31 1556.3 L1286.31 1536.95 L1282.02 1536.95 L1282.02 1532.4 L1286.31 1532.4 L1286.31 1522.27 L1292.2 1522.27 Z" fill="#000000" fill-rule="nonzero" fill-opacity="1" /><path clip-path="url(#clip430)" d="M1311.97 1532.4 L1317.82 1532.4 L1317.82 1568.04 L1311.97 1568.04 L1311.97 1532.4 M1311.97 1518.52 L1317.82 1518.52 L1317.82 1525.93 L1311.97 1525.93 L1311.97 1518.52 Z" fill="#000000" fill-rule="nonzero" fill-opacity="1" /><path clip-path="url(#clip430)" d="M1343.89 1536.5 Q1339.18 1536.5 1336.44 1540.19 Q1333.71 1543.85 1333.71 1550.25 Q1333.71 1556.65 1336.41 1560.34 Q1339.15 1564 1343.89 1564 Q1348.57 1564 1351.31 1560.31 Q1354.04 1556.62 1354.04 1550.25 Q1354.04 1543.92 1351.31 1540.23 Q1348.57 1536.5 1343.89 1536.5 M1343.89 1531.54 Q1351.53 1531.54 1355.89 1536.5 Q1360.25 1541.47 1360.25 1550.25 Q1360.25 1559 1355.89 1564 Q1351.53 1568.97 1343.89 1568.97 Q1336.22 1568.97 1331.86 1564 Q1327.53 1559 1327.53 1550.25 Q1327.53 1541.47 1331.86 1536.5 Q1336.22 1531.54 1343.89 1531.54 Z" fill="#000000" fill-rule="nonzero" fill-opacity="1" /><path clip-path="url(#clip430)" d="M1399.59 1546.53 L1399.59 1568.04 L1393.73 1568.04 L1393.73 1546.72 Q1393.73 1541.66 1391.76 1539.14 Q1389.79 1536.63 1385.84 1536.63 Q1381.1 1536.63 1378.36 1539.65 Q1375.62 1542.68 1375.62 1547.9 L1375.62 1568.04 L1369.74 1568.04 L1369.74 1532.4 L1375.62 1532.4 L1375.62 1537.93 Q1377.72 1534.72 1380.56 1533.13 Q1383.42 1531.54 1387.15 1531.54 Q1393.29 1531.54 1396.44 1535.36 Q1399.59 1539.14 1399.59 1546.53 Z" fill="#000000" fill-rule="nonzero" fill-opacity="1" /><path clip-path="url(#clip430)" d="M1427.79 1532.4 L1434 1532.4 L1445.14 1562.31 L1456.28 1532.4 L1462.48 1532.4 L1449.12 1568.04 L1441.16 1568.04 L1427.79 1532.4 Z" fill="#000000" fill-rule="nonzero" fill-opacity="1" /><path clip-path="url(#clip430)" d="M1486.77 1550.12 Q1479.67 1550.12 1476.93 1551.75 Q1474.2 1553.37 1474.2 1557.29 Q1474.2 1560.4 1476.23 1562.25 Q1478.3 1564.07 1481.84 1564.07 Q1486.7 1564.07 1489.63 1560.63 Q1492.59 1557.16 1492.59 1551.43 L1492.59 1550.12 L1486.77 1550.12 M1498.45 1547.71 L1498.45 1568.04 L1492.59 1568.04 L1492.59 1562.63 Q1490.59 1565.88 1487.6 1567.44 Q1484.6 1568.97 1480.28 1568.97 Q1474.8 1568.97 1471.55 1565.91 Q1468.34 1562.82 1468.34 1557.67 Q1468.34 1551.65 1472.35 1548.6 Q1476.39 1545.54 1484.38 1545.54 L1492.59 1545.54 L1492.59 1544.97 Q1492.59 1540.93 1489.92 1538.73 Q1487.28 1536.5 1482.47 1536.5 Q1479.42 1536.5 1476.52 1537.23 Q1473.62 1537.97 1470.95 1539.43 L1470.95 1534.02 Q1474.16 1532.78 1477.19 1532.17 Q1480.21 1531.54 1483.08 1531.54 Q1490.81 1531.54 1494.63 1535.55 Q1498.45 1539.56 1498.45 1547.71 Z" fill="#000000" fill-rule="nonzero" fill-opacity="1" /><path clip-path="url(#clip430)" d="M1510.51 1518.52 L1516.37 1518.52 L1516.37 1568.04 L1510.51 1568.04 L1510.51 1518.52 Z" fill="#000000" fill-rule="nonzero" fill-opacity="1" /><path clip-path="url(#clip430)" d="M1528.02 1553.98 L1528.02 1532.4 L1533.87 1532.4 L1533.87 1553.75 Q1533.87 1558.81 1535.85 1561.36 Q1537.82 1563.87 1541.77 1563.87 Q1546.51 1563.87 1549.25 1560.85 Q1552.02 1557.83 1552.02 1552.61 L1552.02 1532.4 L1557.87 1532.4 L1557.87 1568.04 L1552.02 1568.04 L1552.02 1562.57 Q1549.88 1565.82 1547.05 1567.41 Q1544.25 1568.97 1540.53 1568.97 Q1534.38 1568.97 1531.2 1565.15 Q1528.02 1561.33 1528.02 1553.98 M1542.76 1531.54 L1542.76 1531.54 Z" fill="#000000" fill-rule="nonzero" fill-opacity="1" /><path clip-path="url(#clip430)" d="M1600.43 1548.76 L1600.43 1551.62 L1573.5 1551.62 Q1573.88 1557.67 1577.13 1560.85 Q1580.41 1564 1586.23 1564 Q1589.61 1564 1592.76 1563.17 Q1595.94 1562.35 1599.06 1560.69 L1599.06 1566.23 Q1595.91 1567.57 1592.6 1568.27 Q1589.29 1568.97 1585.88 1568.97 Q1577.35 1568.97 1572.36 1564 Q1567.39 1559.04 1567.39 1550.57 Q1567.39 1541.82 1572.1 1536.69 Q1576.84 1531.54 1584.86 1531.54 Q1592.06 1531.54 1596.23 1536.18 Q1600.43 1540.8 1600.43 1548.76 M1594.57 1547.04 Q1594.51 1542.23 1591.87 1539.37 Q1589.26 1536.5 1584.93 1536.5 Q1580.03 1536.5 1577.07 1539.27 Q1574.14 1542.04 1573.69 1547.07 L1594.57 1547.04 Z" fill="#000000" fill-rule="nonzero" fill-opacity="1" /><polyline clip-path="url(#clip432)" style="stroke:#000000; stroke-linecap:round; stroke-linejoin:round; stroke-width:2; stroke-opacity:0.1; fill:none" points="262.551,1409.61 2352.76,1409.61 "/>
<polyline clip-path="url(#clip432)" style="stroke:#000000; stroke-linecap:round; stroke-linejoin:round; stroke-width:2; stroke-opacity:0.1; fill:none" points="262.551,986.789 2352.76,986.789 "/>
<polyline clip-path="url(#clip432)" style="stroke:#000000; stroke-linecap:round; stroke-linejoin:round; stroke-width:2; stroke-opacity:0.1; fill:none" points="262.551,563.971 2352.76,563.971 "/>
<polyline clip-path="url(#clip432)" style="stroke:#000000; stroke-linecap:round; stroke-linejoin:round; stroke-width:2; stroke-opacity:0.1; fill:none" points="262.551,141.152 2352.76,141.152 "/>
<polyline clip-path="url(#clip430)" style="stroke:#000000; stroke-linecap:round; stroke-linejoin:round; stroke-width:4; stroke-opacity:1; fill:none" points="262.551,1423.18 262.551,47.2441 "/>
<polyline clip-path="url(#clip430)" style="stroke:#000000; stroke-linecap:round; stroke-linejoin:round; stroke-width:4; stroke-opacity:1; fill:none" points="262.551,1409.61 281.449,1409.61 "/>
<polyline clip-path="url(#clip430)" style="stroke:#000000; stroke-linecap:round; stroke-linejoin:round; stroke-width:4; stroke-opacity:1; fill:none" points="262.551,986.789 281.449,986.789 "/>
<polyline clip-path="url(#clip430)" style="stroke:#000000; stroke-linecap:round; stroke-linejoin:round; stroke-width:4; stroke-opacity:1; fill:none" points="262.551,563.971 281.449,563.971 "/>
<polyline clip-path="url(#clip430)" style="stroke:#000000; stroke-linecap:round; stroke-linejoin:round; stroke-width:4; stroke-opacity:1; fill:none" points="262.551,141.152 281.449,141.152 "/>
<path clip-path="url(#clip430)" d="M143.103 1392.33 L165.325 1392.33 L165.325 1394.32 L152.778 1426.89 L147.894 1426.89 L159.7 1396.26 L143.103 1396.26 L143.103 1392.33 Z" fill="#000000" fill-rule="nonzero" fill-opacity="1" /><path clip-path="url(#clip430)" d="M184.445 1395.41 Q180.834 1395.41 179.005 1398.97 Q177.2 1402.51 177.2 1409.64 Q177.2 1416.75 179.005 1420.31 Q180.834 1423.85 184.445 1423.85 Q188.079 1423.85 189.885 1420.31 Q191.713 1416.75 191.713 1409.64 Q191.713 1402.51 189.885 1398.97 Q188.079 1395.41 184.445 1395.41 M184.445 1391.7 Q190.255 1391.7 193.311 1396.31 Q196.389 1400.89 196.389 1409.64 Q196.389 1418.37 193.311 1422.98 Q190.255 1427.56 184.445 1427.56 Q178.635 1427.56 175.556 1422.98 Q172.501 1418.37 172.501 1409.64 Q172.501 1400.89 175.556 1396.31 Q178.635 1391.7 184.445 1391.7 Z" fill="#000000" fill-rule="nonzero" fill-opacity="1" /><path clip-path="url(#clip430)" d="M214.607 1395.41 Q210.996 1395.41 209.167 1398.97 Q207.362 1402.51 207.362 1409.64 Q207.362 1416.75 209.167 1420.31 Q210.996 1423.85 214.607 1423.85 Q218.241 1423.85 220.047 1420.31 Q221.875 1416.75 221.875 1409.64 Q221.875 1402.51 220.047 1398.97 Q218.241 1395.41 214.607 1395.41 M214.607 1391.7 Q220.417 1391.7 223.473 1396.31 Q226.551 1400.89 226.551 1409.64 Q226.551 1418.37 223.473 1422.98 Q220.417 1427.56 214.607 1427.56 Q208.797 1427.56 205.718 1422.98 Q202.662 1418.37 202.662 1409.64 Q202.662 1400.89 205.718 1396.31 Q208.797 1391.7 214.607 1391.7 Z" fill="#000000" fill-rule="nonzero" fill-opacity="1" /><path clip-path="url(#clip430)" d="M154.283 987.657 Q150.95 987.657 149.028 989.439 Q147.13 991.222 147.13 994.347 Q147.13 997.472 149.028 999.254 Q150.95 1001.04 154.283 1001.04 Q157.616 1001.04 159.538 999.254 Q161.459 997.449 161.459 994.347 Q161.459 991.222 159.538 989.439 Q157.64 987.657 154.283 987.657 M149.607 985.666 Q146.598 984.926 144.908 982.865 Q143.241 980.805 143.241 977.842 Q143.241 973.699 146.181 971.291 Q149.144 968.884 154.283 968.884 Q159.445 968.884 162.385 971.291 Q165.325 973.699 165.325 977.842 Q165.325 980.805 163.635 982.865 Q161.968 984.926 158.982 985.666 Q162.362 986.453 164.237 988.745 Q166.135 991.037 166.135 994.347 Q166.135 999.37 163.056 1002.06 Q160.001 1004.74 154.283 1004.74 Q148.566 1004.74 145.487 1002.06 Q142.431 999.37 142.431 994.347 Q142.431 991.037 144.329 988.745 Q146.228 986.453 149.607 985.666 M147.894 978.282 Q147.894 980.967 149.561 982.472 Q151.251 983.976 154.283 983.976 Q157.292 983.976 158.982 982.472 Q160.695 980.967 160.695 978.282 Q160.695 975.597 158.982 974.092 Q157.292 972.588 154.283 972.588 Q151.251 972.588 149.561 974.092 Q147.894 975.597 147.894 978.282 Z" fill="#000000" fill-rule="nonzero" fill-opacity="1" /><path clip-path="url(#clip430)" d="M184.445 972.588 Q180.834 972.588 179.005 976.152 Q177.2 979.694 177.2 986.824 Q177.2 993.93 179.005 997.495 Q180.834 1001.04 184.445 1001.04 Q188.079 1001.04 189.885 997.495 Q191.713 993.93 191.713 986.824 Q191.713 979.694 189.885 976.152 Q188.079 972.588 184.445 972.588 M184.445 968.884 Q190.255 968.884 193.311 973.49 Q196.389 978.074 196.389 986.824 Q196.389 995.55 193.311 1000.16 Q190.255 1004.74 184.445 1004.74 Q178.635 1004.74 175.556 1000.16 Q172.501 995.55 172.501 986.824 Q172.501 978.074 175.556 973.49 Q178.635 968.884 184.445 968.884 Z" fill="#000000" fill-rule="nonzero" fill-opacity="1" /><path clip-path="url(#clip430)" d="M214.607 972.588 Q210.996 972.588 209.167 976.152 Q207.362 979.694 207.362 986.824 Q207.362 993.93 209.167 997.495 Q210.996 1001.04 214.607 1001.04 Q218.241 1001.04 220.047 997.495 Q221.875 993.93 221.875 986.824 Q221.875 979.694 220.047 976.152 Q218.241 972.588 214.607 972.588 M214.607 968.884 Q220.417 968.884 223.473 973.49 Q226.551 978.074 226.551 986.824 Q226.551 995.55 223.473 1000.16 Q220.417 1004.74 214.607 1004.74 Q208.797 1004.74 205.718 1000.16 Q202.662 995.55 202.662 986.824 Q202.662 978.074 205.718 973.49 Q208.797 968.884 214.607 968.884 Z" fill="#000000" fill-rule="nonzero" fill-opacity="1" /><path clip-path="url(#clip430)" d="M144.422 580.533 L144.422 576.274 Q146.181 577.107 147.987 577.547 Q149.792 577.987 151.528 577.987 Q156.158 577.987 158.589 574.885 Q161.042 571.76 161.39 565.417 Q160.047 567.408 157.987 568.473 Q155.927 569.538 153.427 569.538 Q148.241 569.538 145.209 566.413 Q142.2 563.264 142.2 557.825 Q142.2 552.501 145.348 549.283 Q148.496 546.066 153.728 546.066 Q159.723 546.066 162.871 550.672 Q166.042 555.255 166.042 564.005 Q166.042 572.176 162.153 577.061 Q158.288 581.922 151.737 581.922 Q149.978 581.922 148.172 581.575 Q146.366 581.227 144.422 580.533 M153.728 565.88 Q156.876 565.88 158.704 563.727 Q160.556 561.575 160.556 557.825 Q160.556 554.098 158.704 551.945 Q156.876 549.769 153.728 549.769 Q150.579 549.769 148.728 551.945 Q146.899 554.098 146.899 557.825 Q146.899 561.575 148.728 563.727 Q150.579 565.88 153.728 565.88 Z" fill="#000000" fill-rule="nonzero" fill-opacity="1" /><path clip-path="url(#clip430)" d="M184.445 549.769 Q180.834 549.769 179.005 553.334 Q177.2 556.876 177.2 564.005 Q177.2 571.112 179.005 574.676 Q180.834 578.218 184.445 578.218 Q188.079 578.218 189.885 574.676 Q191.713 571.112 191.713 564.005 Q191.713 556.876 189.885 553.334 Q188.079 549.769 184.445 549.769 M184.445 546.066 Q190.255 546.066 193.311 550.672 Q196.389 555.255 196.389 564.005 Q196.389 572.732 193.311 577.338 Q190.255 581.922 184.445 581.922 Q178.635 581.922 175.556 577.338 Q172.501 572.732 172.501 564.005 Q172.501 555.255 175.556 550.672 Q178.635 546.066 184.445 546.066 Z" fill="#000000" fill-rule="nonzero" fill-opacity="1" /><path clip-path="url(#clip430)" d="M214.607 549.769 Q210.996 549.769 209.167 553.334 Q207.362 556.876 207.362 564.005 Q207.362 571.112 209.167 574.676 Q210.996 578.218 214.607 578.218 Q218.241 578.218 220.047 574.676 Q221.875 571.112 221.875 564.005 Q221.875 556.876 220.047 553.334 Q218.241 549.769 214.607 549.769 M214.607 546.066 Q220.417 546.066 223.473 550.672 Q226.551 555.255 226.551 564.005 Q226.551 572.732 223.473 577.338 Q220.417 581.922 214.607 581.922 Q208.797 581.922 205.718 577.338 Q202.662 572.732 202.662 564.005 Q202.662 555.255 205.718 550.672 Q208.797 546.066 214.607 546.066 Z" fill="#000000" fill-rule="nonzero" fill-opacity="1" /><path clip-path="url(#clip430)" d="M114.931 154.497 L122.57 154.497 L122.57 128.131 L114.26 129.798 L114.26 125.539 L122.524 123.872 L127.2 123.872 L127.2 154.497 L134.839 154.497 L134.839 158.432 L114.931 158.432 L114.931 154.497 Z" fill="#000000" fill-rule="nonzero" fill-opacity="1" /><path clip-path="url(#clip430)" d="M154.283 126.951 Q150.672 126.951 148.843 130.516 Q147.038 134.057 147.038 141.187 Q147.038 148.293 148.843 151.858 Q150.672 155.4 154.283 155.4 Q157.917 155.4 159.723 151.858 Q161.552 148.293 161.552 141.187 Q161.552 134.057 159.723 130.516 Q157.917 126.951 154.283 126.951 M154.283 123.247 Q160.093 123.247 163.149 127.854 Q166.227 132.437 166.227 141.187 Q166.227 149.914 163.149 154.52 Q160.093 159.103 154.283 159.103 Q148.473 159.103 145.394 154.52 Q142.339 149.914 142.339 141.187 Q142.339 132.437 145.394 127.854 Q148.473 123.247 154.283 123.247 Z" fill="#000000" fill-rule="nonzero" fill-opacity="1" /><path clip-path="url(#clip430)" d="M184.445 126.951 Q180.834 126.951 179.005 130.516 Q177.2 134.057 177.2 141.187 Q177.2 148.293 179.005 151.858 Q180.834 155.4 184.445 155.4 Q188.079 155.4 189.885 151.858 Q191.713 148.293 191.713 141.187 Q191.713 134.057 189.885 130.516 Q188.079 126.951 184.445 126.951 M184.445 123.247 Q190.255 123.247 193.311 127.854 Q196.389 132.437 196.389 141.187 Q196.389 149.914 193.311 154.52 Q190.255 159.103 184.445 159.103 Q178.635 159.103 175.556 154.52 Q172.501 149.914 172.501 141.187 Q172.501 132.437 175.556 127.854 Q178.635 123.247 184.445 123.247 Z" fill="#000000" fill-rule="nonzero" fill-opacity="1" /><path clip-path="url(#clip430)" d="M214.607 126.951 Q210.996 126.951 209.167 130.516 Q207.362 134.057 207.362 141.187 Q207.362 148.293 209.167 151.858 Q210.996 155.4 214.607 155.4 Q218.241 155.4 220.047 151.858 Q221.875 148.293 221.875 141.187 Q221.875 134.057 220.047 130.516 Q218.241 126.951 214.607 126.951 M214.607 123.247 Q220.417 123.247 223.473 127.854 Q226.551 132.437 226.551 141.187 Q226.551 149.914 223.473 154.52 Q220.417 159.103 214.607 159.103 Q208.797 159.103 205.718 154.52 Q202.662 149.914 202.662 141.187 Q202.662 132.437 205.718 127.854 Q208.797 123.247 214.607 123.247 Z" fill="#000000" fill-rule="nonzero" fill-opacity="1" /><path clip-path="url(#clip430)" d="M58.657 976.966 L77.5631 976.966 L77.5631 982.854 L28.3562 982.854 L28.3562 976.966 L33.7671 976.966 Q30.5842 975.12 29.0564 972.319 Q27.4968 969.486 27.4968 965.571 Q27.4968 959.078 32.6531 955.036 Q37.8093 950.962 46.212 950.962 Q54.6147 950.962 59.771 955.036 Q64.9272 959.078 64.9272 965.571 Q64.9272 969.486 63.3994 972.319 Q61.8398 975.12 58.657 976.966 M46.212 957.041 Q39.7508 957.041 36.0905 959.715 Q32.3984 962.356 32.3984 967.003 Q32.3984 971.65 36.0905 974.324 Q39.7508 976.966 46.212 976.966 Q52.6732 976.966 56.3653 974.324 Q60.0256 971.65 60.0256 967.003 Q60.0256 962.356 56.3653 959.715 Q52.6732 957.041 46.212 957.041 Z" fill="#000000" fill-rule="nonzero" fill-opacity="1" /><path clip-path="url(#clip430)" d="M33.8307 920.597 Q33.2578 921.584 33.0032 922.762 Q32.7167 923.907 32.7167 925.308 Q32.7167 930.273 35.9632 932.947 Q39.1779 935.588 45.2253 935.588 L64.0042 935.588 L64.0042 941.477 L28.3562 941.477 L28.3562 935.588 L33.8944 935.588 Q30.6479 933.742 29.0883 930.782 Q27.4968 927.822 27.4968 923.589 Q27.4968 922.984 27.5923 922.252 Q27.656 921.52 27.8151 920.629 L33.8307 920.597 Z" fill="#000000" fill-rule="nonzero" fill-opacity="1" /><path clip-path="url(#clip430)" d="M32.4621 902.073 Q32.4621 906.784 36.1542 909.521 Q39.8145 912.258 46.212 912.258 Q52.6095 912.258 56.3017 909.553 Q59.9619 906.816 59.9619 902.073 Q59.9619 897.394 56.2698 894.657 Q52.5777 891.92 46.212 891.92 Q39.8781 891.92 36.186 894.657 Q32.4621 897.394 32.4621 902.073 M27.4968 902.073 Q27.4968 894.434 32.4621 890.074 Q37.4273 885.713 46.212 885.713 Q54.9649 885.713 59.9619 890.074 Q64.9272 894.434 64.9272 902.073 Q64.9272 909.744 59.9619 914.104 Q54.9649 918.433 46.212 918.433 Q37.4273 918.433 32.4621 914.104 Q27.4968 909.744 27.4968 902.073 Z" fill="#000000" fill-rule="nonzero" fill-opacity="1" /><path clip-path="url(#clip430)" d="M45.7664 852.548 Q39.4007 852.548 35.8996 855.19 Q32.3984 857.8 32.3984 862.542 Q32.3984 867.253 35.8996 869.894 Q39.4007 872.504 45.7664 872.504 Q52.1003 872.504 55.6014 869.894 Q59.1026 867.253 59.1026 862.542 Q59.1026 857.8 55.6014 855.19 Q52.1003 852.548 45.7664 852.548 M59.58 846.691 Q68.683 846.691 73.1071 850.734 Q77.5631 854.776 77.5631 863.115 Q77.5631 866.202 77.0857 868.94 Q76.6401 871.677 75.6852 874.255 L69.9879 874.255 Q71.3884 871.677 72.0568 869.162 Q72.7252 866.648 72.7252 864.038 Q72.7252 858.277 69.7015 855.412 Q66.7096 852.548 60.6303 852.548 L57.7339 852.548 Q60.885 854.362 62.4446 857.195 Q64.0042 860.028 64.0042 863.974 Q64.0042 870.531 59.0071 874.541 Q54.01 878.552 45.7664 878.552 Q37.491 878.552 32.4939 874.541 Q27.4968 870.531 27.4968 863.974 Q27.4968 860.028 29.0564 857.195 Q30.616 854.362 33.7671 852.548 L28.3562 852.548 L28.3562 846.691 L59.58 846.691 Z" fill="#000000" fill-rule="nonzero" fill-opacity="1" /><path clip-path="url(#clip430)" d="M33.8307 813.972 Q33.2578 814.958 33.0032 816.136 Q32.7167 817.282 32.7167 818.682 Q32.7167 823.648 35.9632 826.321 Q39.1779 828.963 45.2253 828.963 L64.0042 828.963 L64.0042 834.851 L28.3562 834.851 L28.3562 828.963 L33.8944 828.963 Q30.6479 827.117 29.0883 824.157 Q27.4968 821.197 27.4968 816.964 Q27.4968 816.359 27.5923 815.627 Q27.656 814.895 27.8151 814.004 L33.8307 813.972 Z" fill="#000000" fill-rule="nonzero" fill-opacity="1" /><path clip-path="url(#clip430)" d="M46.0847 791.628 Q46.0847 798.726 47.7079 801.463 Q49.3312 804.2 53.2461 804.2 Q56.3653 804.2 58.2114 802.163 Q60.0256 800.094 60.0256 796.561 Q60.0256 791.692 56.5881 788.763 Q53.1188 785.803 47.3897 785.803 L46.0847 785.803 L46.0847 791.628 M43.6657 779.947 L64.0042 779.947 L64.0042 785.803 L58.5933 785.803 Q61.8398 787.809 63.3994 790.801 Q64.9272 793.792 64.9272 798.121 Q64.9272 803.596 61.8716 806.842 Q58.7843 810.057 53.6281 810.057 Q47.6125 810.057 44.5569 806.046 Q41.5014 802.004 41.5014 794.015 L41.5014 785.803 L40.9285 785.803 Q36.8862 785.803 34.6901 788.477 Q32.4621 791.119 32.4621 795.925 Q32.4621 798.98 33.1941 801.877 Q33.9262 804.773 35.3903 807.447 L29.9795 807.447 Q28.7381 804.232 28.1334 801.208 Q27.4968 798.185 27.4968 795.32 Q27.4968 787.586 31.5072 783.766 Q35.5176 779.947 43.6657 779.947 Z" fill="#000000" fill-rule="nonzero" fill-opacity="1" /><path clip-path="url(#clip430)" d="M35.1993 740.129 Q31.2526 737.933 29.3747 734.878 Q27.4968 731.822 27.4968 727.685 Q27.4968 722.115 31.4117 719.091 Q35.2948 716.067 42.4881 716.067 L64.0042 716.067 L64.0042 721.955 L42.679 721.955 Q37.5546 721.955 35.072 723.77 Q32.5894 725.584 32.5894 729.308 Q32.5894 733.859 35.6131 736.501 Q38.6368 739.143 43.8567 739.143 L64.0042 739.143 L64.0042 745.031 L42.679 745.031 Q37.5228 745.031 35.072 746.845 Q32.5894 748.66 32.5894 752.447 Q32.5894 756.935 35.6449 759.577 Q38.6686 762.218 43.8567 762.218 L64.0042 762.218 L64.0042 768.107 L28.3562 768.107 L28.3562 762.218 L33.8944 762.218 Q30.616 760.213 29.0564 757.412 Q27.4968 754.611 27.4968 750.76 Q27.4968 746.877 29.4702 744.172 Q31.4436 741.434 35.1993 740.129 Z" fill="#000000" fill-rule="nonzero" fill-opacity="1" /><path clip-path="url(#clip430)" d="M14.479 683.666 L14.479 677.809 L64.0042 677.809 L64.0042 683.666 L14.479 683.666 Z" fill="#000000" fill-rule="nonzero" fill-opacity="1" /><path clip-path="url(#clip430)" d="M44.7161 635.063 L47.5806 635.063 L47.5806 661.99 Q53.6281 661.608 56.8109 658.362 Q59.9619 655.084 59.9619 649.259 Q59.9619 645.885 59.1344 642.734 Q58.3069 639.551 56.6518 636.432 L62.1899 636.432 Q63.5267 639.583 64.227 642.893 Q64.9272 646.203 64.9272 649.609 Q64.9272 658.139 59.9619 663.136 Q54.9967 668.102 46.5303 668.102 Q37.7774 668.102 32.6531 663.391 Q27.4968 658.648 27.4968 650.628 Q27.4968 643.434 32.1438 639.265 Q36.7589 635.063 44.7161 635.063 M42.9973 640.92 Q38.1912 640.984 35.3266 643.625 Q32.4621 646.235 32.4621 650.564 Q32.4621 655.466 35.2312 658.426 Q38.0002 661.354 43.0292 661.799 L42.9973 640.92 Z" fill="#000000" fill-rule="nonzero" fill-opacity="1" /><path clip-path="url(#clip430)" d="M42.4881 595.819 L64.0042 595.819 L64.0042 601.675 L42.679 601.675 Q37.6183 601.675 35.1038 603.649 Q32.5894 605.622 32.5894 609.569 Q32.5894 614.311 35.6131 617.049 Q38.6368 619.786 43.8567 619.786 L64.0042 619.786 L64.0042 625.674 L28.3562 625.674 L28.3562 619.786 L33.8944 619.786 Q30.6797 617.685 29.0883 614.852 Q27.4968 611.988 27.4968 608.264 Q27.4968 602.121 31.3163 598.97 Q35.1038 595.819 42.4881 595.819 Z" fill="#000000" fill-rule="nonzero" fill-opacity="1" /><path clip-path="url(#clip430)" d="M45.7664 560.68 Q39.4007 560.68 35.8996 563.322 Q32.3984 565.932 32.3984 570.674 Q32.3984 575.385 35.8996 578.027 Q39.4007 580.637 45.7664 580.637 Q52.1003 580.637 55.6014 578.027 Q59.1026 575.385 59.1026 570.674 Q59.1026 565.932 55.6014 563.322 Q52.1003 560.68 45.7664 560.68 M59.58 554.824 Q68.683 554.824 73.1071 558.866 Q77.5631 562.908 77.5631 571.247 Q77.5631 574.335 77.0857 577.072 Q76.6401 579.809 75.6852 582.387 L69.9879 582.387 Q71.3884 579.809 72.0568 577.295 Q72.7252 574.78 72.7252 572.17 Q72.7252 566.409 69.7015 563.545 Q66.7096 560.68 60.6303 560.68 L57.7339 560.68 Q60.885 562.494 62.4446 565.327 Q64.0042 568.16 64.0042 572.107 Q64.0042 578.663 59.0071 582.674 Q54.01 586.684 45.7664 586.684 Q37.491 586.684 32.4939 582.674 Q27.4968 578.663 27.4968 572.107 Q27.4968 568.16 29.0564 565.327 Q30.616 562.494 33.7671 560.68 L28.3562 560.68 L28.3562 554.824 L59.58 554.824 Z" fill="#000000" fill-rule="nonzero" fill-opacity="1" /><path clip-path="url(#clip430)" d="M18.2347 536.968 L28.3562 536.968 L28.3562 524.905 L32.9077 524.905 L32.9077 536.968 L52.2594 536.968 Q56.6199 536.968 57.8613 535.79 Q59.1026 534.581 59.1026 530.921 L59.1026 524.905 L64.0042 524.905 L64.0042 530.921 Q64.0042 537.7 61.4897 540.278 Q58.9434 542.856 52.2594 542.856 L32.9077 542.856 L32.9077 547.153 L28.3562 547.153 L28.3562 542.856 L18.2347 542.856 L18.2347 536.968 Z" fill="#000000" fill-rule="nonzero" fill-opacity="1" /><path clip-path="url(#clip430)" d="M42.4881 487.57 L64.0042 487.57 L64.0042 493.427 L42.679 493.427 Q37.6183 493.427 35.1038 495.4 Q32.5894 497.373 32.5894 501.32 Q32.5894 506.062 35.6131 508.8 Q38.6368 511.537 43.8567 511.537 L64.0042 511.537 L64.0042 517.425 L14.479 517.425 L14.479 511.537 L33.8944 511.537 Q30.6797 509.436 29.0883 506.604 Q27.4968 503.739 27.4968 500.015 Q27.4968 493.872 31.3163 490.721 Q35.1038 487.57 42.4881 487.57 Z" fill="#000000" fill-rule="nonzero" fill-opacity="1" /><polyline clip-path="url(#clip432)" style="stroke:#009af9; stroke-linecap:round; stroke-linejoin:round; stroke-width:4; stroke-opacity:1; fill:none" points="321.708,128.468 329.441,124.239 337.174,120.011 344.907,128.468 352.64,136.924 360.372,145.38 368.105,162.293 375.838,170.749 383.571,170.749 391.304,162.293 399.037,145.38 406.77,120.011 414.503,128.468 422.236,136.924 429.969,136.924 437.702,128.468 445.434,120.011 453.167,124.239 460.9,128.468 468.633,124.239 476.366,128.468 484.099,136.924 491.832,136.924 499.565,166.521 507.298,191.89 515.031,208.803 522.764,229.944 530.496,251.085 538.229,272.226 545.962,289.139 553.695,339.877 561.428,390.615 569.161,441.353 576.894,492.091 584.627,534.373 592.36,568.199 600.093,623.165 607.826,665.447 615.558,699.272 623.291,724.642 631.024,618.937 638.757,635.85 646.49,652.762 654.223,669.675 661.956,711.957 669.689,754.239 677.422,788.064 685.155,813.433 692.887,830.346 700.62,859.943 708.353,881.084 716.086,893.769 723.819,902.225 731.552,936.051 739.285,965.648 747.018,986.789 754.751,999.473 762.484,1024.84 770.217,1041.76 777.949,1050.21 785.682,1050.21 793.415,1067.12 801.148,1088.27 808.881,1117.86 816.614,1139 824.347,1151.69 832.08,1155.92 839.813,1151.69 847.546,1168.6 855.279,1177.06 863.011,1185.51 870.744,1193.97 878.477,1193.97 886.21,1215.11 893.943,1227.8 901.676,1232.02 909.409,1227.8 917.142,1215.11 924.875,1219.34 932.608,1227.8 940.34,1227.8 948.073,1219.34 955.806,1215.11 963.539,1227.8 971.272,1232.02 979.005,1227.8 986.738,1215.11 994.471,1193.97 1002.2,1193.97 1009.94,1185.51 1017.67,1177.06 1025.4,1168.6 1033.14,1151.69 1040.87,1155.92 1048.6,1151.69 1056.33,1139 1064.07,1117.86 1071.8,1088.27 1079.53,1067.12 1087.27,1050.21 1095,1050.21 1102.73,1041.76 1110.46,1024.84 1118.2,999.473 1125.93,986.789 1133.66,965.648 1141.4,936.051 1149.13,902.225 1156.86,893.769 1164.59,881.084 1172.33,859.943 1180.06,830.346 1187.79,813.433 1195.53,788.064 1203.26,754.239 1210.99,711.957 1218.73,669.675 1226.46,652.762 1234.19,635.85 1241.92,618.937 1249.66,606.252 1257.39,589.34 1265.12,563.971 1272.86,530.145 1280.59,492.091 1288.32,466.722 1296.05,432.897 1303.79,390.615 1311.52,348.333 1319.25,306.051 1326.99,263.769 1334.72,246.857 1342.45,234.172 1350.18,221.488 1357.92,208.803 1365.65,191.89 1373.38,166.521 1381.12,136.924 1388.85,136.924 1396.58,128.468 1404.31,124.239 1412.05,128.468 1419.78,124.239 1427.51,120.011 1435.25,128.468 1442.98,136.924 1450.71,136.924 1458.45,128.468 1466.18,120.011 1473.91,145.38 1481.64,162.293 1489.38,170.749 1497.11,170.749 1504.84,162.293 1512.58,145.38 1520.31,136.924 1528.04,128.468 1535.77,120.011 1543.51,124.239 1551.24,128.468 1558.97,124.239 1566.71,111.555 1574.44,98.8702 1582.17,86.1857 1589.9,90.4139 1597.64,111.555 1605.37,132.696 1613.1,153.837 1620.84,174.978 1628.57,196.118 1636.3,208.803 1644.04,213.031 1651.77,217.259 1659.5,225.716 1667.23,229.944 1674.97,229.944 1682.7,234.172 1690.43,238.4 1698.17,234.172 1705.9,221.488 1713.63,208.803 1721.36,196.118 1729.1,183.434 1736.83,170.749 1744.56,170.749 1752.3,204.575 1760.03,238.4 1767.76,267.998 1775.49,289.139 1783.23,301.823 1790.96,306.051 1798.69,301.823 1806.43,297.595 1814.16,293.367 1821.89,289.139 1829.62,297.595 1837.36,322.964 1845.09,339.877 1852.82,356.789 1860.56,373.702 1868.29,390.615 1876.02,399.071 1883.76,399.071 1891.49,390.615 1899.22,373.702 1906.95,377.93 1914.69,390.615 1922.42,399.071 1930.15,399.071 1937.89,390.615 1945.62,377.93 1953.35,373.702 1961.08,390.615 1968.82,399.071 1976.55,399.071 1984.28,390.615 1992.02,373.702 1999.75,356.789 2007.48,339.877 2015.21,322.964 2022.95,297.595 2030.68,289.139 2038.41,293.367 2046.15,297.595 2053.88,301.823 2061.61,306.051 2069.34,301.823 2077.08,289.139 2084.81,267.998 2092.54,238.4 2100.28,204.575 2108.01,170.749 2115.74,170.749 2123.48,183.434 2131.21,196.118 2138.94,208.803 2146.67,221.488 2154.41,234.172 2162.14,238.4 2169.87,234.172 2177.61,229.944 2185.34,229.944 2193.07,225.716 2200.8,217.259 2208.54,213.031 2216.27,208.803 2224,196.118 2231.74,174.978 2239.47,153.837 2247.2,132.696 2254.93,111.555 2262.67,90.4139 2270.4,86.1857 2278.13,98.8702 2285.87,111.555 2293.6,124.239 "/>
<polyline clip-path="url(#clip432)" style="stroke:#e26f46; stroke-linecap:round; stroke-linejoin:round; stroke-width:4; stroke-opacity:1; fill:none" points="321.708,128.468 329.441,124.239 337.174,120.011 344.907,128.468 352.64,136.924 360.372,145.38 368.105,162.293 375.838,170.749 383.571,170.749 391.304,162.293 399.037,145.38 406.77,120.011 414.503,128.468 422.236,136.924 429.969,136.924 437.702,128.468 445.434,120.011 453.167,124.239 460.9,128.468 468.633,124.239 476.366,128.468 484.099,136.924 491.832,136.924 499.565,166.521 507.298,191.89 515.031,208.803 522.764,221.488 530.496,234.172 538.229,246.857 545.962,263.769 553.695,306.051 561.428,348.333 569.161,390.615 576.894,432.897 584.627,466.722 592.36,492.091 600.093,530.145 607.826,563.971 615.558,597.796 623.291,614.709 631.024,627.393 638.757,644.306 646.49,661.219 654.223,678.131 661.956,720.413 669.689,762.695 677.422,796.521 685.155,821.89 692.887,838.802 700.62,868.4 708.353,889.541 716.086,902.225 723.819,902.225 731.552,936.051 739.285,965.648 747.018,986.789 754.751,999.473 762.484,1024.84 770.217,1041.76 777.949,1050.21 785.682,1050.21 793.415,1067.12 801.148,1088.27 808.881,1117.86 816.614,1139 824.347,1151.69 832.08,1155.92 839.813,1151.69 847.546,1168.6 855.279,1177.06 863.011,1185.51 870.744,1193.97 878.477,1193.97 886.21,1215.11 893.943,1227.8 901.676,1232.02 909.409,1227.8 917.142,1215.11 924.875,1219.34 932.608,1227.8 940.34,1227.8 948.073,1219.34 955.806,1215.11 963.539,1227.8 971.272,1232.02 979.005,1227.8 986.738,1215.11 994.471,1193.97 1002.2,1193.97 1009.94,1185.51 1017.67,1177.06 1025.4,1168.6 1033.14,1151.69 1040.87,1155.92 1048.6,1151.69 1056.33,1139 1064.07,1117.86 1071.8,1088.27 1079.53,1067.12 1087.27,1050.21 1095,1050.21 1102.73,1041.76 1110.46,1024.84 1118.2,999.473 1125.93,986.789 1133.66,965.648 1141.4,936.051 1149.13,902.225 1156.86,893.769 1164.59,881.084 1172.33,859.943 1180.06,830.346 1187.79,813.433 1195.53,788.064 1203.26,754.239 1210.99,711.957 1218.73,669.675 1226.46,652.762 1234.19,635.85 1241.92,618.937 1249.66,606.252 1257.39,589.34 1265.12,563.971 1272.86,530.145 1280.59,492.091 1288.32,466.722 1296.05,432.897 1303.79,390.615 1311.52,348.333 1319.25,306.051 1326.99,263.769 1334.72,246.857 1342.45,234.172 1350.18,221.488 1357.92,208.803 1365.65,191.89 1373.38,166.521 1381.12,136.924 1388.85,136.924 1396.58,128.468 1404.31,124.239 1412.05,128.468 1419.78,124.239 1427.51,120.011 1435.25,128.468 1442.98,136.924 1450.71,136.924 1458.45,128.468 1466.18,120.011 1473.91,145.38 1481.64,162.293 1489.38,170.749 1497.11,170.749 1504.84,162.293 1512.58,145.38 1520.31,136.924 1528.04,128.468 1535.77,120.011 1543.51,124.239 1551.24,128.468 1558.97,124.239 1566.71,111.555 1574.44,98.8702 1582.17,86.1857 1589.9,90.4139 1597.64,111.555 1605.37,132.696 1613.1,153.837 1620.84,174.978 1628.57,196.118 1636.3,208.803 1644.04,213.031 1651.77,217.259 1659.5,225.716 1667.23,229.944 1674.97,229.944 1682.7,234.172 1690.43,238.4 1698.17,234.172 1705.9,221.488 1713.63,208.803 1721.36,196.118 1729.1,183.434 1736.83,170.749 1744.56,170.749 1752.3,204.575 1760.03,238.4 1767.76,267.998 1775.49,289.139 1783.23,301.823 1790.96,306.051 1798.69,301.823 1806.43,297.595 1814.16,293.367 1821.89,289.139 1829.62,297.595 1837.36,322.964 1845.09,339.877 1852.82,356.789 1860.56,373.702 1868.29,390.615 1876.02,399.071 1883.76,399.071 1891.49,390.615 1899.22,373.702 1906.95,377.93 1914.69,390.615 1922.42,399.071 1930.15,399.071 1937.89,390.615 1945.62,377.93 1953.35,373.702 1961.08,390.615 1968.82,399.071 1976.55,399.071 1984.28,390.615 1992.02,373.702 1999.75,356.789 2007.48,339.877 2015.21,322.964 2022.95,297.595 2030.68,289.139 2038.41,293.367 2046.15,297.595 2053.88,301.823 2061.61,306.051 2069.34,301.823 2077.08,289.139 2084.81,267.998 2092.54,238.4 2100.28,204.575 2108.01,170.749 2115.74,170.749 2123.48,183.434 2131.21,196.118 2138.94,208.803 2146.67,221.488 2154.41,234.172 2162.14,238.4 2169.87,234.172 2177.61,229.944 2185.34,229.944 2193.07,225.716 2200.8,217.259 2208.54,213.031 2216.27,208.803 2224,196.118 2231.74,174.978 2239.47,153.837 2247.2,132.696 2254.93,111.555 2262.67,90.4139 2270.4,86.1857 2278.13,98.8702 2285.87,111.555 2293.6,124.239 "/>
<polyline clip-path="url(#clip432)" style="stroke:#3da44d; stroke-linecap:round; stroke-linejoin:round; stroke-width:4; stroke-opacity:1; fill:none" points="321.708,373.702 329.441,335.649 337.174,310.279 344.907,289.139 352.64,234.172 360.372,234.172 368.105,314.508 375.838,259.541 383.571,103.098 391.304,107.327 399.037,365.246 406.77,394.843 414.503,403.299 422.236,496.32 429.969,500.548 437.702,542.83 445.434,695.044 453.167,754.239 460.9,906.453 468.633,1012.16 476.366,1007.93 484.099,1062.9 491.832,1109.41 499.565,1088.27 507.298,1151.69 515.031,1130.55 522.764,969.876 530.496,944.507 538.229,948.735 545.962,893.769 553.695,855.715 561.428,876.856 569.161,931.823 576.894,876.856 584.627,762.695 592.36,589.34 600.093,525.917 607.826,517.46 615.558,576.655 623.291,652.762 631.024,783.836 638.757,779.608 646.49,783.836 654.223,792.292 661.956,830.346 669.689,741.554 677.422,720.413 685.155,699.272 692.887,703.501 700.62,521.689 708.353,314.508 716.086,251.085 723.819,183.434 731.552,183.434 739.285,297.595 747.018,310.279 754.751,238.4 762.484,259.541 770.217,301.823 777.949,369.474 785.682,352.561 793.415,213.031 801.148,179.206 808.881,318.736 816.614,449.81 824.347,504.776 832.08,492.091 839.813,466.722 847.546,483.635 855.279,538.601 863.011,568.199 870.744,593.568 878.477,589.34 886.21,678.131 893.943,661.219 901.676,513.232 909.409,534.373 917.142,563.971 924.875,585.111 932.608,669.675 940.34,758.467 948.073,766.923 955.806,821.89 963.539,809.205 971.272,847.259 979.005,834.574 986.738,906.453 994.471,995.245 1002.2,978.333 1009.94,893.769 1017.67,872.628 1025.4,961.42 1033.14,1050.21 1040.87,1007.93 1048.6,1050.21 1056.33,1139 1064.07,1155.92 1071.8,1193.97 1079.53,1240.48 1087.27,1172.83 1095,1198.2 1102.73,1286.99 1110.46,1337.73 1118.2,1312.36 1125.93,1384.24 1133.66,1337.73 1141.4,1303.9 1149.13,1257.39 1156.86,1236.25 1164.59,1291.22 1172.33,1337.73 1180.06,1198.2 1187.79,1270.08 1195.53,1244.71 1203.26,1223.57 1210.99,1223.57 1218.73,1177.06 1226.46,1020.61 1234.19,923.366 1241.92,978.333 1249.66,957.192 1257.39,859.943 1265.12,838.802 1272.86,826.118 1280.59,762.695 1288.32,690.816 1296.05,673.903 1303.79,699.272 1311.52,716.185 1319.25,779.608 1326.99,733.098 1334.72,585.111 1342.45,568.199 1350.18,623.165 1357.92,576.655 1365.65,437.125 1373.38,382.159 1381.12,318.736 1388.85,246.857 1396.58,255.313 1404.31,306.051 1412.05,318.736 1419.78,301.823 1427.51,411.756 1435.25,399.071 1442.98,386.387 1450.71,420.212 1458.45,386.387 1466.18,322.964 1473.91,276.454 1481.64,297.595 1489.38,361.018 1497.11,390.615 1504.84,361.018 1512.58,424.44 1520.31,462.494 1528.04,318.736 1535.77,263.769 1543.51,217.259 1551.24,158.065 1558.97,213.031 1566.71,187.662 1574.44,314.508 1582.17,437.125 1589.9,585.111 1597.64,682.36 1605.37,804.977 1613.1,800.749 1620.84,796.521 1628.57,754.239 1636.3,686.588 1644.04,669.675 1651.77,707.729 1659.5,695.044 1667.23,656.991 1674.97,576.655 1682.7,559.742 1690.43,513.232 1698.17,509.004 1705.9,352.561 1713.63,382.159 1721.36,487.863 1729.1,517.46 1736.83,462.494 1744.56,428.669 1752.3,555.514 1760.03,745.782 1767.76,809.205 1775.49,889.541 1783.23,919.138 1790.96,897.997 1798.69,1003.7 1806.43,1079.81 1814.16,1062.9 1821.89,1100.95 1829.62,1096.72 1837.36,1151.69 1845.09,1084.04 1852.82,1041.76 1860.56,1020.61 1868.29,974.104 1876.02,906.453 1883.76,728.87 1891.49,614.709 1899.22,466.722 1906.95,487.863 1914.69,530.145 1922.42,487.863 1930.15,466.722 1937.89,352.561 1945.62,229.944 1953.35,213.031 1961.08,225.716 1968.82,208.803 1976.55,170.749 1984.28,255.313 1992.02,348.333 1999.75,352.561 2007.48,428.669 2015.21,500.548 2022.95,492.091 2030.68,377.93 2038.41,466.722 2046.15,462.494 2053.88,348.333 2061.61,348.333 2069.34,470.95 2077.08,513.232 2084.81,618.937 2092.54,580.883 2100.28,593.568 2108.01,623.165 2115.74,711.957 2123.48,775.38 2131.21,771.152 2138.94,750.011 2146.67,733.098 2154.41,817.662 2162.14,864.172 2169.87,775.38 2177.61,762.695 2185.34,618.937 2193.07,521.689 2200.8,475.179 2208.54,432.897 2216.27,555.514 2224,661.219 2231.74,563.971 2239.47,593.568 2247.2,487.863 2254.93,432.897 2262.67,424.44 2270.4,466.722 2278.13,420.212 2285.87,551.286 2293.6,513.232 "/>
<path clip-path="url(#clip430)" d="M1987.49 1377.32 L2283.08 1377.32 L2283.08 1169.96 L1987.49 1169.96  Z" fill="#ffffff" fill-rule="evenodd" fill-opacity="1"/>
<polyline clip-path="url(#clip430)" style="stroke:#000000; stroke-linecap:round; stroke-linejoin:round; stroke-width:4; stroke-opacity:1; fill:none" points="1987.49,1377.32 2283.08,1377.32 2283.08,1169.96 1987.49,1169.96 1987.49,1377.32 "/>
<polyline clip-path="url(#clip430)" style="stroke:#009af9; stroke-linecap:round; stroke-linejoin:round; stroke-width:4; stroke-opacity:1; fill:none" points="2010.71,1221.8 2150.06,1221.8 "/>
<path clip-path="url(#clip430)" d="M2191.71 1213.91 L2191.71 1217.94 Q2189.9 1217.02 2187.96 1216.55 Q2186.02 1216.09 2183.93 1216.09 Q2180.76 1216.09 2179.16 1217.06 Q2177.59 1218.03 2177.59 1219.98 Q2177.59 1221.46 2178.72 1222.32 Q2179.86 1223.15 2183.28 1223.91 L2184.74 1224.24 Q2189.28 1225.21 2191.18 1226.99 Q2193.1 1228.75 2193.1 1231.92 Q2193.1 1235.53 2190.23 1237.64 Q2187.38 1239.75 2182.38 1239.75 Q2180.3 1239.75 2178.03 1239.33 Q2175.78 1238.94 2173.28 1238.13 L2173.28 1233.73 Q2175.65 1234.95 2177.94 1235.58 Q2180.23 1236.18 2182.47 1236.18 Q2185.48 1236.18 2187.1 1235.16 Q2188.72 1234.12 2188.72 1232.25 Q2188.72 1230.51 2187.54 1229.58 Q2186.39 1228.66 2182.43 1227.8 L2180.95 1227.46 Q2176.99 1226.62 2175.23 1224.91 Q2173.47 1223.17 2173.47 1220.16 Q2173.47 1216.51 2176.06 1214.52 Q2178.65 1212.52 2183.42 1212.52 Q2185.78 1212.52 2187.87 1212.87 Q2189.95 1213.22 2191.71 1213.91 Z" fill="#000000" fill-rule="nonzero" fill-opacity="1" /><path clip-path="url(#clip430)" d="M2204.09 1205.79 L2204.09 1213.15 L2212.87 1213.15 L2212.87 1216.46 L2204.09 1216.46 L2204.09 1230.53 Q2204.09 1233.7 2204.95 1234.61 Q2205.83 1235.51 2208.49 1235.51 L2212.87 1235.51 L2212.87 1239.08 L2208.49 1239.08 Q2203.56 1239.08 2201.69 1237.25 Q2199.81 1235.39 2199.81 1230.53 L2199.81 1216.46 L2196.69 1216.46 L2196.69 1213.15 L2199.81 1213.15 L2199.81 1205.79 L2204.09 1205.79 Z" fill="#000000" fill-rule="nonzero" fill-opacity="1" /><path clip-path="url(#clip430)" d="M2233.49 1217.13 Q2232.77 1216.71 2231.92 1216.53 Q2231.08 1216.32 2230.07 1216.32 Q2226.46 1216.32 2224.51 1218.68 Q2222.59 1221.02 2222.59 1225.42 L2222.59 1239.08 L2218.31 1239.08 L2218.31 1213.15 L2222.59 1213.15 L2222.59 1217.18 Q2223.93 1214.82 2226.08 1213.68 Q2228.24 1212.52 2231.32 1212.52 Q2231.76 1212.52 2232.29 1212.59 Q2232.82 1212.64 2233.47 1212.76 L2233.49 1217.13 Z" fill="#000000" fill-rule="nonzero" fill-opacity="1" /><path clip-path="url(#clip430)" d="M2239.37 1235.14 L2247.01 1235.14 L2247.01 1208.77 L2238.7 1210.44 L2238.7 1206.18 L2246.96 1204.52 L2251.64 1204.52 L2251.64 1235.14 L2259.28 1235.14 L2259.28 1239.08 L2239.37 1239.08 L2239.37 1235.14 Z" fill="#000000" fill-rule="nonzero" fill-opacity="1" /><polyline clip-path="url(#clip430)" style="stroke:#e26f46; stroke-linecap:round; stroke-linejoin:round; stroke-width:4; stroke-opacity:1; fill:none" points="2010.71,1273.64 2150.06,1273.64 "/>
<path clip-path="url(#clip430)" d="M2191.71 1265.75 L2191.71 1269.78 Q2189.9 1268.86 2187.96 1268.39 Q2186.02 1267.93 2183.93 1267.93 Q2180.76 1267.93 2179.16 1268.9 Q2177.59 1269.87 2177.59 1271.82 Q2177.59 1273.3 2178.72 1274.16 Q2179.86 1274.99 2183.28 1275.75 L2184.74 1276.08 Q2189.28 1277.05 2191.18 1278.83 Q2193.1 1280.59 2193.1 1283.76 Q2193.1 1287.37 2190.23 1289.48 Q2187.38 1291.59 2182.38 1291.59 Q2180.3 1291.59 2178.03 1291.17 Q2175.78 1290.78 2173.28 1289.97 L2173.28 1285.57 Q2175.65 1286.79 2177.94 1287.42 Q2180.23 1288.02 2182.47 1288.02 Q2185.48 1288.02 2187.1 1287 Q2188.72 1285.96 2188.72 1284.09 Q2188.72 1282.35 2187.54 1281.42 Q2186.39 1280.5 2182.43 1279.64 L2180.95 1279.3 Q2176.99 1278.46 2175.23 1276.75 Q2173.47 1275.01 2173.47 1272 Q2173.47 1268.35 2176.06 1266.36 Q2178.65 1264.36 2183.42 1264.36 Q2185.78 1264.36 2187.87 1264.71 Q2189.95 1265.06 2191.71 1265.75 Z" fill="#000000" fill-rule="nonzero" fill-opacity="1" /><path clip-path="url(#clip430)" d="M2204.09 1257.63 L2204.09 1264.99 L2212.87 1264.99 L2212.87 1268.3 L2204.09 1268.3 L2204.09 1282.37 Q2204.09 1285.54 2204.95 1286.45 Q2205.83 1287.35 2208.49 1287.35 L2212.87 1287.35 L2212.87 1290.92 L2208.49 1290.92 Q2203.56 1290.92 2201.69 1289.09 Q2199.81 1287.23 2199.81 1282.37 L2199.81 1268.3 L2196.69 1268.3 L2196.69 1264.99 L2199.81 1264.99 L2199.81 1257.63 L2204.09 1257.63 Z" fill="#000000" fill-rule="nonzero" fill-opacity="1" /><path clip-path="url(#clip430)" d="M2233.49 1268.97 Q2232.77 1268.55 2231.92 1268.37 Q2231.08 1268.16 2230.07 1268.16 Q2226.46 1268.16 2224.51 1270.52 Q2222.59 1272.86 2222.59 1277.26 L2222.59 1290.92 L2218.31 1290.92 L2218.31 1264.99 L2222.59 1264.99 L2222.59 1269.02 Q2223.93 1266.66 2226.08 1265.52 Q2228.24 1264.36 2231.32 1264.36 Q2231.76 1264.36 2232.29 1264.43 Q2232.82 1264.48 2233.47 1264.6 L2233.49 1268.97 Z" fill="#000000" fill-rule="nonzero" fill-opacity="1" /><path clip-path="url(#clip430)" d="M2242.59 1286.98 L2258.91 1286.98 L2258.91 1290.92 L2236.96 1290.92 L2236.96 1286.98 Q2239.63 1284.23 2244.21 1279.6 Q2248.82 1274.94 2250 1273.6 Q2252.24 1271.08 2253.12 1269.34 Q2254.02 1267.58 2254.02 1265.89 Q2254.02 1263.14 2252.08 1261.4 Q2250.16 1259.67 2247.06 1259.67 Q2244.86 1259.67 2242.4 1260.43 Q2239.97 1261.19 2237.2 1262.74 L2237.2 1258.02 Q2240.02 1256.89 2242.47 1256.31 Q2244.93 1255.73 2246.96 1255.73 Q2252.33 1255.73 2255.53 1258.42 Q2258.72 1261.1 2258.72 1265.59 Q2258.72 1267.72 2257.91 1269.64 Q2257.13 1271.54 2255.02 1274.13 Q2254.44 1274.8 2251.34 1278.02 Q2248.24 1281.22 2242.59 1286.98 Z" fill="#000000" fill-rule="nonzero" fill-opacity="1" /><polyline clip-path="url(#clip430)" style="stroke:#3da44d; stroke-linecap:round; stroke-linejoin:round; stroke-width:4; stroke-opacity:1; fill:none" points="2010.71,1325.48 2150.06,1325.48 "/>
<path clip-path="url(#clip430)" d="M2191.71 1317.59 L2191.71 1321.62 Q2189.9 1320.7 2187.96 1320.23 Q2186.02 1319.77 2183.93 1319.77 Q2180.76 1319.77 2179.16 1320.74 Q2177.59 1321.71 2177.59 1323.66 Q2177.59 1325.14 2178.72 1326 Q2179.86 1326.83 2183.28 1327.59 L2184.74 1327.92 Q2189.28 1328.89 2191.18 1330.67 Q2193.1 1332.43 2193.1 1335.6 Q2193.1 1339.21 2190.23 1341.32 Q2187.38 1343.43 2182.38 1343.43 Q2180.3 1343.43 2178.03 1343.01 Q2175.78 1342.62 2173.28 1341.81 L2173.28 1337.41 Q2175.65 1338.63 2177.94 1339.26 Q2180.23 1339.86 2182.47 1339.86 Q2185.48 1339.86 2187.1 1338.84 Q2188.72 1337.8 2188.72 1335.93 Q2188.72 1334.19 2187.54 1333.26 Q2186.39 1332.34 2182.43 1331.48 L2180.95 1331.14 Q2176.99 1330.3 2175.23 1328.59 Q2173.47 1326.85 2173.47 1323.84 Q2173.47 1320.19 2176.06 1318.2 Q2178.65 1316.2 2183.42 1316.2 Q2185.78 1316.2 2187.87 1316.55 Q2189.95 1316.9 2191.71 1317.59 Z" fill="#000000" fill-rule="nonzero" fill-opacity="1" /><path clip-path="url(#clip430)" d="M2204.09 1309.47 L2204.09 1316.83 L2212.87 1316.83 L2212.87 1320.14 L2204.09 1320.14 L2204.09 1334.21 Q2204.09 1337.38 2204.95 1338.29 Q2205.83 1339.19 2208.49 1339.19 L2212.87 1339.19 L2212.87 1342.76 L2208.49 1342.76 Q2203.56 1342.76 2201.69 1340.93 Q2199.81 1339.07 2199.81 1334.21 L2199.81 1320.14 L2196.69 1320.14 L2196.69 1316.83 L2199.81 1316.83 L2199.81 1309.47 L2204.09 1309.47 Z" fill="#000000" fill-rule="nonzero" fill-opacity="1" /><path clip-path="url(#clip430)" d="M2233.49 1320.81 Q2232.77 1320.39 2231.92 1320.21 Q2231.08 1320 2230.07 1320 Q2226.46 1320 2224.51 1322.36 Q2222.59 1324.7 2222.59 1329.1 L2222.59 1342.76 L2218.31 1342.76 L2218.31 1316.83 L2222.59 1316.83 L2222.59 1320.86 Q2223.93 1318.5 2226.08 1317.36 Q2228.24 1316.2 2231.32 1316.2 Q2231.76 1316.2 2232.29 1316.27 Q2232.82 1316.32 2233.47 1316.44 L2233.49 1320.81 Z" fill="#000000" fill-rule="nonzero" fill-opacity="1" /><path clip-path="url(#clip430)" d="M2252.73 1324.12 Q2256.08 1324.84 2257.96 1327.11 Q2259.86 1329.38 2259.86 1332.71 Q2259.86 1337.82 2256.34 1340.63 Q2252.82 1343.43 2246.34 1343.43 Q2244.16 1343.43 2241.85 1342.99 Q2239.56 1342.57 2237.1 1341.71 L2237.1 1337.2 Q2239.05 1338.33 2241.36 1338.91 Q2243.68 1339.49 2246.2 1339.49 Q2250.6 1339.49 2252.89 1337.76 Q2255.21 1336.02 2255.21 1332.71 Q2255.21 1329.65 2253.05 1327.94 Q2250.92 1326.2 2247.1 1326.2 L2243.08 1326.2 L2243.08 1322.36 L2247.29 1322.36 Q2250.74 1322.36 2252.57 1321 Q2254.39 1319.61 2254.39 1317.01 Q2254.39 1314.35 2252.5 1312.94 Q2250.62 1311.51 2247.1 1311.51 Q2245.18 1311.51 2242.98 1311.92 Q2240.78 1312.34 2238.15 1313.22 L2238.15 1309.05 Q2240.81 1308.31 2243.12 1307.94 Q2245.46 1307.57 2247.52 1307.57 Q2252.84 1307.57 2255.95 1310 Q2259.05 1312.41 2259.05 1316.53 Q2259.05 1319.4 2257.4 1321.39 Q2255.76 1323.36 2252.73 1324.12 Z" fill="#000000" fill-rule="nonzero" fill-opacity="1" /></svg>
